<svg width="38" height="29" viewBox="0 0 38 29" fill="none" xmlns="http://www.w3.org/2000/svg">
<path d="M32.1896 2.4287C29.693 1.27776 27.0573 0.461237 24.3499 0C23.9795 0.66688 23.6442 1.35301 23.3457 2.05552C20.4618 1.61794 17.5291 1.61794 14.6452 2.05552C14.3465 1.35308 14.0113 0.666961 13.641 0C10.9319 0.465132 8.29445 1.28359 5.7953 2.43472C0.833854 9.82617 -0.511118 17.034 0.161368 24.1396C3.06692 26.3012 6.31906 27.9452 9.77642 29C10.5549 27.9457 11.2438 26.8272 11.8357 25.6564C10.7114 25.2336 9.62628 24.7119 8.59284 24.0974C8.86483 23.8988 9.13083 23.6942 9.38787 23.4955C12.3949 24.9195 15.677 25.6578 18.9999 25.6578C22.3229 25.6578 25.6049 24.9195 28.612 23.4955C28.872 23.7092 29.138 23.9139 29.407 24.0974C28.3716 24.7129 27.2845 25.2356 26.1582 25.6594C26.7494 26.8297 27.4383 27.9472 28.2175 29C31.6778 27.9494 34.9324 26.3062 37.8385 24.1426C38.6275 15.9024 36.4905 8.76079 32.1896 2.4287ZM12.6875 19.7697C10.8135 19.7697 9.26533 18.0573 9.26533 15.9506C9.26533 13.8439 10.7597 12.1164 12.6816 12.1164C14.6034 12.1164 16.1396 13.8439 16.1068 15.9506C16.0739 18.0573 14.5974 19.7697 12.6875 19.7697ZM25.3123 19.7697C23.4354 19.7697 21.8931 18.0573 21.8931 15.9506C21.8931 13.8439 23.3875 12.1164 25.3123 12.1164C27.2371 12.1164 28.7614 13.8439 28.7286 15.9506C28.6957 18.0573 27.2222 19.7697 25.3123 19.7697Z" fill="white"/>
</svg>
