<svg width="89" height="89" viewBox="0 0 89 89" fill="none" xmlns="http://www.w3.org/2000/svg">
<g clip-path="url(#clip0_1_97)">
<path d="M89 44.5C89 19.9233 69.0767 0 44.5 0C19.9233 0 0 19.9233 0 44.5C0 69.0767 19.9233 89 44.5 89C69.0767 89 89 69.0767 89 44.5Z" fill="#00A3FF"/>
<path fill-rule="evenodd" clip-rule="evenodd" d="M44.5112 22.25L55.5219 39.4887L44.5104 45.9071L33.5004 39.4886L44.5112 22.25ZM36.8711 38.6733L44.5112 26.7119L52.1512 38.6733L44.5106 43.127L36.8711 38.6733Z" fill="white"/>
<path d="M44.4948 49.6961L31.7218 42.25L31.373 42.796C27.4391 48.9552 28.3178 57.0214 33.4855 62.1891C39.5666 68.2702 49.4261 68.2702 55.5073 62.1891C60.675 57.0214 61.5537 48.9552 57.6197 42.796L57.2708 42.2498L44.4948 49.6961Z" fill="white"/>
</g>
<defs>
<clipPath id="clip0_1_97">
<rect width="89" height="89" fill="white"/>
</clipPath>
</defs>
</svg>
