<svg width="317" height="233" viewBox="0 0 317 233" fill="none" xmlns="http://www.w3.org/2000/svg">
<path d="M47.4226 107.248C47.4226 104.252 44.9901 101.81 41.9806 101.81H5.44201C2.43713 101.81 0 104.243 0 107.248C0 110.253 2.43252 112.694 5.44201 112.694H41.9806C44.9808 112.685 47.4226 110.248 47.4226 107.248Z" fill="#FFAC33"/>
<path d="M57.2494 64.9394C58.3065 66.0011 59.7004 66.5365 61.099 66.5365C62.4884 66.5365 63.8869 66.0103 64.9486 64.9394C67.0672 62.8208 67.0672 59.3682 64.9486 57.2495L39.1048 31.4104C36.9815 29.2825 33.5381 29.2825 31.4103 31.4104C29.2916 33.5336 29.2916 36.977 31.4103 39.1049L57.2494 64.9394Z" fill="#FFAC33"/>
<path d="M64.976 149.584C62.8574 147.465 59.4047 147.465 57.2769 149.584L31.4423 175.418C29.3191 177.555 29.3191 180.989 31.4377 183.117C32.4993 184.174 33.8979 184.71 35.2919 184.71C36.6859 184.71 38.0752 184.184 39.1368 183.117L64.976 157.283C67.1039 155.155 67.1039 151.711 64.976 149.584Z" fill="#FFAC33"/>
<path d="M107.247 47.4133C110.248 47.4133 112.694 44.9808 112.694 41.9759V5.4374C112.694 2.43714 110.257 0 107.247 0C104.247 0 101.805 2.43252 101.805 5.4374V41.9759C101.805 44.9808 104.247 47.4133 107.247 47.4133Z" fill="#FFAC33"/>
<path d="M153.405 66.5272C154.795 66.5272 156.193 66.0056 157.246 64.9394L183.085 39.1048C185.217 36.9723 185.217 33.5289 183.085 31.4057C180.966 29.2824 177.518 29.2824 175.399 31.4057L149.556 57.2402C147.428 59.3681 147.428 62.8115 149.556 64.9394C150.622 66.001 152.007 66.5272 153.405 66.5272Z" fill="#FFAC33"/>
<path d="M262.97 119.184C250.725 86.8832 219.887 65.4521 185.051 65.4521C140.818 65.4521 104.515 100.094 101.866 143.671C79.8623 146.284 62.7469 165.056 62.7469 187.757C62.7469 212.239 82.6594 232.147 107.146 232.147H262.97C263.52 232.147 264.051 232.064 264.563 231.902C293.541 229.336 316.061 204.858 316.061 175.612C316.061 145.601 292.553 120.975 262.97 119.184Z" fill="#E1E8ED"/>
<path d="M83.8269 144.94C88.1242 142.595 92.8092 140.874 97.7942 139.904C100.568 112.56 115.879 89.0614 137.739 75.0064C129.574 67.2795 118.736 62.8438 107.247 62.8438C82.7653 62.8438 62.8574 82.7516 62.8574 107.243C62.8574 123.126 71.2489 137.089 83.8269 144.94Z" fill="#FFAC33"/>
</svg>
