<svg width="35" height="37" viewBox="0 0 35 37" fill="none" xmlns="http://www.w3.org/2000/svg">
<g clip-path="url(#clip0_3_7)">
<path d="M35.0438 7.72377C33.7504 8.3308 32.3641 8.73838 30.9066 8.92338C32.3941 7.98103 33.5371 6.48947 34.073 4.71463C32.684 5.58471 31.1391 6.21775 29.5012 6.55885C28.1887 5.07885 26.3184 4.15674 24.2484 4.15674C20.2727 4.15674 17.0488 7.56189 17.0488 11.7649C17.0488 12.3603 17.1145 12.9413 17.2375 13.4992C11.2547 13.1813 5.95273 10.1519 2.40078 5.54713C1.78008 6.67447 1.42734 7.98103 1.42734 9.37432C1.42734 12.0135 2.69609 14.3433 4.6293 15.7106C3.44805 15.6701 2.33789 15.3261 1.36719 14.7567C1.36719 14.7885 1.36719 14.8203 1.36719 14.8521C1.36719 18.5405 3.85 21.6132 7.13945 22.3156C6.53789 22.4891 5.90078 22.5816 5.24453 22.5816C4.77969 22.5816 4.32852 22.5353 3.88828 22.4428C4.80703 25.4635 7.46484 27.6691 10.6121 27.7298C8.15117 29.7706 5.04766 30.9846 1.67344 30.9846C1.09102 30.9846 0.519532 30.9499 -0.0410156 30.8777C3.1418 33.0399 6.92617 34.2973 10.9922 34.2973C24.232 34.2973 31.4727 22.703 31.4727 12.6494C31.4727 12.3199 31.4645 11.9874 31.4535 11.6637C32.859 10.5913 34.0785 9.25002 35.0438 7.72377Z" fill="white"/>
</g>
<defs>
<clipPath id="clip0_3_7">
<rect width="35" height="37" fill="white"/>
</clipPath>
</defs>
</svg>
