<svg width="17" height="16" viewBox="0 0 17 16" fill="none" xmlns="http://www.w3.org/2000/svg">
<path d="M8.26508 16C12.6833 16 16.2651 12.4183 16.2651 8.00001C16.2651 3.58173 12.6833 1.52588e-05 8.26508 1.52588e-05V16Z" fill="#43C7FF"/>
<path d="M8.26508 -1.90735e-06C3.8468 -2.29361e-06 0.265086 3.58172 0.265086 7.99999C0.265086 12.4183 3.8468 16 8.26508 16L8.26508 -1.90735e-06Z" fill="#0079AD"/>
<ellipse cx="8.26509" cy="7.99998" rx="5.33333" ry="5.33333" fill="#002B40"/>
<path d="M8.26508 10.6666C9.73782 10.6666 10.9317 9.47271 10.9317 7.99997C10.9317 6.52722 9.73782 5.33333 8.26508 5.33333V10.6666Z" fill="#0079AD"/>
<path d="M8.26508 5.3334C6.79234 5.3334 5.59845 6.52729 5.59845 8.00003C5.59845 9.47277 6.79234 10.6667 8.26508 10.6667L8.26508 5.3334Z" fill="#43C7FF"/>
</svg>
