<svg width="24" height="24" viewBox="0 0 24 24" fill="none" xmlns="http://www.w3.org/2000/svg">
<path fill-rule="evenodd" clip-rule="evenodd" d="M5.63615 5.63604C6.02668 5.24551 6.65984 5.24551 7.05037 5.63604L18.3641 16.9497C18.7546 17.3403 18.7546 17.9734 18.3641 18.364C17.9736 18.7545 17.3404 18.7545 16.9499 18.364L5.63615 7.05025C5.24563 6.65973 5.24563 6.02656 5.63615 5.63604Z" fill="#E45200"/>
<path fill-rule="evenodd" clip-rule="evenodd" d="M18.3639 5.63603C18.7545 6.02656 18.7545 6.65972 18.3639 7.05025L7.05023 18.364C6.65971 18.7545 6.02654 18.7545 5.63602 18.364C5.24549 17.9734 5.24549 17.3403 5.63602 16.9497L16.9497 5.63603C17.3402 5.24551 17.9734 5.24551 18.3639 5.63603Z" fill="#E45200"/>
</svg>
