<?xml version="1.0" encoding="iso-8859-1"?>
<!-- Generator: Adobe Illustrator 21.0.0, SVG Export Plug-In . SVG Version: 6.00 Build 0)  -->
<svg version="1.1" id="Capa_1" xmlns="http://www.w3.org/2000/svg" xmlns:xlink="http://www.w3.org/1999/xlink" x="0px" y="0px"
	 viewBox="0 0 512 512" style="enable-background:new 0 0 512 512;" xml:space="preserve">
<path style="fill:#F5B97D;" d="M491.864,287.228c-3.726,0.547-7.534,0.837-11.413,0.837c-35.705,0-65.922-23.357-76.286-55.617
	c-1.772-5.514-6.276-9.76-11.966-10.844c-59.295-11.289-104.133-63.345-104.133-125.926c0-26.284,7.934-50.698,21.506-71.032
	c3.227-4.835,0.534-11.275-5.168-12.404c-15.656-3.1-31.836-4.74-48.403-4.74C118.759,7.502,7.503,118.758,7.503,256
	c0,137.241,111.256,248.498,248.498,248.498c123.689,0,225.965-90.034,245.202-208.318
	C502.077,290.812,497.244,286.438,491.864,287.228z"/>
<g>
	<circle style="fill:#CD916E;" cx="143.779" cy="175.84" r="32.06"/>
	<circle style="fill:#CD916E;" cx="159.808" cy="336.159" r="24.05"/>
</g>
<g>
	<path style="fill:#F5B97D;" d="M359.227,72.475l-2.3,13.799c-1.89,11.341,4.512,22.434,15.277,26.471l20.361,7.635
		c13.449,5.043,28.291-2.75,31.774-16.685l7.257-29.03c4.523-18.093-12.377-34.226-30.241-28.867l-25.319,7.596
		C367.255,56.03,360.735,63.43,359.227,72.475z"/>
	<path style="fill:#F5B97D;" d="M440.371,159.808l-9.681,4.841c-7.593,3.796-10.91,12.853-7.566,20.655l7.789,18.173
		c4.716,11.003,19.389,13.144,27.052,3.948l12.53-15.036c5.875-7.05,4.645-17.583-2.697-23.089l-10.637-7.978
		C452.302,157.678,445.802,157.092,440.371,159.808z"/>
	<circle style="fill:#F5B97D;" cx="488.466" cy="111.71" r="16.03"/>
</g>
<g>
	<path style="fill:#E3AA75;" d="M286.062,474.438c-137.242,0-248.498-111.256-248.498-248.498
		c0-60.968,21.991-116.775,58.428-160.011C41.9,111.513,7.504,179.726,7.504,256c0,137.241,111.256,248.498,248.498,248.498
		c76.322,0,144.459-34.31,189.997-88.355C402.81,452.517,347.052,474.438,286.062,474.438z"/>
	<path style="fill:#E3AA75;" d="M396.131,101.776c-13.446-5.042-21.443-18.897-19.082-33.063l2.741-16.444l-3.752,1.126
		c-8.783,2.635-15.303,10.036-16.811,19.081l-2.3,13.799c-1.89,11.341,4.512,22.434,15.277,26.471l20.361,7.635
		c10.798,4.049,22.392-0.262,28.386-9.297L396.131,101.776z"/>
	<path style="fill:#E3AA75;" d="M448.017,193.147l-8.821-20.583c-1.657-3.866-1.795-7.982-0.791-11.774l-7.715,3.857
		c-7.592,3.796-10.91,12.853-7.566,20.655l7.789,18.173c4.716,11.003,19.389,13.145,27.052,3.948l3.114-3.737
		C455.569,202.563,450.531,199.015,448.017,193.147z"/>
</g>
<g>
	<path style="fill:#B67F5F;" d="M160.811,190.87c-17.709,0-32.064-14.356-32.064-32.064c0-4.435,0.902-8.659,2.53-12.5
		c-11.498,4.873-19.564,16.261-19.564,29.534c0,17.708,14.356,32.064,32.064,32.064c13.274,0,24.662-8.067,29.534-19.564
		C169.469,189.968,165.245,190.87,160.811,190.87z"/>
	<path style="fill:#B67F5F;" d="M172.334,347.685c-13.282,0-24.048-10.767-24.048-24.048c0-3.392,0.719-6.61,1.986-9.537
		c-8.532,3.694-14.511,12.173-14.511,22.062c0,13.282,10.767,24.048,24.048,24.048c9.89,0,18.368-5.979,22.062-14.511
		C178.944,346.966,175.726,347.685,172.334,347.685z"/>
</g>
<circle style="fill:#CD916E;" cx="312.117" cy="360.208" r="32.06"/>
<path style="fill:#B67F5F;" d="M329.148,375.239c-17.709,0-32.064-14.356-32.064-32.064c0-4.435,0.902-8.659,2.53-12.5
	c-11.498,4.873-19.564,16.261-19.564,29.534c0,17.708,14.356,32.064,32.064,32.064c13.274,0,24.662-8.067,29.534-19.564
	C337.807,374.337,333.583,375.239,329.148,375.239z"/>
<circle style="fill:#CD916E;" cx="247.648" cy="215.92" r="16.03"/>
<path d="M143.777,136.275c-21.816,0-39.564,17.749-39.564,39.564s17.749,39.564,39.564,39.564c21.816,0,39.565-17.749,39.565-39.564
	S165.592,136.275,143.777,136.275z M143.777,200.404c-13.545,0-24.564-11.02-24.564-24.564s11.02-24.564,24.564-24.564
	s24.565,11.02,24.565,24.564S157.321,200.404,143.777,200.404z"/>
<path d="M272.549,360.21c0,21.816,17.749,39.564,39.564,39.564c21.815,0,39.564-17.749,39.564-39.564
	c0-21.815-17.749-39.564-39.564-39.564C290.298,320.646,272.549,338.394,272.549,360.21z M312.114,335.645
	c13.545,0,24.564,11.02,24.564,24.564c0,13.544-11.02,24.564-24.564,24.564c-13.544,0-24.564-11.02-24.564-24.564
	C287.55,346.665,298.569,335.645,312.114,335.645z"/>
<path d="M159.808,304.613c-17.396,0-31.548,14.153-31.548,31.549c0,17.396,14.152,31.548,31.548,31.548s31.549-14.152,31.549-31.548
	C191.357,318.766,177.204,304.613,159.808,304.613z M159.808,352.71c-9.125,0-16.548-7.423-16.548-16.548
	c0-9.125,7.423-16.549,16.548-16.549s16.549,7.424,16.549,16.549C176.357,345.287,168.933,352.71,159.808,352.71z"/>
<path d="M224.454,215.92c0,12.976,10.557,23.532,23.532,23.532c12.975,0,23.532-10.557,23.532-23.532
	c0-12.975-10.557-23.532-23.532-23.532C235.011,192.388,224.454,202.945,224.454,215.92z M247.986,207.388
	c4.705,0,8.532,3.828,8.532,8.532c0,4.704-3.828,8.532-8.532,8.532c-4.704,0-8.532-3.828-8.532-8.532
	C239.454,211.216,243.281,207.388,247.986,207.388z"/>
<path d="M400.297,335.647c1.127,0,2.271-0.255,3.348-0.793c3.705-1.853,5.207-6.357,3.354-10.063l-8.016-16.033
	c-1.852-3.705-6.357-5.208-10.062-3.354c-3.705,1.852-5.207,6.357-3.354,10.062l8.016,16.033
	C394.898,334.128,397.546,335.647,400.297,335.647z"/>
<path d="M312.12,287.55c1.127,0,2.271-0.255,3.348-0.793l16.032-8.016c3.705-1.852,5.207-6.357,3.354-10.062
	c-1.853-3.705-6.356-5.208-10.062-3.354l-16.032,8.016c-3.705,1.852-5.207,6.357-3.354,10.062
	C306.72,286.031,309.368,287.55,312.12,287.55z"/>
<path d="M88.972,267.37c1.314,2.628,3.962,4.147,6.714,4.147c1.127,0,2.271-0.255,3.348-0.793c3.705-1.852,5.207-6.357,3.354-10.062
	l-8.016-16.032c-1.852-3.705-6.357-5.208-10.062-3.354c-3.705,1.852-5.207,6.357-3.354,10.062L88.972,267.37z"/>
<path d="M212.568,393.581l-16.032,8.016c-3.705,1.852-5.207,6.357-3.354,10.062c1.314,2.628,3.962,4.147,6.714,4.147
	c1.127,0,2.271-0.255,3.348-0.793l16.032-8.016c3.705-1.852,5.207-6.357,3.354-10.062
	C220.778,393.23,216.273,391.728,212.568,393.581z"/>
<path d="M221.225,90.376l-8.016-8.017c-2.928-2.929-7.677-2.929-10.606,0c-2.929,2.929-2.929,7.677,0,10.606l8.017,8.017
	c1.464,1.465,3.384,2.197,5.303,2.197c1.919,0,3.839-0.732,5.303-2.197C224.154,98.054,224.154,93.306,221.225,90.376z"/>
<path d="M186.57,266.729c-2.929,2.929-2.929,7.678,0,10.606l8.016,8.016c1.464,1.464,3.384,2.197,5.303,2.197
	s3.839-0.732,5.303-2.197c2.929-2.929,2.929-7.678,0-10.606l-8.016-8.016C194.248,263.8,189.499,263.8,186.57,266.729z"/>
<path d="M280.566,440.37v8.016c0,4.142,3.358,7.5,7.5,7.5s7.5-3.358,7.5-7.5v-8.016c0-4.142-3.358-7.5-7.5-7.5
	S280.566,436.228,280.566,440.37z"/>
<path d="M245.273,149.079l8.016-8.016c2.929-2.929,2.929-7.678,0-10.606c-2.929-2.929-7.678-2.929-10.606,0l-8.016,8.016
	c-2.929,2.929-2.929,7.678,0,10.606c1.464,1.464,3.384,2.197,5.303,2.197S243.809,150.543,245.273,149.079z"/>
<path d="M369.571,119.766l20.361,7.636c3.576,1.341,7.328,2.006,11.072,2.006c5.059,0,10.103-1.214,14.672-3.614
	c7.951-4.175,13.761-11.567,15.939-20.28l7.257-29.03c2.787-11.147-0.511-22.538-8.822-30.472c-8.312-7.935-19.844-10.7-30.85-7.398
	l-25.318,7.596c-11.435,3.43-20.092,13.255-22.054,25.031l-2.3,13.799C347.056,99.88,355.485,114.484,369.571,119.766z
	 M364.325,87.507l2.3-13.799c1.029-6.177,5.57-11.331,11.568-13.13l25.318-7.596c1.604-0.481,3.229-0.716,4.833-0.716
	c4.17,0,8.2,1.591,11.349,4.597c4.359,4.161,6.089,10.136,4.628,15.983l-7.257,29.03c-1.16,4.638-4.129,8.416-8.361,10.638
	c-4.232,2.222-9.027,2.522-13.504,0.844l-20.361-7.636C367.449,102.951,363.028,95.291,364.325,87.507z"/>
<path d="M427.336,157.94c-11.129,5.564-16.007,18.881-11.106,30.318l7.789,18.173c3.251,7.584,10.066,12.824,18.231,14.016
	c1.16,0.169,2.317,0.252,3.464,0.252c6.926,0,13.479-3.035,18.012-8.473l12.53-15.036c4.17-5.005,6.051-11.325,5.295-17.795
	c-0.756-6.47-4.042-12.187-9.254-16.095l-10.637-7.978c-7.176-5.383-16.619-6.235-24.644-2.222L427.336,157.94z M443.726,166.516
	c1.217-0.609,2.524-0.909,3.824-0.909c1.806,0,3.597,0.58,5.11,1.714l10.637,7.978c1.89,1.417,3.082,3.49,3.355,5.836
	c0.273,2.346-0.408,4.638-1.92,6.452l-12.53,15.036c-1.944,2.333-4.783,3.419-7.787,2.98c-3.005-0.438-5.414-2.291-6.61-5.082
	l-7.789-18.173c-1.777-4.147-0.008-8.976,4.027-10.993L443.726,166.516C443.725,166.516,443.725,166.516,443.726,166.516z"/>
<path d="M488.468,135.243c12.976,0,23.532-10.557,23.532-23.532S501.443,88.18,488.468,88.18c-12.975,0-23.532,10.557-23.532,23.532
	S475.492,135.243,488.468,135.243z M488.468,103.18c4.705,0,8.532,3.828,8.532,8.532c0,4.704-3.828,8.532-8.532,8.532
	c-4.704,0-8.532-3.828-8.532-8.532C479.936,107.007,483.763,103.18,488.468,103.18z"/>
<path d="M490.775,279.807c-3.424,0.502-6.897,0.757-10.323,0.757c-31.672,0-59.458-20.258-69.146-50.412
	c-2.649-8.243-9.433-14.342-17.704-15.917c-56.806-10.815-98.036-60.676-98.036-118.558c0-23.902,7-47.026,20.245-66.87
	c2.905-4.353,3.45-9.817,1.458-14.617c-1.996-4.809-6.261-8.288-11.408-9.307c-25.516-5.053-51.697-6.19-77.811-3.377
	C175.79,7.133,127.081,28.688,87.187,63.844c-3.108,2.738-3.407,7.478-0.668,10.585c2.738,3.107,7.478,3.407,10.585,0.668
	c37.556-33.095,83.391-53.385,132.551-58.676c24.608-2.65,49.267-1.58,73.292,3.178c0.175,0.035,0.368,0.103,0.468,0.343
	c0.094,0.227,0.017,0.394-0.081,0.54c-14.895,22.318-22.768,48.321-22.768,75.196c0,65.075,46.359,121.133,110.23,133.293
	c2.874,0.547,5.261,2.758,6.229,5.77c11.688,36.38,45.215,60.823,83.427,60.823c4.153,0,8.359-0.309,12.502-0.917
	c0.553-0.082,0.835,0.245,0.847,0.328c-7.23,44.46-26.873,85.965-56.805,120.03c-2.734,3.112-2.428,7.851,0.684,10.585
	c1.424,1.251,3.19,1.866,4.948,1.866c2.083,0,4.154-0.862,5.637-2.549c31.793-36.184,52.659-80.28,60.342-127.523
	c0.781-4.804-0.735-9.554-4.162-13.034C500.916,280.766,495.806,279.068,490.775,279.807z"/>
<path d="M415.01,437.005c-43.976,38.688-100.446,59.993-159.009,59.993c-33.757,0-66.405-6.84-97.038-20.332
	c-29.596-13.034-55.911-31.618-78.212-55.235c-22.266-23.579-39.282-50.858-50.576-81.08
	c-11.744-31.428-16.711-64.588-14.764-98.559c3.035-52.954,24.24-104.336,59.708-144.683c2.735-3.111,2.43-7.85-0.681-10.584
	c-3.11-2.735-7.85-2.431-10.584,0.681c-37.67,42.85-60.192,97.444-63.418,153.728c-2.067,36.063,3.211,71.278,15.689,104.668
	c11.999,32.108,30.073,61.086,53.721,86.127c23.685,25.082,51.635,44.819,83.072,58.665c32.55,14.335,67.232,21.603,103.083,21.603
	c62.212,0,122.201-22.634,168.917-63.731c3.11-2.736,3.413-7.475,0.677-10.585C422.86,434.572,418.12,434.269,415.01,437.005z"/>
<g>
</g>
<g>
</g>
<g>
</g>
<g>
</g>
<g>
</g>
<g>
</g>
<g>
</g>
<g>
</g>
<g>
</g>
<g>
</g>
<g>
</g>
<g>
</g>
<g>
</g>
<g>
</g>
<g>
</g>
</svg>
