<svg width="22" height="18" viewBox="0 0 22 18" fill="none" xmlns="http://www.w3.org/2000/svg">
<path d="M18.6239 2.04923C17.2217 1.40583 15.7181 0.931811 14.1459 0.660319C14.1173 0.655079 14.0887 0.668173 14.0739 0.694362C13.8805 1.03831 13.6663 1.48702 13.5163 1.8397C11.8254 1.58654 10.1431 1.58654 8.48679 1.8397C8.33676 1.47918 8.11478 1.03831 7.92053 0.694362C7.90578 0.669047 7.87718 0.655953 7.84855 0.660319C6.27725 0.930943 4.7736 1.40497 3.37052 2.04923C3.35838 2.05446 3.34797 2.0632 3.34106 2.07454C0.488942 6.33554 -0.292371 10.4918 0.0909151 14.5965C0.0926494 14.6166 0.103922 14.6358 0.119532 14.648C2.00127 16.0299 3.82406 16.8689 5.61301 17.425C5.64164 17.4337 5.67197 17.4232 5.69019 17.3997C6.11337 16.8218 6.49059 16.2124 6.81402 15.5716C6.83311 15.5341 6.81489 15.4896 6.77588 15.4747C6.17754 15.2478 5.6078 14.971 5.05975 14.6568C5.0164 14.6315 5.01293 14.5695 5.05281 14.5398C5.16814 14.4534 5.2835 14.3634 5.39363 14.2726C5.41355 14.2561 5.44131 14.2526 5.46474 14.263C9.06518 15.9069 12.9631 15.9069 16.521 14.263C16.5445 14.2517 16.5722 14.2552 16.593 14.2718C16.7032 14.3626 16.8185 14.4534 16.9347 14.5398C16.9746 14.5695 16.972 14.6315 16.9286 14.6568C16.3806 14.9771 15.8108 15.2478 15.2116 15.4739C15.1726 15.4887 15.1553 15.5341 15.1744 15.5716C15.5047 16.2115 15.882 16.8209 16.2973 17.3988C16.3147 17.4232 16.3459 17.4337 16.3745 17.425C18.1721 16.8689 19.9949 16.0299 21.8766 14.648C21.8931 14.6358 21.9035 14.6175 21.9053 14.5974C22.364 9.85188 21.1369 5.7297 18.6525 2.07541C18.6465 2.0632 18.6361 2.05446 18.6239 2.04923ZM7.35169 12.0972C6.26771 12.0972 5.37454 11.102 5.37454 9.87983C5.37454 8.65765 6.25039 7.66248 7.35169 7.66248C8.46163 7.66248 9.34616 8.66639 9.32881 9.87983C9.32881 11.102 8.45296 12.0972 7.35169 12.0972ZM14.6619 12.0972C13.5779 12.0972 12.6847 11.102 12.6847 9.87983C12.6847 8.65765 13.5606 7.66248 14.6619 7.66248C15.7718 7.66248 16.6563 8.66639 16.639 9.87983C16.639 11.102 15.7718 12.0972 14.6619 12.0972Z" fill="#1A74EC"/>
</svg>
