<svg xmlns="http://www.w3.org/2000/svg" width="266.185" height="221.745" viewBox="0 0 266.185 221.745"><g transform="translate(-149.1 -70.442)"><ellipse cx="100.9" cy="6.016" rx="100.9" ry="6.016" transform="translate(149.1 280.156)" fill="#fbb03d" opacity="0.62"/><path d="M151.578,230.414V251.06a3.6,3.6,0,0,0,3.589,3.588H344.834a3.6,3.6,0,0,0,3.589-3.588V230.414Z" fill="#f0f0f0"/><path d="M348.423,116.381a3.6,3.6,0,0,0-3.589-3.589H155.167a3.6,3.6,0,0,0-3.59,3.589V230.414H348.423Z" fill="#534b62"/><rect width="67.706" height="20.786" transform="translate(216.563 254.648)" fill="#d6d6d6"/><rect width="99.317" height="9.731" transform="translate(200.293 275.435)" fill="#f0f0f0"/><rect width="67.706" height="7.513" transform="translate(216.563 254.648)" fill="#bdbdbd"/><rect width="176.531" height="96.863" transform="translate(161.754 123.031)" fill="#5ab3b1"/><path d="M231.29,142.031l-12.284,12.285-12.284-12.285-4.914,4.914,12.284,12.285-12.284,12.283,4.914,4.914,12.284-12.283,12.284,12.283,4.914-4.914L223.92,159.23,236.2,146.945Z" fill="#534b62"/><path d="M298.192,146.945l-4.914-4.914-12.284,12.285L268.71,142.031l-4.914,4.914L276.08,159.23,263.8,171.514l4.914,4.914,12.284-12.283,12.284,12.283,4.914-4.914L285.908,159.23Z" fill="#534b62"/><path d="M276.315,206.438c-25.995-17.95-52.327-.182-52.591,0l-3.409-4.938c.3-.205,30.047-20.275,59.409,0Z" fill="#534b62"/><path d="M411.285,70.442h-89a4,4,0,0,0-4,4V131.92a4,4,0,0,0,4,4h10.3l-10.14,19.222,34.22-19.222h54.615a4,4,0,0,0,4-4V74.442A4,4,0,0,0,411.285,70.442Z" fill="#fff"/><path d="M345.934,107.316a.987.987,0,0,1-.975-.974v-4.365H333.775A.985.985,0,0,1,332.8,101V98.441a1.645,1.645,0,0,1,.234-.883q.234-.379.559-.812l11.041-13.781a1.967,1.967,0,0,1,1.478-.9h2.742a.985.985,0,0,1,.975.973V97.467h3.1a.987.987,0,0,1,.974.974V101a.985.985,0,0,1-.974.974h-3.1v4.365a.987.987,0,0,1-.975.974Zm-.975-9.849V89.746l-6.17,7.721Z" fill="#414042"/><path d="M376.525,91.479c.026.456.037.961.037,1.515v3.391c0,.554-.011,1.058-.037,1.515a16.894,16.894,0,0,1-.631,3.878,8.207,8.207,0,0,1-1.66,3.1,7.586,7.586,0,0,1-2.957,2.057,13.837,13.837,0,0,1-8.929,0,7.589,7.589,0,0,1-2.94-2.057,8.193,8.193,0,0,1-1.66-3.1,16.787,16.787,0,0,1-.631-3.878q-.074-1.371-.072-3.121t.072-3.121a17.341,17.341,0,0,1,.631-3.914,8.337,8.337,0,0,1,1.66-3.156,7.838,7.838,0,0,1,2.94-2.111,11.345,11.345,0,0,1,4.474-.776,11.873,11.873,0,0,1,4.455.74,7.586,7.586,0,0,1,2.957,2.057,8.21,8.21,0,0,1,1.66,3.1A16.912,16.912,0,0,1,376.525,91.479ZM361.986,97.72a7.509,7.509,0,0,0,1.246,4.022,5.229,5.229,0,0,0,7.178,0,7.509,7.509,0,0,0,1.246-4.022q.07-1.37.072-3.03t-.072-3.032a7.508,7.508,0,0,0-1.246-4.021,5.229,5.229,0,0,0-7.178,0,7.508,7.508,0,0,0-1.246,4.021q-.073,1.373-.072,3.032T361.986,97.72Z" fill="#414042"/><path d="M392.8,107.316a.987.987,0,0,1-.975-.974v-4.365H380.639a.985.985,0,0,1-.975-.974V98.441a1.645,1.645,0,0,1,.234-.883q.235-.379.561-.812L391.5,82.965a1.971,1.971,0,0,1,1.479-.9h2.742a.985.985,0,0,1,.974.973V97.467h3.1a.984.984,0,0,1,.972.974V101a.982.982,0,0,1-.972.974h-3.1v4.365a.987.987,0,0,1-.974.974Zm-.975-9.849V89.746l-6.168,7.721Z" fill="#414042"/><path d="M347.879,122.277a.364.364,0,0,1,.267.114.357.357,0,0,1,.114.267v.508a.363.363,0,0,1-.114.269.367.367,0,0,1-.267.113h-5.7a.382.382,0,0,1-.381-.382v-9.121a.381.381,0,0,1,.381-.382h5.592a.384.384,0,0,1,.38.382v.508a.388.388,0,0,1-.38.381h-4.633v2.98h4.322a.384.384,0,0,1,.381.381v.508a.388.388,0,0,1-.381.382h-4.322v3.092Z" fill="#414042"/><path d="M355.361,113.663a4.88,4.88,0,0,1,1.307.169,3.147,3.147,0,0,1,1.08.523,2.529,2.529,0,0,1,.742.9,2.932,2.932,0,0,1,.276,1.327,2.735,2.735,0,0,1-.573,1.822,3.1,3.1,0,0,1-1.461.96l2.131,3.714a.332.332,0,0,1,.043.155.3.3,0,0,1-.092.219.293.293,0,0,1-.218.092h-.608a.549.549,0,0,1-.416-.142,1.34,1.34,0,0,1-.191-.24l-2.047-3.6H352.9v3.6a.382.382,0,0,1-.381.382h-.578a.384.384,0,0,1-.381-.382v-9.121a.382.382,0,0,1,.381-.382Zm-2.457,4.632h2.387a2.663,2.663,0,0,0,1.574-.4,1.5,1.5,0,0,0,.559-1.307,1.421,1.421,0,0,0-.559-1.277,2.8,2.8,0,0,0-1.574-.375H352.9Z" fill="#414042"/><path d="M365.967,113.663a4.873,4.873,0,0,1,1.306.169,3.13,3.13,0,0,1,1.08.523,2.543,2.543,0,0,1,.743.9,2.946,2.946,0,0,1,.275,1.327,2.735,2.735,0,0,1-.572,1.822,3.1,3.1,0,0,1-1.461.96l2.131,3.714a.344.344,0,0,1,.043.155.3.3,0,0,1-.092.219.3.3,0,0,1-.219.092h-.607a.547.547,0,0,1-.416-.142,1.353,1.353,0,0,1-.192-.24l-2.047-3.6H363.51v3.6a.384.384,0,0,1-.381.382h-.578a.382.382,0,0,1-.381-.382v-9.121a.381.381,0,0,1,.381-.382Zm-2.457,4.632H365.9a2.666,2.666,0,0,0,1.575-.4,1.5,1.5,0,0,0,.558-1.307,1.42,1.42,0,0,0-.558-1.277,2.806,2.806,0,0,0-1.575-.375H363.51Z" fill="#414042"/><path d="M372.406,117.349a4.462,4.462,0,0,1,.276-1.49,3.473,3.473,0,0,1,.755-1.214,3.6,3.6,0,0,1,1.215-.82,4.638,4.638,0,0,1,3.3,0,3.589,3.589,0,0,1,1.215.82,3.49,3.49,0,0,1,.756,1.214,4.461,4.461,0,0,1,.275,1.49q.044,1.255,0,2.513a4.706,4.706,0,0,1-.289,1.49,3.58,3.58,0,0,1-.756,1.222,3.488,3.488,0,0,1-1.207.819,4.707,4.707,0,0,1-3.291,0,3.5,3.5,0,0,1-1.207-.819,3.58,3.58,0,0,1-.756-1.222,4.734,4.734,0,0,1-.289-1.49Q372.365,118.605,372.406,117.349Zm6.453.071a3.649,3.649,0,0,0-.218-1.158,2.148,2.148,0,0,0-1.327-1.307,3.226,3.226,0,0,0-2.019,0,2.219,2.219,0,0,0-.8.487,2.3,2.3,0,0,0-.537.82,3.326,3.326,0,0,0-.211,1.158q-.03.635-.029,1.185t.029,1.186a3.326,3.326,0,0,0,.211,1.158,2.294,2.294,0,0,0,.537.82,2.205,2.205,0,0,0,.8.487,3.226,3.226,0,0,0,2.019,0,2.148,2.148,0,0,0,1.327-1.307,3.649,3.649,0,0,0,.218-1.158q.03-.635.03-1.186T378.859,117.42Z" fill="#414042"/><path d="M387.473,113.663a4.878,4.878,0,0,1,1.306.169,3.138,3.138,0,0,1,1.08.523,2.542,2.542,0,0,1,.743.9,2.946,2.946,0,0,1,.275,1.327,2.74,2.74,0,0,1-.572,1.822,3.1,3.1,0,0,1-1.461.96l2.131,3.714a.344.344,0,0,1,.043.155.3.3,0,0,1-.092.219.3.3,0,0,1-.219.092H390.1a.546.546,0,0,1-.416-.142,1.353,1.353,0,0,1-.192-.24l-2.047-3.6h-2.429v3.6a.384.384,0,0,1-.381.382h-.578a.382.382,0,0,1-.381-.382v-9.121a.381.381,0,0,1,.381-.382Zm-2.457,4.632H387.4a2.668,2.668,0,0,0,1.575-.4,1.5,1.5,0,0,0,.558-1.307,1.42,1.42,0,0,0-.558-1.277,2.808,2.808,0,0,0-1.575-.375h-2.386Z" fill="#414042"/></g></svg>