<svg width="50" height="51" viewBox="0 0 50 51" fill="none" xmlns="http://www.w3.org/2000/svg">
<g clip-path="url(#clip0_896_308)">
<path d="M25 50.75C38.8071 50.75 50 39.5571 50 25.75C50 11.9429 38.8071 0.75 25 0.75C11.1929 0.75 0 11.9429 0 25.75C0 39.5571 11.1929 50.75 25 50.75Z" fill="#00587E"/>
<g clip-path="url(#clip1_896_308)">
<path d="M25.2392 13.75L25.0811 14.2875V29.8837L25.2392 30.0415L32.4788 25.7622L25.2392 13.75Z" fill="#99BCCB"/>
<path d="M25.2396 13.75L18 25.7622L25.2396 30.0416V22.4716V13.75Z" fill="white"/>
<path d="M25.2385 31.4123L25.1494 31.5209V37.0766L25.2385 37.3369L32.4824 27.1351L25.2385 31.4123Z" fill="#99BCCB"/>
<path d="M25.2396 37.3368V31.4121L18 27.135L25.2396 37.3368Z" fill="white"/>
<path d="M25.2402 30.0415L32.4797 25.7622L25.2402 22.4717V30.0415Z" fill="#337998"/>
<path d="M18 25.7622L25.2395 30.0415V22.4717L18 25.7622Z" fill="#99BCCB"/>
</g>
</g>
<defs>
<clipPath id="clip0_896_308">
<rect width="50" height="50" fill="white" transform="translate(0 0.75)"/>
</clipPath>
<clipPath id="clip1_896_308">
<rect width="24" height="24" fill="white" transform="translate(13 13.75)"/>
</clipPath>
</defs>
</svg>
