<svg xmlns="http://www.w3.org/2000/svg" xmlns:xlink="http://www.w3.org/1999/xlink" width="84.638" height="80" viewBox="0 0 84.638 80"><defs><linearGradient id="a" x1="0.603" y1="-0.118" x2="0.422" y2="1.122" gradientUnits="objectBoundingBox"><stop offset="0" stop-color="#00affa"/><stop offset="0.271" stop-color="#4cc0e8"/><stop offset="0.596" stop-color="#41cda5"/><stop offset="1" stop-color="#1cc273"/></linearGradient><linearGradient id="b" x1="1" x2="0" y2="1" gradientUnits="objectBoundingBox"><stop offset="0" stop-color="#78d8ff"/><stop offset="0" stop-color="#77d8fd"/><stop offset="0.552" stop-color="#6adbdd"/><stop offset="1" stop-color="#4ee09a"/></linearGradient></defs><g transform="translate(-6008 -1043)"><g transform="translate(4501 353.723)"><g transform="translate(1507 689.652)"><rect width="80" height="80" rx="40" transform="translate(0 -0.375)" fill="url(#a)"/><rect width="70" height="70" rx="35" transform="translate(5 4.625)" fill="url(#b)"/><path d="M278.225,336.432c-.479,2.151-1,4.294-1.293,6.482a2.842,2.842,0,0,0,.294,3.094,10.247,10.247,0,0,1,.983,7.273,11.5,11.5,0,0,1-3.912,5.756,1.315,1.315,0,0,0-.987,1.181c-.229,1.281-.652,2.535-.789,3.822-.114,1.068-.627,1.33-1.544,1.246-1.243-.01-2.486-.037-3.728-.022-.608.007-.891-.1-.685-.822.261-.92.337-1.893.6-2.813.2-.7-.04-.872-.676-1-.62-.122-1.1-.228-1.255.582-.4,2.041-.821,4.077-1.236,6.114a2.321,2.321,0,0,1-.479,1.324c-.72-.009-1.441-.024-2.161-.027-2.645-.006-3.435-.99-2.834-3.538.539-2.493,1.084-4.985,1.611-7.482a1.624,1.624,0,0,0-.219-1.373,10.177,10.177,0,0,1-1.263-2.71,10.7,10.7,0,0,1,1.755-9.1,18.923,18.923,0,0,1,2.5-2.193,1.314,1.314,0,0,0,.6-.979c.214-1.208.46-2.411.693-3.617.1-1.087.568-1.59,1.769-1.449a22.6,22.6,0,0,0,3.473.016c.743-.028.915.306.777.944-.193.9-.334,1.808-.6,2.683-.249.818.2.915.8,1.057s.984.207,1.1-.575c.167-1.139.421-2.266.638-3.4a24.2,24.2,0,0,0,.514-2.415c.135-1.181.567-1.921,1.909-1.688.439.012.878.03,1.317.035,1.987.024,2.831,1.066,2.428,3C278.29,336.042,278.26,336.238,278.225,336.432Zm-13.508,14.319a3.81,3.81,0,0,0,3.439,3.686,3.993,3.993,0,0,0,3.941-3.751,3.914,3.914,0,0,0-3.665-3.61A3.791,3.791,0,0,0,264.717,350.751Z" transform="translate(-228.899 -310.721)" fill="#fefefe"/></g></g><g transform="translate(6059.019 1044.718)"><path d="M349.417,223.776c.5-.019.654-.457.816-.782a16.459,16.459,0,0,1,7.651-7.543,8.754,8.754,0,0,1,2.713-.951,13.857,13.857,0,0,1-1.632,1.64c-.094.082.253.126.3.29a6.2,6.2,0,0,1-1.93,1.18,14.756,14.756,0,0,0-7.167,11.066,1.525,1.525,0,0,1-.24.725c-.517.229-.914.727-1.54.714a.588.588,0,0,1-.06-.249,7.068,7.068,0,0,0,.03-1.184,7.312,7.312,0,0,1,.229-1.9C348.829,225.765,349.251,224.8,349.417,223.776Z" transform="translate(-348.327 -213.814)" fill="#f8f0f5"/><path d="M448.7,326.427a3.644,3.644,0,0,1-1.4,1.006c-.535-.373.217-.478.153-.789-.59.178-.5.82-.83,1.154-.457.526-1.241.5-1.722,1a.437.437,0,0,1-.457.139.841.841,0,0,1-.427-.251,3.715,3.715,0,0,0-.178-1.129c1.443-.768,2.833-1.628,4.277-2.393.29.391.671-.118.969.174.06-.343-.229-.435-.286-.645a9.213,9.213,0,0,1,2.153-2.46c.229.025.279-.126.29-.315a.542.542,0,0,1,.21-.107.535.535,0,0,1,.671.457,1.012,1.012,0,0,1-.064.615,2.8,2.8,0,0,0-.283.631,8.8,8.8,0,0,1-2.574,2.567C448.942,326.068,448.618,325.967,448.7,326.427Z" transform="translate(-422.005 -296.579)" fill="#fbc5de"/><path d="M423.015,212.187a13.229,13.229,0,0,1,6.515,2.057,5.817,5.817,0,0,1-.738,1.259c-.89-.229-1.6-.9-2.514-1.027a46,46,0,0,0-4.512-.951c-.3-.155-.311-.441-.3-.725a.6.6,0,0,1,.377-.6c.334-.13.439.11.574.327a.5.5,0,0,0,.229.2C422.155,212.167,422.877,212.358,423.015,212.187Z" transform="translate(-404.743 -212.015)" fill="#f9e6ef"/><path d="M401.173,211.67c-.309.229-.3.217-.084.457.069.075.149.21.124.283-.066.189-.229.092-.341.039-.05-.021-.089-.092-.137-.094-.35-.019-.3-.7-.725-.487s-.144.665-.208,1.006c-.339.343-.82.167-1.2.336a14.294,14.294,0,0,0-3.886.752,1.255,1.255,0,0,1-.9.112c-.617.05-.522-.409-.661-.759.457-.069.432.29.661.569a2.311,2.311,0,0,1,1.372-1.7,13.029,13.029,0,0,1,5.985-.514Z" transform="translate(-382.903 -211.499)" fill="#f9ebf2"/><path d="M482.774,250.974a11.116,11.116,0,0,1,1.372,4.979c-.4.183-.7.686-1.25.373a1.065,1.065,0,0,1-.258-.412,18.445,18.445,0,0,0-1.182-4.181,1.953,1.953,0,0,1-.075-.361,1.353,1.353,0,0,1,.882-1.589h0a2.327,2.327,0,0,0,.343.686h0a.192.192,0,0,1,0,.229C482.236,251.059,482.654,250.911,482.774,250.974Z" transform="translate(-450.951 -241.031)" fill="#fad3e5"/><path d="M474.62,238.766c-.373.457-.816.869-.686,1.543-.542-.021-.48-.551-.7-.841s-.407-.613-.605-.914c-.158-.229-.229-.489-.4-.7a2.452,2.452,0,0,1-.757-1.3,6.058,6.058,0,0,1,.752-1.044,11.12,11.12,0,0,1,2.4,3.254Z" transform="translate(-443.319 -230.021)" fill="#fad9e8"/><path d="M463.7,228.977c.043.526-.309.791-.686,1.036-.169.1-.3,0-.427-.089a11.6,11.6,0,0,0-1.28-1.156,1.676,1.676,0,0,1-.567-.663c-.069-.3-.537-.567-.192-.889.29-.27.686-.153,1.044,0a4,4,0,0,1,.738.407,3.869,3.869,0,0,1,1.37,1.355Z" transform="translate(-434.796 -223.498)" fill="#f9deeb"/><path d="M481.154,307.9a9.417,9.417,0,0,1-1.559,3.082,1.6,1.6,0,0,1-.457-.665c-.1-.26-.309-.473-.327-.768a5.86,5.86,0,0,1,1.278-2.425c.444.217.444.217.229.807C480.58,307.517,480.865,307.641,481.154,307.9Z" transform="translate(-448.982 -285.262)" fill="#fbc5de"/><path d="M457.18,223.133c-.579-.08-1.1-.494-1.739-.292-.028.336.425.457.366.809-.855.075-1.268-.7-1.922-1.006a.607.607,0,0,1-.135-.2,1.342,1.342,0,0,1,.686-1.2,7.709,7.709,0,0,1,2.745,1.884Z" transform="translate(-429.649 -219.021)" fill="#f9e1ed"/><path d="M487.374,276.46c.121-.229.895.432.617-.469-.06-.192.366.126.581.126a6.753,6.753,0,0,1,0,3.088.482.482,0,0,1-.3.149c-.3.016-.615-.045-.714-.336-.112-.334.3-.322.447-.494-.418.187-.686.025-.825-.388C487.143,277.564,486.976,276.981,487.374,276.46Z" transform="translate(-455.387 -261.201)" fill="#facfe3"/><path d="M486.949,286.1a2.062,2.062,0,0,1,.229.105c.329.2.718-.56.9-.039.1.27-.617.183-.816.535.229.306.574.245.895.258,0,.283,0,.569-.016.853-.5.089-.935.766-1.508.16a2.386,2.386,0,0,1,.316-1.872Z" transform="translate(-454.96 -268.95)" fill="#facbe1"/><path d="M486.6,294.079c.482,0,.8-.635,1.371-.345v.179c-.544.354-.075.948-.327,1.372h0c-.583.551-.647.54-1.285-.229a.661.661,0,0,1-.025-.229c.055-.229.139-.434.208-.652Z" transform="translate(-454.785 -274.877)" fill="#fac8e0"/><path d="M485.126,304.326c-.522.028-.926-.119-1.044-.686a.386.386,0,0,1-.075-.457c.555.2.592-.373.866-.59a.522.522,0,0,1,.2-.1c.671.013.229.56.391.816a1.87,1.87,0,0,1-.342,1.019Z" transform="translate(-452.955 -281.69)" fill="#fac5de"/><path d="M455.907,342.971c-.155-.624.386-.99.532-1.511l.671.359c.037.407-.7.283-.526.787C456.364,342.727,456.2,342.955,455.907,342.971Z" transform="translate(-431.292 -311.752)" fill="#fabcd9"/><path d="M486.73,300.759c-.283-.149-.046-.562-.352-.7-.229-.114-.51-.155-.671-.391a.521.521,0,0,1-.105-.2c.013-.163.028-.32.26-.265.32.4.654.75,1.207.347a1.9,1.9,0,0,1-.339,1.209Z" transform="translate(-454.22 -279.146)" fill="#fbcee3"/><path d="M479.6,321a.926.926,0,0,1,.341.671c-.229.2-.169.588-.506.7a.107.107,0,0,1-.176,0v-.686C479.6,321.571,479.043,321,479.6,321Z" transform="translate(-449.328 -295.969)" fill="#fbbdd9"/><path d="M463.979,339.815c-.229-.135-.494-.3-.2-.558s.5,0,.686.2a.578.578,0,0,1-.487.356Z" transform="translate(-437.286 -309.968)" fill="#fbbdda"/><path d="M490.38,296.132c0-.368.112-.791-.48-.887l.807-.485C490.526,295.2,490.668,295.729,490.38,296.132Z" transform="translate(-457.536 -275.727)" fill="#facbe1"/><path d="M485.725,253.288c-.174.06-.318.229-.535.144a1.029,1.029,0,0,1,.356-.652C485.743,252.894,485.711,253.093,485.725,253.288Z" transform="translate(-453.903 -243.344)" fill="#fad9e8"/><path d="M478.277,327h.176a.574.574,0,0,1-.345.517C478.014,327.3,477.82,327.046,478.277,327Z" transform="translate(-448.346 -300.598)" fill="#fbcae1"/><path d="M485.578,250.436a.6.6,0,0,1-.343-.686.958.958,0,0,1,.343.686Z" transform="translate(-453.936 -241.006)" fill="#fad9e8"/><path d="M363.321,219.023a11.252,11.252,0,0,1,4.8-1.029c.1-.082.229-.114.3-.019a.249.249,0,0,1-.139.4c-.755.124-.766.522-.658,1.186a2.108,2.108,0,0,1-.727,1.584.366.366,0,0,1-.528.1.311.311,0,0,1-.1-.457c.311-.478.119-.99.1-1.52a1.468,1.468,0,0,1-1.118,1.259c-.313.089-.229.54-.249.846s-.213.635-.528.437c-.581-.361-.432.229-.409.327.192.885-.522,1.027-1.044,1.312-.18.1-.393.107-.48-.165,0-.023-.023-.142-.039-.075-.245.944-.686.377-1.2.03.268.229.361.366.343.555a.388.388,0,0,1-.313.149.656.656,0,0,1-.391-.144c-.048-.092.092-.048-.021-.037-.048,0-.039.057.025.08.414.435.958.746,1.143,1.372a3.021,3.021,0,0,1-.149.82c-.256.777-.277,1.666-1.319,1.982a1.118,1.118,0,0,0-.914,1.282,1.92,1.92,0,0,1-.144.746c-.075.229-.229.476-.476.388-.629-.229-1.013.457-1.584.373-.116.787-.82,1.372-.8,2.2a1.107,1.107,0,0,1,.075.229c.016.144-.075.3-.05.412.116.429-.729-.019-.468.555.153.334-.019.729.028,1.1a1.006,1.006,0,0,1-.126.658c-.306.494-.558.158-.9,0s-.171.761-.718.526c-.336-.144-.212-.658-.6-.782-.279-.315-.11-.608.045-.9.18-.086.208-.144.105-.21a.873.873,0,0,1-.382-.535,3.057,3.057,0,0,1,.187-2.007c.279-1.092.329-2.224.652-3.322a15.168,15.168,0,0,1,4.942-7.456,19.37,19.37,0,0,1,3.827-2.246Z" transform="translate(-352.422 -216.447)" fill="#fbf4f8"/><path d="M350.338,282.461c.122.286-.306.571,0,.857a4.786,4.786,0,0,1,.626,1.948c-.476.288-.928.895-1.484.11a12.907,12.907,0,0,1-.658-4.972c.384-.354.738-.766,1.342-.686v2.229a.777.777,0,0,1,.174.514Z" transform="translate(-348.697 -264.114)" fill="#f7ebf2"/><path d="M443.975,293.609v.51l-1.193,2.4a1.454,1.454,0,0,1-.686,1.029h0c-.094.1-.034.27-.176.341l-2.226,2.4c-.11.329-.279.579-.686.522a17.9,17.9,0,0,1-4.291,2.4,1.617,1.617,0,0,1-.853.508,2.418,2.418,0,0,1-.974.08,2.375,2.375,0,0,1-.53-1.229c0-.084.034-.176-.013-.253-.506-.8-.506-1.033-.019-1.789.185-.29.215-.649.4-.942.043-.268-.187-.384-.306-.562-.158-.229-.347-.469-.034-.725.318-.128.661,0,.953-.082-.434,0-.942.158-1.237-.4.092-.334.347-.339.608-.277.6.142.871-.279,1.156-.671.149-.21.025-.779.535-.517.4.206.761.549.432,1.1-.039.064-.075.082-.06.092.409-.149.2-.549.327-.814.2-.423.274-.989.976-.784.1.116.163.313.382.128a3.866,3.866,0,0,0,.983-1.166c.124-.229.13-.579.5-.622.119.028.363.174.339.064-.153-.629.247-.857.686-.958.535-.119.789.339,1.049.711a.662.662,0,0,0,.11.149,1,1,0,0,0-.2-.384c-.137-.215-.564-.309-.347-.671a.96.96,0,0,1,.875-.437c.2,0,.409.11.59.062.368-.1.74-.29.347-.729-.522-.581-.149-1.124,0-1.673a3.745,3.745,0,0,1,1.943-.206c.249.229.27.457-.069.583s-.555.4-.895.457c-.048,0-.08-.016-.084-.075-.032.053,0,.075.066.075.825-.254,1.143-.121,1.577.686.116.229.158.485.373.647h0a.48.48,0,0,1,.118.457.82.82,0,0,1-.44.566Z" transform="translate(-412.844 -272.176)" fill="#fce3ef"/><path d="M425.009,348.882a3.266,3.266,0,0,1,1.029-.169c.251.368.787.309,1.029.686a.356.356,0,0,1,.345.176,16.591,16.591,0,0,1-2.057.708,16.929,16.929,0,0,1-3.43.29,1.208,1.208,0,0,1,.457-1.484A6.24,6.24,0,0,1,425.009,348.882Z" transform="translate(-405.024 -317.339)" fill="#f9c9df"/><path d="M441.279,348.287c-.379-.174-1.027.053-1.029-.686l.857-.341c.087.626.457-.274.6.153C441.761,347.768,441.219,347.886,441.279,348.287Z" transform="translate(-419.235 -316.226)" fill="#f9cae0"/><path d="M462.287,335.011l.686-.522c.229.1.439.208.5.5.018.089.16.172.075.279s-.251.2-.366.092c-.427-.4-.686-.025-1.033.345C462.217,335.367,462.253,335.189,462.287,335.011Z" transform="translate(-436.13 -306.375)" fill="#fabeda"/><path d="M476.25,319.029a3.627,3.627,0,0,1,.686-1.029c.183.192.414.363.343.686-.345.114.242.686-.343.686C476.879,318.914,476.518,319.063,476.25,319.029Z" transform="translate(-447.006 -293.655)" fill="#fbcae1"/><path d="M475.477,322.851a.368.368,0,0,1,.176-.341c0,.2.412.3.183.532C475.673,323.2,475.625,322.869,475.477,322.851Z" transform="translate(-446.409 -297.134)" fill="#fbcae1"/><path d="M386.362,223.407a1.4,1.4,0,0,1-.087-.149c-.13-.258-.828-.3-.421-.716.366-.38.457.2.647.4.341.366.51.253.611-.174.034-.137.084-.272.11-.412.032-.2.142-.356.334-.268.229.11.075.281-.025.416s-.155.229-.011.555c.3-.544,1.449-.229.992-1.411-.082-.21.334-.611.512-.914.421.041-.121.686.38.562.409-.1,0-.526.11-.622.29-.229-.2-1.143.727-.86.066.019.734-.149.506-.686-.21-.487.133-.671.482-.661.439.016.2.35.149.581-.1.478.393,1.065-.258,1.452a.3.3,0,0,0,.069.206.268.268,0,0,0,.229.019,2.162,2.162,0,0,0,.656-2.023c-.3-.553-.167-.787.457-.8.165,0,.605.16.347-.334.361-.329.8-.1,1.2-.171a13.671,13.671,0,0,1,4.053.746c.245.057.5.075.746.114a.437.437,0,0,1-.471.553c-.686-.2-1.52.441-2.037-.423-.322.457.268,1.029-.258,1.388a.734.734,0,0,1-.939-.03c.082.2.309.165.457.256.288.178.327.38.025.588-.069.048-.2.055-.229.114-.547,1.308-1.074.075-1.582.084a.922.922,0,0,1,.473,1.083c-.155.429-.564.274-.931.3.478.686-.517.914-.457,1.5-.608.416-1.268-.06-1.893.124-.16,0-.32-.013-.478-.025-.585.229-.686.9-1.276,1.278a.851.851,0,0,1,.954.418.88.88,0,0,1,.06.373.728.728,0,0,1-.88.6.47.47,0,0,1-.206-.133c0-.439-.261-.56-.647-.532a1.991,1.991,0,0,1-.933-.746,1.749,1.749,0,0,1-.013-.777.253.253,0,0,0-.041-.137c-.075.052-.075.149-.107.229a.35.35,0,0,1-.274.18,1.107,1.107,0,0,1-.784-.532.613.613,0,0,1-.048-.579Z" transform="translate(-377.177 -216.035)" fill="#fbf3f7"/><path d="M415.888,225.738c-.229-.249-.313-.48.1-.629.075-.028.229-.043.229-.075.039-.608.2-1.074.963-.954-.05-.279.1-.6-.213-.828a2.584,2.584,0,0,1-.471-.489.2.2,0,0,1,.06-.3.625.625,0,0,1,.229-.039c.075.686,1.184.174,1.143,1.07-.041-.64.189-.96.946-.9-.457-.457-1.049-.506-1.186-1.044.322-.21.457.034.613.229.229.3.457.075.686.013.4-.1.066-.281.05-.432a3.066,3.066,0,0,0-.037-.828c-.075-.192.124-.3.292-.35s.258.057.324.192c.229.457.457.83.937.229.062-.075.35-.1.384-.045.437.652.663.11.939-.149a11,11,0,0,1,2.4,1.2h.171a1.917,1.917,0,0,0,.4.631.485.485,0,0,1,.057.613c-.149.229-.336.128-.514.055-.229-.089-.522.016-.654-.283-.092-.075.114-.407-.215-.274a1.638,1.638,0,0,0-.4.309c-.617.54-.62.537-1.106-.171a1.417,1.417,0,0,1-.846,1.031c-.1.215-.29-.444-.279,0a3.659,3.659,0,0,1-1.429,2.732.686.686,0,0,1-.569.13.919.919,0,0,0-.985.686c.313-.1.283-.85.789-.457.427.343.187.711-.1,1.031a1.075,1.075,0,0,1-.339.258c-1.044.532-1.646-.183-2.275-.816a1.543,1.543,0,0,1-.4-.6C415.431,226.136,415.979,226.06,415.888,225.738Z" transform="translate(-400.188 -218.194)" fill="#fcf1f6"/><path d="M462.352,279.443c.4-.183.631-.643,1.143-.686-.251-.144-.457-.635-.72-.066-.135.281-.373.016-.526.112-.229.149-.473-.476-.569-.08-.121.489-.62,1.033-.025,1.561.128.114.6.274.306.363-.4.124-.155,1.118-.953.611a.914.914,0,0,0-1.262.332,1.162,1.162,0,0,1,.119.119c.256.329.963.671.585,1.021-.412.38-.544-.414-.752-.671-.421-.514-.671-.292-1.008.028-.2.2-.217.183.21.686-.368-.025-.775.5-.862-.279a1.016,1.016,0,0,0-.016-.116,10.965,10.965,0,0,0,0-1.956c-.084-.377.339-.514.332-.839a6.562,6.562,0,0,0,.114-2.972c1.239-.746,2.672-1.021,3.152.2-.253-.828.522-.686.895-.939.013-.268-.457-.444-.137-.746a.706.706,0,0,1,.933-.075c.172.1.432.11.522.268.324.569.611.163.914,0a.357.357,0,0,1,.172.343v1.886a19.818,19.818,0,0,0-.174,2.057h0c-.119.212,0,.482-.169.686v.169a.379.379,0,0,0-.174.345c-.7.018-.6-.74-.963-1.072-.29-.261-.251-.423-.547-.045-.105.137-.4-.075-.544-.253Z" transform="translate(-432.937 -260.414)" fill="#fce6f0"/><path d="M460.006,262.257l-.51.862c-.139-.8-.866-.8-1.353-1.1-.075-.05-.336.066-.427.178-.172.208.028.286.2.327.318.08.092.249.064.377-.039.172-.075.306-.334.258-.491-.092-.8.032-.588.637.066.183.075.457-.189.476-.347.025-.16-.24-.176-.416-.043-.457-1.113-1.074-1.447-.752-.457.435-.965.139-1.4.356-.671-.569-1.353-1.13-1.984-1.748-.048-.407.268-.48.542-.592a.989.989,0,0,1,.247-.034c.217,0,.416.229.643.075.082-.06.144.208.176,0,.1-.592.206-.686.7-.671.759.034.3.564.373.88a.688.688,0,0,0,.082.176c.053-.27-.013-.638.347-.656s.471.32.654.574c-.447-.77.169-1.39.242-2.076.1-.928.723-1.164,1.408-1.221.517-.045,1.024-.114,1.534-.2A10.886,10.886,0,0,1,460,262.259Z" transform="translate(-428.191 -247.341)" fill="#fce8f1"/><path d="M453.413,243.542c-.149.272-.862.069-.432.839a1.282,1.282,0,0,0-2.2.391c-.149.418-.268.848-.429,1.25-.119.3-.2.471,0,.746a.4.4,0,0,1-.229.665c-.508.06,0-.327-.122-.418-.171-.128-.18-.5-.457-.4-.2.075-.174.32-.075.522.057.119.169.249,0,.4-.633-.254-.611-.731-.363-1.291l-1.059.087c-.052.3.482.064.327.437-.107.261-.361.1-.4.13-.311.256-.5-.116-.75-.1a8.523,8.523,0,0,0-1.083-1.915c.021-.107-.16.062-.055.013.053.551-.29.8-.74.969a.528.528,0,0,1-.457-.386.553.553,0,0,1,.139-.574c.5-.189.427-.656.5-1.051a.494.494,0,0,1,.245-.373c.169-.062.437.139.508-.192a.4.4,0,0,1,.564.229,1.467,1.467,0,0,0,1.859,1.074.729.729,0,0,1-.633-.643c.025-.388.608-.313.6-.727.075-.427-.187-.944.334-1.25a.6.6,0,0,1,.217-.052c.021-.064.2.139.116-.069-.023-.055-.133-.082-.192-.137-.149-.208-.119-.373.119-.487a2.057,2.057,0,0,1,.686.055c.32.037.631.229.93-.144s.048-.624-.075-.926-.361-.6-.118-.953l.343.171a6.045,6.045,0,0,0,.857,1.2c-.011.29.03.555.343.686a11.466,11.466,0,0,1,1.2,1.888Z" transform="translate(-422.795 -232.913)" fill="#fceaf3"/><path d="M474.877,245.934c-.512.334-.32-.309-.544-.423s.048-.229.2-.261Z" transform="translate(-445.462 -237.535)" fill="#fcedf4"/><path d="M433.57,231.508q-.263.171,0,.343c.089.187-.037.268-.172.343-.277.089-.339-.144-.429-.3s-.187-.366-.457-.229c-.4.212-.581.037-.649-.356-.037-.2-.144-.315-.361-.229-.178.064-.283.176-.212.388s.476.457.075.611a.9.9,0,0,1-1.061-.35c-.119-.167-.144-.4-.35-.084a3.182,3.182,0,0,0-.368,1.086.265.265,0,0,0-.023.457c.288.247.2.652.409.914-.041.4.128.914-.544.953-.382-1.781-1.886-1.829-3.244-2.1-.347-.075-.746.06-1.019-.277.11-.13.215-.265.329-.393.2-.229.283-.506,0-.652-.421-.215-.172.283-.329.382s-.229.421-.489.439a.247.247,0,0,1-.165-.155.576.576,0,0,1,.229-.671c.359-.249.62-.686,1.161-.544.313.08.485-.023.494-.373a.359.359,0,0,1,.163-.279c1.04-.366.895-1.248.98-2.057.016-.149-.092-.6.286-.592.478.011-.089.532.261.649l.116.03a3.619,3.619,0,0,1,.5,1.829c0-.206-.082-.512.158-.532.62-.053.8-.718,1.392-.869.526-.133.183-.8.324-1.212l.075-.094c.251.153.643-.324.825.187.028.075.149.043.2-.041a.261.261,0,0,0,0-.311c-.183-.258-.56-.447-.347-.864l1.886,1.2a1.081,1.081,0,0,0,.526.506c.057.432-.217.537-.56.555a.992.992,0,0,0-.793.564c-.5.772-.5.75.352,1.118C433.174,230.668,433.766,230.782,433.57,231.508Z" transform="translate(-407.069 -223.104)" fill="#fceef5"/><path d="M457.52,237.292c-.2-.853-.956-.864-1.589-1.013-.379-.089-.567-.163-.229-.5.427-.429.457-1.218,1.143-1.372.32-.075.708.114.851-.361a4.945,4.945,0,0,1,1.2,1.2,2.841,2.841,0,0,0,.432,1.077c.176.245.427.626.165.83s-.532.727-1.088.373C458.165,237.363,457.793,237.461,457.52,237.292Z" transform="translate(-431.02 -228.888)" fill="#fcedf4"/><path d="M486.75,296.186c.023-.229-.082-.506.169-.686a.485.485,0,0,1-.169.686Z" transform="translate(-455.104 -276.298)" fill="#facbe1"/><path d="M484.51,303.414c.114-.172.229-.345.339-.517a1.158,1.158,0,0,1,.517,0C485.1,303.744,484.99,303.815,484.51,303.414Z" transform="translate(-453.378 -281.984)" fill="#fbcee3"/><path d="M486.507,301.264a.457.457,0,0,1-.517,0v-.514c.329.037.457.329.686.514Z" transform="translate(-454.52 -280.348)" fill="#fac8e0"/><path d="M351.75,303.889c.155-.062.292-.142.361.123.057.229.268.094.414.11-.1-.848.414-.112.6-.229.345.122.386.457.491.731a9.862,9.862,0,0,0,1.106,2.245,3.353,3.353,0,0,0,.4.686,9.051,9.051,0,0,1,.643.937.551.551,0,0,1,.039.229.457.457,0,0,1-.1.208c-.423.075-.535,1-1.193.441a13.588,13.588,0,0,1-2.75-5.482Z" transform="translate(-350.966 -282.63)" fill="#f8e5ef"/><path d="M375.956,339.3a14.017,14.017,0,0,1-5.486-3.6.332.332,0,0,1,.457,0,2.53,2.53,0,0,0,2.1.4,5.209,5.209,0,0,1,1.3.671,13.425,13.425,0,0,0,1.9,1.008,5.246,5.246,0,0,1,1.584.6.324.324,0,0,1,.075.229c-.286.27-.7.3-.9.782C376.8,339.814,376.324,339.215,375.956,339.3Z" transform="translate(-365.407 -307.239)" fill="#f9d8e8"/><path d="M367.887,328.9c-.75.169-1.5.4-2.135-.315-.1-.112-.292-.133-.444-.2a6.989,6.989,0,0,1-1.529-1.719c.178-.041.437.24.53-.149.082-.347.373-.368.663-.361.245-.1.368.082.5.229a12.686,12.686,0,0,0,2.078,1.9C367.755,328.419,367.986,328.579,367.887,328.9Z" transform="translate(-360.246 -299.925)" fill="#f8dfeb"/><path d="M394.47,348.962a.583.583,0,0,1,.624.041c.13.066.334.229.311-.116-.057-.8.53-.579.958-.613.339-.292.686-.041,1.031-.03a2.088,2.088,0,0,1,.263.062c.478.212,1.09-.116,1.5.368.163.478-.652.791-.229,1.317a.2.2,0,0,1-.229.025,11.183,11.183,0,0,1-4.229-1.054Z" transform="translate(-383.921 -316.899)" fill="#f9d1e4"/><path d="M416.559,350.133l-.343,1.342h-.686a1.477,1.477,0,0,0-.16-.055c-.288-.1-.729.229-.873-.24a.9.9,0,0,1,.482-1.209,1.874,1.874,0,0,1,1.58.162Z" transform="translate(-399.317 -318.244)" fill="#f9d1e4"/><path d="M413.737,350.748c-.427.8-.3,1.04.686,1.342a3.242,3.242,0,0,1-1.426-.116c0-.457-.075-.928.4-1.225a.229.229,0,0,1,.339,0Z" transform="translate(-398.208 -318.859)" fill="#f9c9df"/><path d="M357.558,268.032c-.734-.526-.837-1.408-1.193-2.144-.144-.3-.229-.626-.347-.942l-.514-2.057c.512-.229.423.075.366.4-.03.171.039.373.26.341s.133-.206.1-.345a.393.393,0,0,1,.3-.526c.2-.057.306.075.361.261s.135.35.343.3a.439.439,0,0,0,.3-.457,5.2,5.2,0,0,1,.025-1.332c.013-.069.025-.2-.1-.178s-.327.254-.324-.082c0-.155.2-.373.343-.32.729.279.528-.3.605-.622a.847.847,0,0,0,.149-.265,1.444,1.444,0,0,1-.149.265c-.249-.013-.229-.144-.2-.345.075-.412.38-.686.522-1.061s.288-.791.429-1.189c.542.434.7-.178,1.021-.368.046-.028.126-.064.153-.043.6.432.857.171.887-.457.021-.412.421-.873-.18-1.276.857.242,1.09-.969,1.911-.686-.121-.656.494-1.044.6-1.616a.2.2,0,0,1,.21-.048,1.958,1.958,0,0,1,.558.6.384.384,0,0,1-.051.341c-.112.069-.272.075-.339.261a.572.572,0,0,1,.5-.229.457.457,0,0,1,.313.336,2.076,2.076,0,0,0,.324.746,2.189,2.189,0,0,1,.332.656,1.026,1.026,0,0,1-.393,1.021c-.373.114-.581-.126-.843-.457a11.5,11.5,0,0,1,0,1.776c.039.343-.2.457-.491.434a2,2,0,0,0-1.044.114c.137.053.457-.08.416.343a2.569,2.569,0,0,1-2.327,2.428c.075.084-.075,0-.039.028.62.441.457,1.027-.055,1.184s-.247.457-.384.64c-.272.377.011.2.187.24.4.1,1.008.082.837.752a.739.739,0,0,1-1.088.587c-.755-.258-.937-.069-.914.759.013.313.084.661-.2.878s-.532.064-.772-.309a1.212,1.212,0,0,0,.645.887c.229.165.5.361.366.686s-.444.2-.686.229A.745.745,0,0,1,357.558,268.032Z" transform="translate(-353.86 -243.687)" fill="#fcf1f7"/><path d="M384.049,248.949a1.137,1.137,0,0,0,.329-1.024.345.345,0,0,1,.217-.087c.329.06.457.432.772.506a.549.549,0,0,0,.617-.169c.144-.21-.028-.373-.167-.514a13.949,13.949,0,0,0-1.529-1.482,5.567,5.567,0,0,1-1.431-1.662l-1.176-1.423c-.055-.149,0-.187.139-.133l.332.171a1.184,1.184,0,0,1,.537.51l.64.532c.315.03.429.277.553.512l.82.686a1.273,1.273,0,0,1,.736.654h0a4.652,4.652,0,0,1,1.715,1.4,1.407,1.407,0,0,1-.716,1.922,4.655,4.655,0,0,1-.965.341.985.985,0,0,0-.828.96,5.46,5.46,0,0,1-.567,2.044,1.757,1.757,0,0,0,.654,2.592,1.879,1.879,0,0,1,.839,2.142c-.229.514-.706.75-1.118,1.061a3.016,3.016,0,0,1-.813.418c-.59.051-1.232.478-1.724-.229A14.335,14.335,0,0,1,381,256.99a2.917,2.917,0,0,1,.522-3.164,8.824,8.824,0,0,0,1.291-1.883,2.1,2.1,0,0,1,.1-.229,7.348,7.348,0,0,0,.478-1.76,1.143,1.143,0,0,1,.657-1Z" transform="translate(-373.337 -235.75)" fill="#fc017a"/><path d="M389.406,249.84c1.031.978,2.057,1.952,3.086,2.942.228.229.74.473.306.878a.878.878,0,0,1-1.3.057q-.4-.538-.816-1.068c-.121-.229-.283-.409-.416-.62a.329.329,0,0,0-.174-.324c-.048-.066-.16-.069-.171-.171v-.329c-.229-.112-.251-.457-.522-.528h-.167Z" transform="translate(-379.879 -241.075)" fill="#fceaf3"/><path d="M354.921,290.014c-.2-.124-.167-.327-.171-.514l.7.432C355.288,290.087,355.093,289.98,354.921,290.014Z" transform="translate(-353.28 -271.67)" fill="#fcf1f7"/><path d="M383.944,241.951l-.139.133a.522.522,0,0,1-.3-.441C383.756,241.617,383.843,241.793,383.944,241.951Z" transform="translate(-375.458 -234.75)" fill="#fb3494"/><path d="M387.427,244.28l-.537-.51h.368C387.315,243.941,387.372,244.111,387.427,244.28Z" transform="translate(-378.073 -236.393)" fill="#fcf1f6"/><path d="M396.876,319.133l-1.715-.514c-.016-.306-.122-.64.245-.832.279-.144.421.034.631.391-.105-.54-.409-1.059.444-.958.482.057.608-.658,1.056-.763.727-.172.574-.686.487-1.159-.064-.352-.361-.766.1-.989s.813.069,1.1.425c.045.057.069.153.153.137a2.064,2.064,0,0,1,.324-1.285c.2-.5.686-.56,1.059-.016.142.318.574.491.48.914a.618.618,0,0,0-.133-.772.457.457,0,0,1-.048-.617c.3-.165.457-.361.155-.671-.1-.279-.048-.585-.165-.862a2.145,2.145,0,0,0-.229-.368c-.092-.119-.215-.217-.229-.384a.364.364,0,0,1,.268-.229c.686-.055,1.029.427,1.3.914a10.825,10.825,0,0,0,1.728,2.67c-.016.538.727.635.686,1.188-.253.112-.4-.1-.579-.192-.332-.05-.11.215-.176.315-.354.476-.553.27-.7-.158,0-.08.114-.112.1-.2a.153.153,0,0,1-.084.133,2.623,2.623,0,0,1-1.006.457c-.2.062-.532.016-.562.283a.617.617,0,0,0,.51.608c.457.107.686.313.686.8s.144.983-.6,1.056c-.247.025-.135.77-.652.4-.427-.3-.135-.658-.013-.992,0-.018-.816-.864-.832-.855-.169.116-.229.242-.028.384.256.176.339.393.116.64s-.457.128-.686,0a3.938,3.938,0,0,0-.373-.2.256.256,0,0,0-.313.039c-.092.1-.057.189,0,.3.356.82.354.82-.631.784a.895.895,0,0,1-1.317-.3c-.149-.217-.3-.3-.558-.149-.352.212.178.327.039.5Z" transform="translate(-384.434 -287.93)" fill="#fce7f1"/><path d="M433.414,300.607c-.8-.045-.654.7-.86,1.118-.048.1.041.336-.165.441s-.366.592-.663.27.183-.334.3-.5c.366-.514-.29-.6-.457-.926.032.613-.444.839-.752,1.212-.457.56-.895-.119-1.308.1-.414.092-.482-.254-.547-.5a9.583,9.583,0,0,1-.469-2.417,6.923,6.923,0,0,0,.361-.649,1.1,1.1,0,0,0,.247-1.093c-.286-.59.133-.72.489-.914.517-.3.514.247.72.457.1.1.155.24.3.292.414-.3.793-.605.746-1.2,0-.1.144-.16.263-.174a7.543,7.543,0,0,1,2.115,3.4C433.842,299.892,433.915,300.355,433.414,300.607Z" transform="translate(-410.171 -276.776)" fill="#fce6f1"/><path d="M413.136,330.156a.373.373,0,0,0,.347.4c.149.021.153-.116.167-.229a.617.617,0,0,1,.343-.343l.514.343c-.359.435-.3,1.127-.895,1.422a.229.229,0,0,0-.048.217c.663.62-.3.3-.3.555.208.373.624.1.965.292-.645.583.315,1.044.105,1.625a12.752,12.752,0,0,1-2.743.347h-2.057c-.447-.432-1.1.082-1.546-.343.116-.343.588-.33.686-.686.139-.206.283-.118.425,0s.27.105.347-.055-.06-.247-.2-.283a.362.362,0,0,1-.215-.635c.153-.163.425-.558.766-.114a1.479,1.479,0,0,0,.5.3.229.229,0,0,0,.352-.119c.075-.149.011-.347-.128-.338-.622.039-.229-.3-.229-.508,0-.256.135-.391.356-.373s.457.121.327.457c-.048.121-.023.26.119.245,1.355-.158.508.6.347.935-.2.4.137.373.212.553.359-.254-.028-.6.185-.8.3-.165.183.485.508.229a.447.447,0,0,0,.195-.588,4.467,4.467,0,0,0-.649-.82,5.613,5.613,0,0,1-.72-.718c-.183-.229-.053-.54.178-.522C412.009,330.622,412.514,330.156,413.136,330.156Z" transform="translate(-394.35 -302.896)" fill="#fce5f0"/><path d="M441.338,291.887a1.953,1.953,0,0,0-.144-1.783,16.4,16.4,0,0,0-1.719-2.7,1.866,1.866,0,0,1-.309-2.59,7.015,7.015,0,0,1,3.914,2.7,4.64,4.64,0,0,1,.126,2.651v-.013a3.6,3.6,0,0,1-1.872,2.245C441.109,292.22,441.43,292.051,441.338,291.887Z" transform="translate(-418.095 -268.053)" fill="#fc017a"/><path d="M406.334,304.878c.427.989.254,2.162.942,3.07.373.555.965.3,1.527.391-.418.457-.928.283-1.388.313-.963-.409-1.276-1.326-1.683-2.167-.29-.6-.611-1.164-1.347-1.3a1.417,1.417,0,0,0-.81.157c-.437.149-.665.457-.468.926s.581.5,1,.336c.158-.06.274-.2.457-.242.309.094.167.356.206.551,0,.388-.265.562-.588.686a3.013,3.013,0,0,1-.811,0,2.958,2.958,0,0,1-1.218-.759,4.32,4.32,0,0,0-1.924-1.2c-.671-.215-.7-.457-.16-.895a4.632,4.632,0,0,1,.789-.506c.393-.18.775-.391,1.175-.567a4.741,4.741,0,0,1,2.773-.087,1.839,1.839,0,0,1,1.525,1.291Z" transform="translate(-387.948 -282.409)" fill="#fc027a"/><path d="M475.712,293.8l-.382-.075c.032-.062.05-.165.1-.183C475.675,293.454,475.68,293.648,475.712,293.8Z" transform="translate(-446.297 -274.773)" fill="#fce6f0"/><path d="M483.254,301.52a.894.894,0,0,1,.092.249.183.183,0,0,1-.1.124c-.121.053-.153-.045-.142-.13S483.175,301.63,483.254,301.52Z" transform="translate(-452.292 -280.942)" fill="#fce6f0"/><path d="M402.082,246.143a1.085,1.085,0,0,0-.27-.2c-.7-.229-.686-.212-.229-.83.169-.229.457-.361.437-.755-.016-.274.279-.167.457-.094a.493.493,0,0,0,.4.279c.229.039.447.03.661.084a.81.81,0,0,1,.208.094,4.851,4.851,0,0,1,.5.457,1.989,1.989,0,0,0,.686.51.473.473,0,0,1,.192.253.546.546,0,0,0,.334.487,1.856,1.856,0,0,1,.7.946c.021.288-.082.482-.393.522a2.27,2.27,0,0,1-.779-.629c.089.4.551.444.813.7-.133.752-.361.871-.884.427-.281-.229-.535-.51-.837-.727a1.876,1.876,0,0,1-.423-.992,2.2,2.2,0,0,0-.441-.9c-.5-.553-.7-.514-.969.187a.339.339,0,0,1-.163.181Z" transform="translate(-389.158 -236.713)" fill="#fcf1f6"/><path d="M404.651,248.979V248.9c.039-.347-.229-.889.119-1,.393-.13.832.192,1.156.54.517.553.457,1.3.718,1.939.217.066.272.281.373.439.169.272.512.581.229.9-.332.366-.731.126-1.077-.075a3.7,3.7,0,0,1-.7-.615,2.449,2.449,0,0,1-.766-1.754C404.683,249.17,404.672,249.074,404.651,248.979Z" transform="translate(-391.727 -239.549)" fill="#fc037b"/><path d="M402.182,254l.825,1.63c.126.208.121.343-.174.318l-1.514-1.385C401.725,254.558,402.1,254.5,402.182,254Z" transform="translate(-389.204 -244.285)" fill="#fcf1f6"/><path d="M410.515,244.5c.339.354-.332.457-.192.75-.4.153-.7-.075-1.017-.242l.013.011c-.169-.245-.5-.119-.686-.3a.187.187,0,0,1-.016-.208Z" transform="translate(-394.816 -236.956)" fill="#fcf1f6"/><path d="M398.8,254.132l-.736-.654C398.563,253.407,398.985,253.425,398.8,254.132Z" transform="translate(-386.69 -243.86)" fill="#fcf1f6"/><path d="M392.764,245.609c-.165-.339-.03-.611.309-.551s.105.354.034.551a.229.229,0,0,1-.343,0Z" transform="translate(-382.55 -237.383)" fill="#fbf4f8"/><path d="M392.229,247.5h.343c.172.229-.08.471,0,.706l-.571-.514Z" transform="translate(-382.015 -239.27)" fill="#fcf1f6"/><path d="M406.815,244.55c.016.043.034.089.048.133a.427.427,0,0,1-.187.341c-.169-.116-.567-.075-.329-.473Z" transform="translate(-393.027 -236.995)" fill="#fc88c0"/><path d="M401.05,239.226a2.436,2.436,0,0,1,.189-.176.754.754,0,0,1,.229.217c.06.112-.037.149-.128.112A2.324,2.324,0,0,1,401.05,239.226Z" transform="translate(-388.997 -232.752)" fill="#fbf4f8"/><path d="M417.945,251.449l-.7-.853a1.33,1.33,0,0,1-.324-.517.167.167,0,0,0-.172-.169.254.254,0,0,1-.075-.229c.064-.126.142-.229.3-.142.569.671,1.18,1.248,2.169.866a8.135,8.135,0,0,1,2.908.469c1.244.473,1.321.585,1.353,1.911-.06.169-.116.339-.176.51.149.583-.112.787-.686.8s-1.044-.189-1.577-.176a4.767,4.767,0,0,1-3.015-2.469Z" transform="translate(-401.045 -240.82)" fill="#fc017a"/><path d="M440.25,229.18c.1-.476,1.051-.686.229-1.5.611.229.953.444,1.059.953a8.93,8.93,0,0,1,.869-.7c.189-.116.247-.583.579-.327.368.286-.114.473-.165.718-.249.144-.5.274-.444.64a.83.83,0,0,1-.373.8c-.329.27-.588.558-.926-.016C440.915,229.465,440.511,229.4,440.25,229.18Z" transform="translate(-419.235 -223.864)" fill="#fceef5"/><path d="M413.14,247.282l-.261.261c-.281-.013-.409-.3-.654-.373a1.084,1.084,0,0,1-.526-.542c.384-.105.686.11,1.017.242C412.859,247.008,413,247.147,413.14,247.282Z" transform="translate(-397.212 -238.575)" fill="#fc1b87"/><path d="M433.577,269.14a4.548,4.548,0,0,1,1.9,1.735,4.86,4.86,0,0,1-.039,3.18c-.112.286-.251.13-.388.028-.281-1.031-1.111-1.491-1.973-1.943-.727-.382-1.5-.629-2.254-.946-.551-.288-1.1-.576-1.634-.895a2.237,2.237,0,0,1-1.143-1.829c0-.309-.037-.633.24-.866.281-.092.485.084.706.206a1.752,1.752,0,0,0,.978.329,1.684,1.684,0,0,1,.229.048,3.408,3.408,0,0,0,.711.107c.407.089.82.135,1.229.206a7.465,7.465,0,0,1,1.193.366C433.446,268.923,433.492,269.047,433.577,269.14Z" transform="translate(-409.819 -254.759)" fill="#fc017a"/><path d="M457.21,295.475a.266.266,0,0,0,.32.094c-.471.622-.172,1.372-.313,2.041-.057.263.1.576-.2.775a5.337,5.337,0,0,0-.334-2.743C456.927,295.818,456.982,295.409,457.21,295.475Z" transform="translate(-431.91 -276.273)" fill="#fce3ef"/><path d="M481.839,278.31c.206.08.306.142.277.268-.013.057-.107.094-.167.142a.917.917,0,0,1-.169-.245C481.761,278.42,481.827,278.338,481.839,278.31Z" transform="translate(-451.269 -263.038)" fill="#fce8f1"/><path d="M462.545,283.155c-.126,0-.21-.028-.187-.123.013-.055.11-.1.178-.126.032-.011.086.045.133.075Z" transform="translate(-436.287 -266.581)" fill="#fce8f1"/><path d="M401.026,261.111a2.174,2.174,0,0,0,1.053,1.646c.087.119.034.258-.069.272-.473.064-.928.019-1.3.506-.149.2-.6-.212-.837-.432-.339-.309-.082-.622.082-.914.13-.163.457-.158.366-.506-.1.174-.16.377-.345.476a2.394,2.394,0,0,0-.708,2.08c.142.686,0,.807-.974.9a1.75,1.75,0,0,1,.576.048c.229.082.434.2.444.457s-.229.265-.4.368c-.686.414-1.221,1.01-1.893,1.452-.425.279-.03,1-.447,1.394l-1.027.487c-.339.06-.752.4-.9-.229a1.724,1.724,0,0,0-.834-2.027c-1.216-.851-1.319-1.383-.7-2.759a5.308,5.308,0,0,0,.579-2.119,1,1,0,0,1,1.044-1.1,1.934,1.934,0,0,0,1.177-.457,1.124,1.124,0,0,0,.3-1.582.311.311,0,0,0,.176-.318c.373.249.649.633,1.109.757.165.043.343.124.48,0,.176-.16-.021-.3-.082-.439-.126-.281-.256-.56-.386-.841.409.037.626.354.884.605.153.149.229.437.522.306.251-.11.229-.363.229-.59a.522.522,0,0,0,.343-.522,13.173,13.173,0,0,0,2.372,2.088,2.741,2.741,0,0,0,.542.149,5.485,5.485,0,0,0,2.659.172,1.617,1.617,0,0,1,1.8.875c-.133.2-.53.11-.514.471l-.192-.082c-.309-.457-.828-.24-1.232-.391a2.6,2.6,0,0,1-1.317-.229c-.215-.183-.5.037-.72-.133l-.075.016-.069-.037c-.332-.169-.711-.18-1.051-.322l-.5-.315C400.841,260.411,400.841,260.411,401.026,261.111Z" transform="translate(-382.584 -247.393)" fill="#fceef5"/><path d="M448.493,264.729a2.381,2.381,0,0,0-1.651-.731c-.18-.094-.165-.192,0-.292a2.508,2.508,0,0,0,.686-1.235,3.385,3.385,0,0,1,1.143,2.229.584.584,0,0,0-.178.03Z" transform="translate(-424.221 -250.819)" fill="#fc0c80"/><path d="M447.178,245.593c.412-.373.4-.368.6.057s.686.155,1.008.528c-.057-.489-.686-.583-.391-.969a.878.878,0,0,1,.787-.421c.592.087.144.624.363.969,1.044-1.207.834.292,1.244.5-.5.29-.1.837-.343,1.2l-.116-.023c-.2.137-.508-.843-.62.066a.491.491,0,0,1-.11.2c-.414.229-.069.272.087.363l.075.082c.192.457.633.574,1.079.686l-.06.229a6.27,6.27,0,0,1-1.566-.032c-.416-.107-.64-.615-.8-1-.124-.3-.229-.414-.522-.407a.187.187,0,0,1-.242.037,1.229,1.229,0,0,1-.629-1.143,3.33,3.33,0,0,1,.157-.921Z" transform="translate(-424.454 -237.174)" fill="#fcedf4"/><path d="M445.251,252.667a2.145,2.145,0,0,0,.56,1.008c-.028.107-.137.124-.208.183l-.165.373c-.444-.229-.382-.834-.871-1.09-.208-.11.354-.057.35-.309C445.009,252.742,445.054,252.55,445.251,252.667Z" transform="translate(-422.528 -243.228)" fill="#fc0e81"/><path d="M437.767,266.443v.292a5.354,5.354,0,0,1-2.807-.315,16.286,16.286,0,0,1,1.742.185c.56.116.59-.21.631-.585a.713.713,0,0,0,.434.423Z" transform="translate(-415.155 -253.557)" fill="#fce3ef"/><path d="M458.952,256.3c.322.78-.489.425-.686.686-.135-.149-.3-.281-.171-.514a.8.8,0,0,1,.857-.172Z" transform="translate(-432.965 -246.018)" fill="#fcedf4"/><path d="M463.5,250.093l.172-.343c.121.229.711-.119.553.361S463.749,250.106,463.5,250.093Z" transform="translate(-437.171 -241.006)" fill="#fcedf4"/><path d="M449.25,257.366l.208-.183a.573.573,0,0,1,.153,0c.092.142.183.281.292.457C449.586,257.738,449.471,257.418,449.25,257.366Z" transform="translate(-426.178 -246.736)" fill="#fb3f99"/><path d="M439.68,231.7c.457.215,1.2-.045,1.2.948.359-.506,1-.613.643-1.4-.2-.425.324-.526.725-.407.21.4.064.82.092,1.232a.913.913,0,0,1-.037.229c-.82-.153-1.015,1.031-1.829.846-.139.3.409.283.229.54a.363.363,0,0,1-.457.082.487.487,0,0,1-.249-.564c.075-.345.306-.811-.4-.853-.2-.013-.013-.116.066-.139C440.207,232.067,439.622,231.872,439.68,231.7Z" transform="translate(-418.665 -226.386)" fill="#fcf1f6"/><path d="M446.582,249.352l-.334.163a1.592,1.592,0,0,1,.339-1.182C446.582,248.671,446.582,249.012,446.582,249.352Z" transform="translate(-423.861 -239.911)" fill="#fc76b6"/><path d="M438.816,243.984a.9.9,0,0,1-.258.112c-.119.013-.245-.064-.183-.192.034-.069.189-.089.292-.107S438.837,243.817,438.816,243.984Z" transform="translate(-417.777 -236.41)" fill="#fcf1f6"/><path d="M438.81,239.177c.025-.1.05-.2.153-.137a.283.283,0,0,1,.112.187c0,.087-.062.158-.149.11S438.853,239.223,438.81,239.177Z" transform="translate(-418.125 -232.728)" fill="#fcf1f6"/><path d="M371.5,266.43a5.024,5.024,0,0,0-.671,2.082,1.68,1.68,0,0,1-.324.86,2.143,2.143,0,0,1-.189-.121,2.047,2.047,0,0,0,.192.114,3.882,3.882,0,0,1-1.024,1.628,3.376,3.376,0,0,0-.882,3.5c-.105.279-.444.551.122.784.384.16.38.746.789.946a.457.457,0,0,1,.011.347c-.279.215-.437.757-.944.347-.212-.171-.229.041-.27.153a2.23,2.23,0,0,1-1.31,1.206,2.088,2.088,0,0,0-.969.8c-.114.189-.229.429-.522.215v-.172c-.192-.313-.251-.736-.686-.857a.6.6,0,0,1-.343-.686l1.306-.119c-.034-.663-.895-.457-1.021-1.063-.06-.281-.261-.5.064-.686.491-.281.158.249.3.322a.823.823,0,0,0,.288.142c.176.016.258-.121.254-.274,0-.253-.126-.54-.043-.752.1-.251-.254-.658.089-.686s.729-.588,1.143-.082c.13.163.29.292.5.082s.4-.341.384-.635a.82.82,0,0,0-.08-.229c-.306.185-.6-.35-.933,0-.057.06-.288.021-.391-.046-.158-.1-.06-.322.032-.366.624-.283.114-.608,0-.895.258-.178.412.075.6.053.249-.032.439-.153.429-.435,0-.165.272-.457-.21-.457a.429.429,0,0,1-.336-.506c.1-.3.283-.039.457,0,.622.158,1.859-.809,1.81-1.438-.03-.407.27-.6.4-.895-.229-.3-.553.112-.853-.2.592-.1,1.01-.629,1.671-.309.229.11.288-.1.272-.359a6.239,6.239,0,0,1,.149-2.149C371.035,265.92,371.038,266.4,371.5,266.43Z" transform="translate(-360.787 -253.233)" fill="#fceff6"/><path d="M369,313.859c.425-.322.635-.853,1.143-1.113.377-.2.841-.21,1.111-.686.1-.183.356-.3.332-.605-.023-.265.2-.306.388-.363.322-.092.144.2.212.265.352.332.429-.38.759-.229.564-.165,1.193-.032,1.719-.366.206-.124.35-.366.638-.336.631-.126.873.512,1.349.711.142.06.046.427-.119.611s-.435.315-.611.178c-.391-.3-.857-.217-1.372-.388.2.366.553.608.281,1.058-.2.322-.18.686-.731.731s-.423.862-.377,1.008a1.727,1.727,0,0,1-.366,1.9c-.114.1-.315.107-.347.3a.308.308,0,0,0,.169.019c.309,0,.8-.526.871.128a.731.731,0,0,1-.926.789l-1.2-.686c-.343-.585-1.04-.746-1.467-1.235-.457-.526-.963-1.008-1.447-1.508Z" transform="translate(-364.273 -287.799)" fill="#fcedf4"/><path d="M366,320.986c.647-.05.718.363.686.857C366.215,321.751,366.288,321.226,366,320.986Z" transform="translate(-361.959 -295.955)" fill="#fcedf4"/><path d="M384.872,314.36c.439-.126.567-.547.86-.841-.393-.028-.686.215-1.038.189-.165,0-.35.094-.432-.124a.281.281,0,0,1,.229-.384c.935-.133.8-.963,1.015-1.548.1-.268.013-.3-.587-.21-.025-.334.914-.418.229-.914.388-.135.3-1.25,1.09-.414.1-.365-.363-.738.263-.895.2-.05-.128-.345-.313-.457s-.313-.229-.185-.468c.149-.286.33-.156.489-.055.2.122.359.3.585.041.18-.2.332-.229.363.119.028.265.229.306.439.274a.423.423,0,0,0,.382-.4c.03-.229-.048-.407-.3-.427-.4-.032-.482-.588-.914-.539l1.04-.914c.229.366.6.189.9.229-.338.336-.834.485-1.2,1.027,1.662-.011,2.434,1.328,3.589,2.057a.914.914,0,0,0,.857,0l.508-.53.052-.062.069.048c.471.32.32.54-.114.714-.256.086-.229.457-.514.514-.311-.388-.734-.377-.834.055s-.5.914-.2,1.445c-.21.149-.263-.144-.425-.135-.2,0-.118-.229-.206-.315a.712.712,0,0,0-.832-.229c-.286.158-.03.382.062.579.183.393-.167.969.429,1.244.062.028-.107.251-.265.208-.752-.2-1.068.363-1.441.82-.087.1-.114.313-.206.339-.256.069-.368-.564-.686-.206-.149.174.489.21.229.537-.1.135-.229.313-.363.345-.263.06-.069-.189-.128-.286-.082-.135-.171-.242-.329-.135-.11.075-.281.18-.153.336.208.256.112.341-.158.373A5.979,5.979,0,0,1,384.872,314.36Z" transform="translate(-376.03 -284.701)" fill="#fceaf3"/><path d="M403.779,346.9l-1.029-.171v-.172h0C403.29,345.926,403.363,345.95,403.779,346.9Z" transform="translate(-390.308 -315.352)" fill="#fce7f1"/><path d="M402.147,344.862c-.352-.087-.427-1-1.029-.343-.105-.158-.116-.382-.361-.439-.208-.05-.092-.315-.075-.306.35.163.75-.775,1.086.075.229.564.736.535,1.235.327-.028.165.7.6-.176.471-.155-.023-.341.139-.512.217Z" transform="translate(-388.676 -313.316)" fill="#fceaf3"/><path d="M418.846,352.962c-.046.041-.178.18-.2.169-.128-.1-.3-.213-.329-.345s.169-.208.32-.187S418.867,352.748,418.846,352.962Z" transform="translate(-402.319 -320.342)" fill="#f9c9df"/><path d="M390.323,257.224l.172.172c-.052.011-.13,0-.155.041-.126.165-.011.532-.407.457a.176.176,0,0,1-.169-.229.447.447,0,0,1,.56-.441Z" transform="translate(-380.283 -246.766)" fill="#fbf4f8"/><path d="M370.24,279.156c-.16-.021-.272-.089-.206-.268s.107-.345.315-.324a.254.254,0,0,1,.229.29C370.558,279.051,370.414,279.12,370.24,279.156Z" transform="translate(-365.055 -263.233)" fill="#fbf4f8"/><path d="M366.68,281.551c.037-.435.069-.708.425-.895C367.178,281.075,366.952,281.285,366.68,281.551Z" transform="translate(-362.483 -264.849)" fill="#fbf4f8"/><path d="M395.253,261.75a1.074,1.074,0,0,1,.384.671h-.213c-.105-.169-.21-.341-.313-.512S395.113,261.728,395.253,261.75Z" transform="translate(-384.383 -250.257)" fill="#fc4fa2"/><path d="M394.219,259.96l-.142.167a1.143,1.143,0,0,1-.347-.706.716.716,0,0,1,.489.539Z" transform="translate(-383.35 -248.466)" fill="#fb4ea1"/><path d="M390,253.458c.444-.092.354.345.522.528C390.171,253.981,390.128,253.678,390,253.458Z" transform="translate(-380.473 -243.857)" fill="#fbbada"/><path d="M381.291,306.2c-.229-.011-.56.025-.56-.254,0-.638-.576-.663-.895-.976.1-.268.373-.361.611-.489l.857,1.543c.048.043.064.084.041.121S381.309,306.2,381.291,306.2Z" transform="translate(-372.634 -283.225)" fill="#fcedf4"/><path d="M385.852,297.974c-.116-.251.016-.339.208-.336a.4.4,0,0,1,.416.427c.011.242-.06.473-.345.457C385.7,298.523,385.962,298.131,385.852,297.974Z" transform="translate(-377.239 -277.947)" fill="#fcd9ea"/><path d="M386.19,311.406l.016-.176a.637.637,0,0,0,.828.334,8.887,8.887,0,0,1,.889-.183,2.354,2.354,0,0,1-1.719.366Z" transform="translate(-377.533 -288.433)" fill="#fceaf3"/><path d="M414.949,311.9c-.27.64-.757.626-1.268.373a.791.791,0,0,1-.4-1.143,1.036,1.036,0,0,1,1.506-.476l-.229.158c-.089.187-.26.1-.4.124a.342.342,0,0,0-.18.075c.071.089-.048.021.055-.03s-.028.016.082-.032a1.2,1.2,0,0,1,.789.167l.165.16a1.017,1.017,0,0,1-.12.624Z" transform="translate(-398.348 -287.877)" fill="#fce0ed"/><path d="M419.25,322.264c.124-.229.178-.508.514-.514-.1.2-.131.382.114.489.686.306.013.809.153,1.212.041.114-.3-.023-.292-.045C419.94,322.861,419.245,322.722,419.25,322.264Z" transform="translate(-403.036 -296.547)" fill="#fce5f0"/><path d="M432.462,329.068a.315.315,0,0,1-.343.343c-.206-.167-.256-.414-.075-.567S432.364,328.908,432.462,329.068Z" transform="translate(-412.82 -301.98)" fill="#fce3ef"/><path d="M420.838,314.473c0-.229-.124-.457.128-.633.341.334.2.718.114,1.1a.545.545,0,0,1-.122.013C420.945,314.791,421.007,314.6,420.838,314.473Z" transform="translate(-404.238 -290.445)" fill="#fc3997"/><path d="M417.7,312.129l-.864-.055c-.048-.046-.06-.089-.039-.126s.039-.057.057-.057l.5-.062a.452.452,0,0,1,.346.3Z" transform="translate(-401.136 -288.895)" fill="#fc55a5"/><path d="M430.2,328.582c.08-.229-.229-.42.039-.671a.435.435,0,0,1-.039.671Z" transform="translate(-411.423 -301.3)" fill="#fce5f0"/><path d="M409.535,282.719c-.016-.995-.06-2,1.33-2.123.052,0,.1-.114.142-.183.427-.766.425-.766,1.118-.8-.332-.505-.4-.522-1.356-.345a.746.746,0,0,1,.686-.535c.21-.041.6.3.6-.133,0-.272.2-.7-.229-.887-.16-.069-.229-.155-.137-.313s.2,0,.274-.019a.382.382,0,0,0,.288-.506c-.251-.716.253-.761.706-.875h0c-.1.652-.1.652.766,1.314.032-.686.322-.873.914-.517.178.107.318,0,.407-.178l1.523.882c.153.256.476.256.7.409-.142.347-.361.229-.569.158-.649.914-.016,1.7.217,2.535-.334.4.019.658.306.954-.334.06-.592,0-.8.18-.615.553-.813.457-1.193-.478l-.746.491c-.019.2.775-.075.229.384-.373.324.62.592-.016.864-.746.318-.263.512.087.725-.29.345-.574.212-.86,0C412.731,282.222,411.165,282.338,409.535,282.719Z" transform="translate(-395.539 -261.256)" fill="#fceaf3"/><path d="M440.413,283.136l.457-.048c-.24-.2-.553-.206-.59-.522a14.016,14.016,0,0,1,3.365,1.529,1.739,1.739,0,0,1,.914,1.426c-.155.126-.277.35-.53.174C443.094,284.462,441.637,283.961,440.413,283.136Z" transform="translate(-419.259 -266.322)" fill="#fce6f0"/><path d="M416.357,321a.571.571,0,0,1-.857,0Z" transform="translate(-400.143 -295.969)" fill="#fce7f1"/><path d="M418.014,256.6c-.88-.153-.989-.363-.686-1.143C417.329,255.97,417.818,256.161,418.014,256.6Z" transform="translate(-401.433 -245.411)" fill="#fceef5"/><path d="M408,245.471a.365.365,0,0,1,.187-.341c.274.034.635-.089.665.373Z" transform="translate(-394.356 -237.442)" fill="#fb65ae"/><path d="M417.381,252c.178.13.352.261.324.517C417.278,252.544,417.159,252.38,417.381,252Z" transform="translate(-401.51 -242.742)" fill="#fceef5"/><path d="M414,249.076c.315-.045.407.3.654.373a.754.754,0,0,0,.03.119.83.83,0,0,1-.684-.491Z" transform="translate(-398.986 -240.483)" fill="#fceef5"/><path d="M446,272.222c.437.053.992-.274,1.232.391Z" transform="translate(-423.671 -258.314)" fill="#fce3ef"/><path d="M428.053,268.161a.782.782,0,0,1-.279-.649c0-.242.121-.54.435-.172C427.96,267.57,428.147,267.89,428.053,268.161Z" transform="translate(-409.611 -254.44)" fill="#fceaf3"/><path d="M431.89,269.26a1.149,1.149,0,0,1,1.051.322,1.435,1.435,0,0,1-1.051-.322Z" transform="translate(-412.786 -256.047)" fill="#fce3ef"/><path d="M437.11,270.505c.229.114.558-.341.72.133a.969.969,0,0,1-.72-.133Z" transform="translate(-416.813 -256.949)" fill="#fce3ef"/><path d="M408.9,273c.487.176.7.5.434.983a1.558,1.558,0,0,1-1.651.361c-.457-.368-.327-.789.019-1.177.215-.107.32.105.48.165.309.144.457-.066.624-.268A.524.524,0,0,0,408.9,273Z" transform="translate(-393.889 -258.941)" fill="#fc0c7f"/><path d="M424.5,272.654a1.988,1.988,0,0,0,.092-.315c.034-.268-.019-.6.332-.671.215-.046.3.183.215.339C425,272.278,425.163,272.892,424.5,272.654Z" transform="translate(-407.086 -257.91)" fill="#fceaf3"/><path d="M428.133,275.826a1.989,1.989,0,0,1-.3.172c-.105.032-.155-.048-.119-.135a.292.292,0,0,1,.165-.158C427.927,275.691,428,275.771,428.133,275.826Z" transform="translate(-409.553 -261.027)" fill="#fceaf3"/><path d="M409.116,273.065l-.356-.332a.468.468,0,0,1,.345-.3.583.583,0,0,1,.128.2.441.441,0,0,1-.117.439Z" transform="translate(-394.944 -258.501)" fill="#fc3f99"/><path d="M410.293,272.375l-.021-.192c.3-.066.611-.174.853.137h0A.658.658,0,0,1,410.293,272.375Z" transform="translate(-396.109 -258.255)" fill="#fc3896"/><path d="M458.166,254.265a1.417,1.417,0,0,1-.857.172,1.2,1.2,0,0,0-.279-.807C457.679,253.493,457.9,253.909,458.166,254.265Z" transform="translate(-432.18 -243.978)" fill="#fceaf3"/><path d="M456.036,257.25l.172.514c-.292-.011-.615.062-.828-.3C455.567,257.275,455.817,257.3,456.036,257.25Z" transform="translate(-430.907 -246.792)" fill="#fceaf3"/><path d="M379.033,293.386c-.253.144.084.59-.288.62-.315.028-.258-.318-.324-.512s-.062-.439.212-.441C378.8,293.05,379.043,293.1,379.033,293.386Z" transform="translate(-371.513 -274.408)" fill="#fcf1f7"/><path d="M389.237,279.956c-.611.133-.491-.217-.416-.626.318.149.245.471.414.633Z" transform="translate(-379.514 -263.825)" fill="#fcf1f7"/><path d="M383.485,288.28c.124,0,.242.057.229.176,0,.08-.119.16-.2.215-.019.011-.139-.075-.163-.139a.176.176,0,0,1,.135-.251Z" transform="translate(-375.329 -270.729)" fill="#fcf1f7"/><path d="M371.675,309.154c-.048-.105-.11-.176-.094-.229s.1-.105.153-.155c.032.057.1.119.089.171S371.739,309.051,371.675,309.154Z" transform="translate(-366.262 -286.535)" fill="#fcf1f7"/><path d="M385.943,333.08c.119,0,.2.034.163.135a.277.277,0,0,1-.174.13.1.1,0,0,1-.128-.137C385.823,333.149,385.906,333.112,385.943,333.08Z" transform="translate(-377.229 -305.288)" fill="#fceaf3"/><path d="M415.953,312.1a1.651,1.651,0,0,1-.019.183l-.272.432C415.547,312.345,415.693,312.189,415.953,312.1Z" transform="translate(-400.237 -289.103)" fill="#fc8cc1"/><path d="M419.28,288.129c.611-.135,1.221-.279,1.829-.4a2.237,2.237,0,0,0,2.069-2.32c-.032-.174-.137-.386.2-.368a2.3,2.3,0,0,1-1.9,3.214,9.46,9.46,0,0,1-1.276.057C419.879,288.307,419.5,288.609,419.28,288.129Z" transform="translate(-403.06 -268.225)" fill="#fc0d80"/><path d="M422.032,281.892c-.025.2-.069.407-.327.391-.187,0-.169-.2-.163-.327.011-.176.089-.343.281-.361S422.026,281.748,422.032,281.892Z" transform="translate(-404.804 -265.571)" fill="#fceef5"/><path d="M416.82,298.567c.265.27.615.094.914.178a5.535,5.535,0,0,1-1.64.167.86.86,0,0,1,.726-.345Z" transform="translate(-400.6 -278.663)" fill="#fc1b87"/><path d="M411.681,299.47c0,.124-.052.229-.178.229a.192.192,0,0,1-.213-.2.229.229,0,0,1,.135-.169.176.176,0,0,1,.256.137Z" transform="translate(-396.896 -279.24)" fill="#fceef5"/><path d="M436.041,284.1c-.165.075-.139.229-.2.368-.126-.2-.229-.437-.064-.617C435.86,283.779,436.011,283.958,436.041,284.1Z" transform="translate(-415.723 -267.3)" fill="#fc54a5"/><path d="M410.3,273.062l.835-.062c.057.738-.3.779-.851.51Z" transform="translate(-396.116 -258.941)" fill="#fcd9ea"/></g><g transform="translate(6059.021 1087.406)"><path d="M-266.179,125.9c-.126-.006-.26.048-.377-.043A.617.617,0,0,1-266.179,125.9Z" transform="translate(280.354 -110.203)" fill="#2a373b"/><path d="M-259.293,126.593c-.105,0-.216.045-.31-.039A.463.463,0,0,1-259.293,126.593Z" transform="translate(274 -110.844)" fill="#2a373b"/><g transform="translate(0 0)"><path d="M-383.958-47.435a7.917,7.917,0,0,1,.883-1.033,16.664,16.664,0,0,1,8.232-4.8,10.2,10.2,0,0,1,1.558-.289c.059.172-.085.221-.184.278-.589.341-1.176.687-1.768,1.023-.637.362-1.263.74-1.9,1.1a.347.347,0,0,0-.177.16.254.254,0,0,1-.121.094,14.688,14.688,0,0,0-2.079,1.187.667.667,0,0,1-.253.134.351.351,0,0,0-.21.056c-1.189.673-2.371,1.358-3.552,2.045a.84.84,0,0,1-.258.125C-383.858-47.336-383.952-47.305-383.958-47.435Z" transform="translate(387.643 53.743)" fill="#283036"/><path d="M-207.234,256.538a14.208,14.208,0,0,1-2.889.578c-.051-.157.075-.21.169-.265.688-.4,1.381-.8,2.069-1.2a5.957,5.957,0,0,0,1.027-.644,7.493,7.493,0,0,1,.957-.4,15.414,15.414,0,0,0,4-2.506,3.18,3.18,0,0,1,.573-.483,1.021,1.021,0,0,0,.366-.147c.842-.488,1.68-.983,2.532-1.452.062-.034.163-.181.225.013a15.058,15.058,0,0,1-1.94,2.322c-.052.053-.109.1-.164.148-1.458.813-2.892,1.666-4.341,2.494-.731.418-1.459.843-2.19,1.262A1.718,1.718,0,0,0-207.234,256.538Z" transform="translate(228.793 -223.603)" fill="#399584"/><path d="M-398.574-5.93c.1.118.192.032.274-.015.6-.344,1.2-.694,1.8-1.041q.966-.557,1.934-1.11c.055-.032.117-.077.176,0a8.684,8.684,0,0,1-.832.687,17.589,17.589,0,0,0-2.08,2.082.987.987,0,0,1-.282.277,5.548,5.548,0,0,0-1.074.565c-.349.192-.687.4-1.041.588-.074.038-.193.157-.253-.032a10.719,10.719,0,0,1,.9-1.4,4.355,4.355,0,0,1,.476-.6Z" transform="translate(402.26 12.239)" fill="#293237"/><path d="M-307.008-52.97c.026-.19.212-.2.328-.267.528-.322,1.068-.624,1.6-.932l1.86-1.073c.109-.063.228-.113.252-.258a10.831,10.831,0,0,1,1.648-.175c.25-.016.5-.006.753-.007.017.152-.109.2-.2.253-.543.327-1.094.64-1.643.956a2.339,2.339,0,0,0-.453.314c-.438.131-.893.188-1.338.289a14.524,14.524,0,0,0-2.474.819C-306.779-53.008-306.881-52.933-307.008-52.97Z" transform="translate(317.321 55.69)" fill="#293237"/><path d="M-104.768,230.265c-.025-.049-.056-.056-.106-.028q-1.052.608-2.1,1.213c-.21.122-.419.245-.629.368a.448.448,0,0,1-.273.075c-.043-.092.033-.137.081-.184a15.279,15.279,0,0,0,1.851-2.133.373.373,0,0,1,.146-.131c.554-.25,1.057-.591,1.586-.885.116-.064.231-.133.349-.193.081-.041.168-.106.265-.026A12.164,12.164,0,0,1-104.768,230.265Z" transform="translate(135.357 -203.837)" fill="#389181"/><path d="M-176.47,283.788c-.015-.127.093-.162.169-.206.654-.384,1.311-.762,1.967-1.143q2.122-1.228,4.246-2.452a1.451,1.451,0,0,1,.543-.238l-.655.6a14.266,14.266,0,0,1-2.133,1.593A15.957,15.957,0,0,1-176.47,283.788Z" transform="translate(198.028 -250.853)" fill="#3a9987"/><path d="M-410.467,28.5c.084.112.163.022.23-.015.557-.314,1.108-.637,1.666-.949.144-.081.271-.221.465-.181a2.538,2.538,0,0,1-.415.622c-.3.437-.578.893-.846,1.351-.052.088-.089.19-.2.228a1.356,1.356,0,0,0-.594.278c-.326.186-.651.376-.979.562-.094.053-.192.153-.32.067A11.951,11.951,0,0,1-410.467,28.5Z" transform="translate(412.775 -20.188)" fill="#293439"/><path d="M-259.018-54.249A5.652,5.652,0,0,1-258-54.89c.362-.225.735-.431,1.1-.645a.464.464,0,0,0,.186-.184,9.723,9.723,0,0,1,1.423.055c.09.037.19-.008.279.032l.165.012c.073.035.156,0,.23.029v0c.022.125-.08.162-.158.21-.355.222-.72.429-1.086.63-.206.113-.39.259-.6.373-.334.042-.673-.024-1.006.041a2.1,2.1,0,0,1-.388.02.637.637,0,0,0-.263.026c-.216.024-.431.054-.646.085A.285.285,0,0,1-259.018-54.249Z" transform="translate(273.465 55.725)" fill="#293439"/><path d="M-152.3-32.343a5.584,5.584,0,0,1,.969.539c.217.133.422.285.632.428.023.077-.039.107-.085.134-.368.223-.731.457-1.119.646a.371.371,0,0,1-.208-.07c-.426-.254-.847-.517-1.294-.735a.245.245,0,0,1-.115-.1c-.03-.113.049-.162.127-.205C-153.022-31.91-152.665-32.133-152.3-32.343Z" transform="translate(177.058 34.358)" fill="#2c4345"/><path d="M-222.865,308.874a1.759,1.759,0,0,1-.662.455c-.811.479-1.633.94-2.449,1.41a.3.3,0,0,0-.177.212l-.206.013c-.091.037-.19-.005-.281.031a4.782,4.782,0,0,1-1.024.045c-.049-.134.07-.164.142-.206.585-.339,1.167-.684,1.756-1.016a2.786,2.786,0,0,0,.522-.363c.735-.18,1.475-.346,2.193-.591C-222.991,308.842-222.925,308.819-222.865,308.874Z" transform="translate(244.824 -277.438)" fill="#389282"/><path d="M-417.411,53.192a2.33,2.33,0,0,0,.7-.35c.328-.177.645-.375.97-.558.062-.035.134-.112.214-.02a.264.264,0,0,1-.048.25,12.377,12.377,0,0,0-.6,1.262c-.034.073-.051.157-.136.194a.94.94,0,0,0-.448.175c-.309.187-.625.362-.938.542-.084.048-.167.134-.282.066a9.386,9.386,0,0,1,.561-1.561Z" transform="translate(418.728 -42.922)" fill="#2a373b"/><path d="M-261.628,319.642a8.28,8.28,0,0,1-1.593-.18.433.433,0,0,1,.209-.188c.406-.24.813-.477,1.226-.705.142-.079.264-.185.4-.267.6.059,1.2-.054,1.805,0,.171.128.015.188-.062.239-.232.155-.477.29-.72.429-.357.2-.718.4-1.065.624C-261.486,319.636-261.549,319.679-261.628,319.642Z" transform="translate(277.306 -286.072)" fill="#388d7e"/><path d="M-228.571-53.045a2.621,2.621,0,0,1,.8-.528c.277-.177.568-.332.854-.5a.341.341,0,0,0,.136-.14,6.609,6.609,0,0,1,1.483.27.668.668,0,0,0,.153.013c.052.149-.084.172-.161.217-.28.164-.556.332-.84.49a1.335,1.335,0,0,0-.516.392c-.446-.017-.885-.1-1.33-.125a1.188,1.188,0,0,0-.35-.03C-228.425-52.987-228.509-52.976-228.571-53.045Z" transform="translate(245.64 54.342)" fill="#2a373b"/><path d="M-189.693-47.306a10.435,10.435,0,0,1,1.6.576c.062.139-.056.182-.136.232-.385.239-.782.46-1.174.687a3.573,3.573,0,0,1-.863-.236,3.019,3.019,0,0,1-.813-.246c-.039-.148.078-.193.171-.246.315-.181.623-.372.943-.544A.753.753,0,0,0-189.693-47.306Z" transform="translate(211.386 48.033)" fill="#2a3c3f"/><path d="M-425.188,88.89a9.4,9.4,0,0,1,.309-1.74.888.888,0,0,0,.437-.191c.29-.158.57-.334.863-.486.079-.041.191-.13.243.043-.126.555-.219,1.117-.4,1.659-.416.221-.824.456-1.231.694C-425.035,88.909-425.107,88.96-425.188,88.89Z" transform="translate(425.322 -74.17)" fill="#2a3c3f"/><path d="M-171.3-39.737a7.455,7.455,0,0,1,.893-.563c.136-.1.348-.114.4-.323a8.023,8.023,0,0,1,1.467.713c-.178.24-.467.315-.7.474a4.234,4.234,0,0,1-.4.226.151.151,0,0,0-.1.136c-.074.058-.142.014-.206-.017a12.489,12.489,0,0,0-1.18-.5C-171.2-39.62-171.3-39.627-171.3-39.737Z" transform="translate(193.302 41.925)" fill="#2b4042"/><path d="M-357.344,281.105a10.064,10.064,0,0,1-1.334-1.033c.384-.263.794-.479,1.2-.7a.239.239,0,0,1,.181.069c.327.255.657.507,1,.733a.234.234,0,0,1,.135.166.193.193,0,0,1-.108.158C-356.628,280.694-356.972,280.925-357.344,281.105Z" transform="translate(364.541 -250.505)" fill="#34736a"/><path d="M-73.569,200.994a9.69,9.69,0,0,1-.531,1.378c-.572.363-1.168.684-1.753,1.023a.258.258,0,0,1-.25.044c-.038-.071,0-.128.034-.184A11.639,11.639,0,0,0-75.431,202a.273.273,0,0,1,.124-.15,10.348,10.348,0,0,0,1.245-.678c.1-.053.194-.108.291-.161C-73.708,200.975-73.642,200.929-73.569,200.994Z" transform="translate(106.318 -178.851)" fill="#388c7d"/><path d="M-426.515,107.611a2.908,2.908,0,0,0,.677-.349c.184-.089.358-.2.537-.3a.345.345,0,0,1,.208-.06.46.46,0,0,1,.015.281c-.056.407-.107.815-.134,1.226a.237.237,0,0,1-.041.124,6.38,6.38,0,0,0-1.108.577c-.085.045-.164.142-.278.059v-.046c.043-.165-.014-.336.032-.5A4.687,4.687,0,0,1-426.515,107.611Z" transform="translate(426.649 -92.89)" fill="#2b4042"/><path d="M-244.731,317.477l.814-.472c.381-.221.763-.439,1.141-.665.058-.035.139-.061.148-.151a.548.548,0,0,1,.373-.1c.388-.035.773-.09,1.157-.152.083-.013.175-.048.247.035-.078.19-.268.241-.422.331-.608.356-1.221.7-1.83,1.056-.058.034-.139.061-.148.15A7.74,7.74,0,0,1-244.731,317.477Z" transform="translate(260.408 -283.907)" fill="#389081"/><path d="M-52.871,104.705a7.009,7.009,0,0,1,.177,1.287c.041.333.04.331-.234.486-.243.137-.483.283-.726.42a.33.33,0,0,0-.189.318c0,.09.048.212-.09.261a.173.173,0,0,1-.07-.154c.009-.616-.07-1.227-.115-1.84.017-.075.082-.1.141-.129C-53.6,105.147-53.233,104.933-52.871,104.705Z" transform="translate(86.213 -90.885)" fill="#34736a"/><path d="M-134.711-20.348c.3-.239.655-.385.97-.6.079-.053.155-.108.232-.163a8.349,8.349,0,0,1,1.159.88c.019.165-.125.2-.222.26-.295.176-.6.341-.888.523a.067.067,0,0,1-.043,0c-.42-.251-.8-.559-1.2-.842C-134.719-20.3-134.718-20.326-134.711-20.348Z" transform="translate(159.869 24.091)" fill="#2d4949"/><path d="M-109.022-1.835A10.017,10.017,0,0,1-108-.772c.005.15-.126.183-.217.243-.272.182-.58.305-.837.512-.078.019-.126-.032-.173-.078q-.427-.42-.847-.847a.216.216,0,0,1-.079-.154c.039-.119.151-.154.243-.209C-109.617-1.483-109.3-1.633-109.022-1.835Z" transform="translate(137.425 6.478)" fill="#2e504f"/><path d="M-420.6,180.576a8.089,8.089,0,0,1-.4-1.378c.04-.109.147-.14.234-.191.248-.144.5-.286.746-.429.084-.048.172-.1.254.007a7.611,7.611,0,0,1,.346,1.349,6.666,6.666,0,0,1-1.094.646A.1.1,0,0,1-420.6,180.576Z" transform="translate(421.495 -158.345)" fill="#2e504f"/><path d="M-55.43,90.058c-.006.021,0,.053-.019.062a5.782,5.782,0,0,1-1.182.661.221.221,0,0,1-.094-.168c-.05-.351-.138-.694-.192-1.044a.315.315,0,0,1,.186-.318c.332-.188.66-.382.991-.573A7.956,7.956,0,0,1-55.43,90.058Z" transform="translate(88.772 -76.239)" fill="#336e66"/><path d="M-59.818,75.044c-.059.18-.248.192-.376.281a5.742,5.742,0,0,1-.632.364.192.192,0,0,0-.111.216.068.068,0,0,1-.053-.011.068.068,0,0,1-.029-.045c-.111-.45-.271-.886-.362-1.342a.2.2,0,0,1,.085-.149,6.8,6.8,0,0,1,1.076-.6A7.07,7.07,0,0,1-59.818,75.044Z" transform="translate(92.85 -62.605)" fill="#326962"/><path d="M-367.763,269.95c-.362.217-.723.434-1.087.648a.4.4,0,0,1-.127.025,11.011,11.011,0,0,1-.971-.892c0-.022.008-.049.025-.06a5.634,5.634,0,0,1,1.164-.643,4.208,4.208,0,0,1,.685.575C-367.955,269.7-367.781,269.76-367.763,269.95Z" transform="translate(374.84 -241.055)" fill="#336e66"/><path d="M-343.188,291.286a3.117,3.117,0,0,1,.621-.411c.178-.126.413-.168.542-.366a4.485,4.485,0,0,1,.932.481c.114.063.277.076.319.24a6.629,6.629,0,0,1-1.007.62c-.1.056-.172.168-.308.141a7.764,7.764,0,0,1-1.1-.706Z" transform="translate(350.385 -260.685)" fill="#34786d"/><path d="M-420.086,73.2c-.079-.081-.138,0-.192.033-.378.21-.751.428-1.129.638-.055.031-.139.167-.193-.01a6.054,6.054,0,0,1,.312-1.15,9.973,9.973,0,0,0,1.139-.624c.116-.064.234-.124.352-.186.054-.028.108-.055.156.011a.133.133,0,0,1,.01.146c-.12.341-.232.685-.346,1.028C-419.995,73.133-420,73.2-420.086,73.2Z" transform="translate(422.043 -60.876)" fill="#2a393d"/><path d="M-203.513-50.617c.057.113-.039.139-.1.177q-.528.311-1.06.618c-.082.047-.174.081-.216.177a.188.188,0,0,1-.186.037c-.317-.063-.633-.133-.954-.175a.2.2,0,0,1-.148-.086c-.072-.11,0-.15.085-.2q.6-.339,1.2-.689c.072-.042.165-.071.184-.173a5.134,5.134,0,0,1,1.013.277A1.466,1.466,0,0,1-203.513-50.617Z" transform="translate(225.205 51.344)" fill="#2a393d"/><path d="M-65.273,60.689a9.7,9.7,0,0,1-.9.546c-.082.05-.174.082-.216.179-.068.007-.089-.045-.106-.092-.126-.353-.266-.7-.4-1.051a.23.23,0,0,1-.012-.13,1.17,1.17,0,0,1,.463-.32,3.747,3.747,0,0,1,.675-.364A7.313,7.313,0,0,1-65.273,60.689Z" transform="translate(97.904 -49.535)" fill="#31655f"/><path d="M-378.227,258.82a12.893,12.893,0,0,0-1.2.665,11.8,11.8,0,0,1-.893-.976,1.622,1.622,0,0,1,.531-.347,4.409,4.409,0,0,1,.618-.345c.165.065.247.223.37.335.163.148.316.308.468.467C-378.277,258.674-378.194,258.719-378.227,258.82Z" transform="translate(384.315 -230.809)" fill="#326962"/><path d="M-56.458,161.106a9.959,9.959,0,0,1-.223,1.465c-.411.185-.791.426-1.181.649-.1.058-.209.16-.341.053a.551.551,0,0,1,.034-.341c.063-.293.121-.587.21-.873a.374.374,0,0,1,.173-.166c.349-.179.673-.4,1.026-.577C-56.647,161.26-56.58,161.145-56.458,161.106Z" transform="translate(89.965 -142.428)" fill="#368275"/><path d="M-387.652,247.356a12.518,12.518,0,0,1-1.154.667,8.6,8.6,0,0,1-.8-1.022c.031-.094.117-.131.192-.174.244-.138.488-.276.729-.419a.274.274,0,0,1,.227-.06,4.488,4.488,0,0,1,.65.74C-387.741,247.164-387.62,247.219-387.652,247.356Z" transform="translate(392.805 -220.323)" fill="#31655f"/><path d="M-52.77,121.128a.613.613,0,0,1,.451-.767c.168-.066.308-.2.476-.27a.372.372,0,0,0,.278-.447,5.175,5.175,0,0,1,.081.846c.012.24.006.482.007.722a.488.488,0,0,1-.2.165c-.308.162-.6.353-.907.516a.287.287,0,0,0-.136.236c-.013.064-.026.171-.129.059A2.251,2.251,0,0,1-52.77,121.128Z" transform="translate(85.083 -104.539)" fill="#34786d"/><path d="M-65.217,189.185a7.506,7.506,0,0,0-.986.527,2.116,2.116,0,0,1-.748.359.155.155,0,0,1-.007-.167c.137-.315.261-.636.377-.959a.213.213,0,0,1,.066-.087c.444-.2.854-.468,1.278-.709.1-.058.2-.165.341-.076A6.6,6.6,0,0,1-65.217,189.185Z" transform="translate(97.966 -167.043)" fill="#37887a"/><path d="M-426.641,126.169a3.205,3.205,0,0,0,.674-.352c.158-.076.3-.177.458-.26.059-.032.126-.095.194-.009a.449.449,0,0,1,.064.381c-.052.406.02.809,0,1.213a1.1,1.1,0,0,1-.025.307c-.082.118-.116.037-.131-.039a2.173,2.173,0,0,1-.014-.443c0-.143-.05-.172-.173-.1-.272.165-.543.333-.831.47-.081.039-.184.1-.22-.056Z" transform="translate(426.65 -109.893)" fill="#2c4345"/><path d="M-306.871,309.949a6.727,6.727,0,0,1-1.154-.44c0-.1.069-.143.137-.184.383-.229.781-.432,1.151-.683a.208.208,0,0,1,.105-.026,6.036,6.036,0,0,1,1.146.368c.021.123-.074.169-.154.217-.28.167-.559.334-.843.492A3.2,3.2,0,0,0-306.871,309.949Z" transform="translate(318.251 -277.232)" fill="#368275"/><path d="M-422.591,165.752c-.246.013-.408.2-.616.3s-.385.215-.576.325a7.332,7.332,0,0,1-.263-1.242c.341-.171.666-.373,1-.557.079-.044.165-.149.27-.032.061.319.137.635.195.955C-422.565,165.58-422.525,165.669-422.591,165.752Z" transform="translate(424.278 -145.52)" fill="#2d4c4b"/><path d="M-426.686,140.263c.055.094.121.049.185.013.3-.172.6-.341.9-.517.15-.089.2-.062.2.118a1.409,1.409,0,0,0,.038.608.465.465,0,0,1,.043.4c-.153.192-.4.246-.589.382a4.053,4.053,0,0,1-.443.255c-.079.042-.174.114-.246-.018l-.013-.166c-.043-.1.008-.218-.033-.323A3.656,3.656,0,0,1-426.686,140.263Z" transform="translate(426.696 -122.875)" fill="#2c4647"/><path d="M-118.256-10.106c-.092.234-.347.247-.517.376-.185.14-.418.21-.594.369-.1.025-.142-.059-.2-.105-.2-.152-.379-.325-.574-.482-.053-.043-.135-.073-.111-.17a3.188,3.188,0,0,1,.756-.487c.128-.085.281-.134.361-.281a3.055,3.055,0,0,1,.6.543A.889.889,0,0,0-118.256-10.106Z" transform="translate(146.658 14.749)" fill="#2d4c4b"/><path d="M-83.176,218.4c.507-.221.962-.535,1.447-.8a1.473,1.473,0,0,1,.548-.27,7.3,7.3,0,0,1-.465.983,3.191,3.191,0,0,0-.883.442c-.377.2-.744.422-1.116.632a.372.372,0,0,1-.206.074c-.036-.063,0-.115.029-.164.182-.279.368-.554.541-.838C-83.258,218.428-83.231,218.388-83.176,218.4Z" transform="translate(113.4 -193.816)" fill="#388e7e"/><path d="M-97.585,11.254c.083-.217.317-.231.475-.347a2.764,2.764,0,0,0,.589-.4,6.7,6.7,0,0,1,.717.875c.053.088,0,.142-.067.18a7.3,7.3,0,0,1-.993.556A.157.157,0,0,1-97,12.056c-.183-.219-.369-.436-.547-.66A.141.141,0,0,1-97.585,11.254Z" transform="translate(125.942 -4.798)" fill="#2f5552"/><path d="M-416.349,195.768c.31-.177.619-.357.93-.531a1.863,1.863,0,0,1,.221-.09c.014,0,.034.007.039.018a3.138,3.138,0,0,1,.378,1.046c-.321.217-.661.4-1,.591a.16.16,0,0,1-.186-.007A6.392,6.392,0,0,1-416.349,195.768Z" transform="translate(417.244 -173.536)" fill="#2f5552"/><path d="M-317.592,304.175c-.451.3-.959.506-1.383.847a5.772,5.772,0,0,1-1.032-.485,3,3,0,0,1,.694-.453c.2-.129.414-.248.617-.379a5.037,5.037,0,0,1,1.082.41C-317.594,304.125-317.592,304.152-317.592,304.175Z" transform="translate(329.201 -272.746)" fill="#367f73"/><path d="M-271.353,317.483c-.019.159-.174.171-.271.229-.5.3-1.008.587-1.513.878a4.176,4.176,0,0,1-.928-.179c-.027-.082.03-.129.084-.162.514-.318,1.033-.627,1.565-.916a7.5,7.5,0,0,1,.868.068A.258.258,0,0,1-271.353,317.483Z" transform="translate(287.223 -285.199)" fill="#378a7b"/><path d="M-53.609,148.842c-.113.266-.4.295-.6.433-.272.183-.565.334-.849.5a.105.105,0,0,1-.043-.1,7.574,7.574,0,0,1,.175-1.036c.3-.208.626-.381.947-.558a1.185,1.185,0,0,0,.463-.4A6.787,6.787,0,0,1-53.609,148.842Z" transform="translate(87.115 -130.164)" fill="#367f73"/><path d="M-51.974,138.707a.44.44,0,0,1-.282.361c-.312.164-.613.352-.917.53a.291.291,0,0,1-.169.041.829.829,0,0,1,.051-.755c-.011-.283.181-.4.4-.514.315-.162.621-.339.931-.509A5.91,5.91,0,0,1-51.974,138.707Z" transform="translate(85.57 -121.185)" fill="#357b70"/><path d="M-328.231,299.157c-.114.191-.325.246-.5.35-.264.158-.533.308-.8.461a5.125,5.125,0,0,1-.9-.485c.421-.276.858-.526,1.3-.762a.142.142,0,0,1,.146.013c.2.1.4.187.6.277C-328.314,299.04-328.235,299.063-328.231,299.157Z" transform="translate(338.724 -268.177)" fill="#357b70"/><path d="M-394.6,237.055a2.966,2.966,0,0,0-.658.339c-.172.079-.331.188-.5.284a6.683,6.683,0,0,1-.579-.844.131.131,0,0,1,.057-.092,12.123,12.123,0,0,1,1.055-.6.192.192,0,0,1,.133.105c.141.213.3.418.436.63C-394.615,236.929-394.563,236.981-394.6,237.055Z" transform="translate(398.952 -211.001)" fill="#31615c"/><path d="M-407.685,217.536a6.052,6.052,0,0,1-.5-.977,4.318,4.318,0,0,0,.905-.46c.1-.049.183-.135.307-.086.162.25.29.521.433.781a.177.177,0,0,1,.016.168c-.312.218-.654.386-.982.578A.151.151,0,0,1-407.685,217.536Z" transform="translate(409.779 -192.593)" fill="#2f5a56"/><path d="M-70.382,49.85a8.7,8.7,0,0,1-1.116.666c-.022,0-.051,0-.06-.017a3.352,3.352,0,0,1-.4-.914,5.325,5.325,0,0,1,.8-.5.613.613,0,0,1,.34-.144A5.42,5.42,0,0,1-70.382,49.85Z" transform="translate(102.518 -39.928)" fill="#31615c"/><path d="M-82.656,29.19a5.824,5.824,0,0,1,.512.8c.024.111-.071.136-.135.174q-.468.276-.934.555c-.007,0-.018,0-.022,0a2.18,2.18,0,0,1-.575-.908.428.428,0,0,1,.2-.169c.237-.134.475-.269.708-.41C-82.827,29.189-82.75,29.138-82.656,29.19Z" transform="translate(113.348 -21.855)" fill="#2f5a56"/><path d="M-60.088,178.977a3.887,3.887,0,0,0-.871.448,2.694,2.694,0,0,1-.724.352.111.111,0,0,1-.026-.121c.076-.258.159-.513.242-.769a.136.136,0,0,1,.09-.089c.336-.059.571-.315.87-.445.21-.092.373-.294.633-.266A5.125,5.125,0,0,1-60.088,178.977Z" transform="translate(93.158 -157.945)" fill="#368578"/><path d="M-402.427,227.717a4.226,4.226,0,0,0,.854-.441,1.065,1.065,0,0,1,.3-.137,1.576,1.576,0,0,1,.49.8l-1.116.669a6.542,6.542,0,0,1-.525-.891Z" transform="translate(404.522 -202.774)" fill="#305e59"/><path d="M-77.143,39.484a2.647,2.647,0,0,1,.672-.451,1.587,1.587,0,0,0,.4-.268,5.632,5.632,0,0,1,.5.877c-.369.223-.735.452-1.125.638a.087.087,0,0,1-.1-.036,6.664,6.664,0,0,1-.363-.678A.078.078,0,0,1-77.143,39.484Z" transform="translate(107.277 -30.625)" fill="#305e59"/><path d="M-282,315.646c-.409.3-.868.518-1.3.783a.725.725,0,0,0-.306.242,4.185,4.185,0,0,1-.889-.221c-.06-.129.049-.167.124-.214.267-.168.543-.321.819-.473.181-.1.341-.226.516-.334a6.3,6.3,0,0,1,.974.136.07.07,0,0,1,.047.027A.07.07,0,0,1-282,315.646Z" transform="translate(296.766 -283.46)" fill="#37877a"/><path d="M-292.31,313.115c-.157.263-.457.32-.687.477-.2.135-.415.244-.626.361-.062.034-.11.071-.111.148a4.54,4.54,0,0,1-.888-.274c.062-.217.281-.24.432-.341.309-.208.659-.349.949-.589a.166.166,0,0,1,.165-.028l.642.146C-292.379,313.026-292.313,313.035-292.31,313.115Z" transform="translate(306.002 -281.109)" fill="#368577"/><path d="M-425.6,154.442c.133.079.217-.035.315-.083a6.533,6.533,0,0,1,.922-.5,1.517,1.517,0,0,1,.128.934c-.3.171-.593.347-.9.509-.1.055-.195.165-.337.114a5.779,5.779,0,0,1-.134-.978Z" transform="translate(425.699 -135.809)" fill="#2d4949"/><path d="M-87.642,21.41a12.3,12.3,0,0,0-1.138.63,1.011,1.011,0,0,1-.486-.663c.307-.184.614-.369.922-.552.07-.041.15-.069.15-.171A5.468,5.468,0,0,1-87.642,21.41Z" transform="translate(118.334 -14.075)" fill="#2f5754"/><path d="M-410.364,208.279a7.206,7.206,0,0,0-.916.5c-.094.053-.177.1-.281.034a3.761,3.761,0,0,1-.319-.708,3,3,0,0,0,.789-.407,1.516,1.516,0,0,1,.374-.175A1.275,1.275,0,0,1-410.364,208.279Z" transform="translate(413.16 -184.847)" fill="#2f5754"/><path d="M-426.694,126.871a1.279,1.279,0,0,1-.032.5A1.391,1.391,0,0,1-426.694,126.871Z" transform="translate(426.736 -111.142)" fill="#2c4345"/><path d="M-426.2,154.908c.072.1.025.215.033.323a.619.619,0,0,1-.033-.323Z" transform="translate(426.255 -136.764)" fill="#2d4949"/><path d="M-215.651,333.448c.087-.067.187-.026.281-.031A.442.442,0,0,1-215.651,333.448Z" transform="translate(233.833 -299.89)" fill="#399584"/><path d="M-409.974-18.354l-.352-.756-.4-1.067-.359-1.377a10.719,10.719,0,0,1-.223-1.245l-.129-.934q0-.222,0-.444c.011-.652-.042-1.3,0-1.955a4.512,4.512,0,0,0,.087-.712c.05-.31.09-.622.134-.932.131-.564.231-1.135.4-1.689l.445-1.288c.17-.3.283-.627.428-.939.118-.253.248-.5.372-.75.291-.465.575-.935.876-1.393a5.273,5.273,0,0,1,.59-.786c.387-.456.8-.888,1.2-1.326.482-.523,1.045-.949,1.572-1.418a3.266,3.266,0,0,1,.425-.276,14.966,14.966,0,0,1,2.4-1.379c.019-.008.032-.029.048-.044a14.957,14.957,0,0,1,3.5-1.114,3.058,3.058,0,0,0,.638-.13c.315.005.617-.11.934-.09.067-.05.156.011.222-.043h.4a13.169,13.169,0,0,1,1.644,0,11.233,11.233,0,0,1,1.378.133l1.288.225,1.689.49,1.556.664c.555.258,1.065.6,1.6.891l1.245.888.888.757q.511.556,1.066,1.068a8.965,8.965,0,0,0,.71.846,3.874,3.874,0,0,0,.486.663,7.589,7.589,0,0,0,.58.893,4.978,4.978,0,0,0,.442.8l.444.933.494,1.291.4,1.42.227,1.244a15.017,15.017,0,0,1,.141,1.99c0,.019.02.038.031.056.007.37-.066.738-.036,1.109a7.125,7.125,0,0,0-.051.755l-.173,1.156-.274,1.244-.305.978-.46,1.2-.792,1.558-.675,1.064a20.2,20.2,0,0,1-2.073,2.4c-.5.447-1.009.887-1.553,1.284a15.381,15.381,0,0,1-3.864,2.05c-.035.013-.067.031-.1.046a19.888,19.888,0,0,1-2.4.629c-.591.09-1.182.172-1.778.218-.637-.014-1.274.067-1.911,0l-1.109-.1-1.069-.181-.931-.22-1.152-.357-1.116-.449-.893-.436c-.32-.182-.64-.364-.959-.548-.1-.055-.187-.115-.281-.173l-1.283-.929-.988-.884-.935-.977-.8-.979-.616-.89a8.919,8.919,0,0,0-.49-.8C-409.627-17.754-409.868-18.021-409.974-18.354Z" transform="translate(412.77 41.786)" fill="#192123"/><path d="M-239.309-40.707h-1.644a1.58,1.58,0,0,1,.6-.041c.154-.011.308,0,.463,0C-239.695-40.726-239.5-40.8-239.309-40.707Z" transform="translate(256.956 42.049)" fill="#293237"/><path d="M-247.955-40.178c-.063.072-.147.034-.222.043C-248.114-40.208-248.03-40.168-247.955-40.178Z" transform="translate(263.558 41.52)" fill="#293237"/><path d="M-308.785,93.552a.854.854,0,0,1-.928.034c-.215-.707-.376-1.429-.57-2.141-.494-1.81-.969-3.625-1.456-5.438a.622.622,0,0,1-.026-.3c.005-.059.049-.089.09-.121a8.857,8.857,0,0,1,1.458-.4,2.3,2.3,0,0,1,.3-.066.533.533,0,0,1,.277.546c.155-.292.184-.67.587-.754a3.059,3.059,0,0,0,.368-.07.164.164,0,0,1,.1.027.374.374,0,0,1,.1.217q.63,2.681,1.274,5.359a.716.716,0,0,1,.03.175,1.613,1.613,0,0,1-.284.616c-.382.7-.758,1.4-1.152,2.09A1.086,1.086,0,0,1-308.785,93.552Z" transform="translate(321.677 -72.73)" fill="#1fc8a7"/><path d="M-241.068,149.557a.372.372,0,0,1-.169.175,5.6,5.6,0,0,1-1.111.3c-1.541.364-3.081.733-4.623,1.094-.756.177-1.511.362-2.269.534a.413.413,0,0,1-.24.012c-.109-.079-.031-.159.006-.231.29-.566.609-1.116.915-1.672.538-.978,1.07-1.958,1.615-2.931.1-.181.153-.4.361-.513a1.826,1.826,0,0,1,.582.261c.965.527,1.933,1.051,2.9,1.579.641.351,1.293.68,1.917,1.062A1.239,1.239,0,0,1-241.068,149.557Z" transform="translate(264.799 -128.92)" fill="#1fc8a7"/><path d="M-269.729,187.791c.676-.118,1.336-.3,2-.458,2.037-.476,4.072-.962,6.109-1.443a.941.941,0,0,1,.154-.011,11.31,11.31,0,0,1-1.21.772q-3.5,2.156-7.005,4.3c-.277.17-.552.343-.831.51a.849.849,0,0,1-1.137-.171c-.05-.071,0-.127.031-.183.581-1.062,1.162-2.125,1.752-3.182C-269.831,187.87-269.8,187.806-269.729,187.791Z" transform="translate(285.024 -165.067)" fill="#198889"/><path d="M-284.074,31.677h-.092c-.046.03-.082.024-.1-.032-.122-.028.171-.032,0-.087-.246-.08-.519-.139-.63-.426-.021-.054-.055-.105-.022-.166.569-.342,1.14-.681,1.707-1.028q2.561-1.57,5.119-3.144a.888.888,0,0,1,1.214.166,10.932,10.932,0,0,1-.631,1.2c-.373.69-.755,1.374-1.132,2.062a.62.62,0,0,1-.2.258q-1.021.289-2.064.486c-.2.055-.41.111-.617.157-.357.094-.713.188-1.076.258q-.6.131-1.189.278A.461.461,0,0,1-284.074,31.677Z" transform="translate(297.146 -19.534)" fill="#198889"/><path d="M-272.263,102.774l-1.917,3.5a.751.751,0,0,1-.235-.759q.251-1.052.507-2.1a1.066,1.066,0,0,1,.159-.338l6.612-9.934a.637.637,0,0,1,.291-.294c.047.1-.021.171-.059.246-.2.4-.433.79-.647,1.187a2.1,2.1,0,0,0-.166.361,6.951,6.951,0,0,0-.427.722c-.195.34-.383.683-.562,1.031-.171.323-.363.634-.527.96a.226.226,0,0,1-.1.114,4.379,4.379,0,0,0-.474.8c-.822,1.478-1.633,2.962-2.447,4.445A.205.205,0,0,0-272.263,102.774Z" transform="translate(287.558 -80.05)" fill="#68fde1"/><path d="M-271.651,33.972c.536-.97,1.069-1.942,1.61-2.91a2.147,2.147,0,0,1,.344-.56.928.928,0,0,1,.17.875c-.166.648-.321,1.3-.481,1.947a1.142,1.142,0,0,1-.169.357q-3.3,4.96-6.6,9.922a.649.649,0,0,1-.293.292l1.38-2.528a1.841,1.841,0,0,0,.184-.377,6.229,6.229,0,0,1,.529-1.046c.161-.308.336-.609.5-.917.285-.462.532-.946.795-1.421.176-.329.352-.659.535-.984.409-.716.8-1.443,1.2-2.165A2.375,2.375,0,0,1-271.651,33.972Z" transform="translate(289.965 -23.074)" fill="#68fde1"/><path d="M-174.343,100.291c-.128-.066-.092-.2-.13-.307a5.2,5.2,0,0,1-.337-1.086,4.592,4.592,0,0,0-.193-.605c-.1-.5-.274-.989-.373-1.493a9.639,9.639,0,0,0-.324-1.164q-.391-1.468-.777-2.937c-.025-.1-.1-.21.046-.282a.791.791,0,0,1,.389.405q1.175,2.373,2.348,4.747a.738.738,0,0,1,.072.575C-173.856,98.861-174.065,99.588-174.343,100.291Z" transform="translate(198.073 -79.655)" fill="#68fde1"/><path d="M-319.765,94.882l.783,2.907q.623,2.331,1.239,4.665c.026.1.115.2.03.31a.789.789,0,0,1-.362-.374q-1.171-2.365-2.346-4.728a.968.968,0,0,1-.05-.77c.194-.585.383-1.173.578-1.757A.5.5,0,0,1-319.765,94.882Z" transform="translate(329.677 -81.908)" fill="#68fde1"/><path d="M-194.914,91.121c-.07.066-.026.134-.007.2q.386,1.451.771,2.9c.009.034.029.07,0,.1a.284.284,0,0,1-.227-.06c-.747-.4-1.488-.809-2.235-1.207-.052-.028-.105-.056-.118-.122-.054-.152.069-.246.126-.357.245-.48.542-.933.763-1.427A.841.841,0,0,1-194.914,91.121Z" transform="translate(216.556 -78.36)" fill="#1fc8a7"/><path d="M-296.17,73.064c.078.355.378.444.662.547.133.048.108.081,0,.125-.075.092-.191.084-.288.122a.575.575,0,0,0-.378.4c-.048.114-.094.229-.148.359a3.763,3.763,0,0,0-.284-.586,2.427,2.427,0,0,1-.625-.331c-.026-.031-.018-.048.02-.057a1.062,1.062,0,0,0,.867-.948Z" transform="translate(308.398 -61.63)" fill="#fdfefe"/><path d="M-309.459,84.363a1.561,1.561,0,0,1,.625.331,2.933,2.933,0,0,1-.771.219c-.335.1-.681.158-1.022.235a10.8,10.8,0,0,1,1.018-.661C-309.555,84.45-309.488,84.43-309.459,84.363Z" transform="translate(320.629 -72.296)" fill="#19898a"/><path d="M-272.523,85.3c-.179.438-.443.831-.659,1.249-.125.241-.27.472-.405.707l-1.345-5.646c-.01-.043-.026-.085-.039-.127.48-.15.972-.249,1.462-.355a.4.4,0,0,1,.129.25q.442,1.83.871,3.663A.341.341,0,0,1-272.523,85.3Z" transform="translate(288.044 -69.336)" fill="#a4e8db"/><path d="M-280.4,84.923a.733.733,0,0,1,.289-.123l.087.038A.667.667,0,0,1-280.4,84.923Z" transform="translate(293.005 -72.695)" fill="#2aa197"/><path d="M-210.246,135.788a2.207,2.207,0,0,1,.238.743c.09.315.165.633.247.95l-2.066-1.113q-1.655-.9-3.308-1.8c.144-.395.4-.732.58-1.108.1-.045.172.013.248.056,1.288.713,2.585,1.41,3.88,2.112A.407.407,0,0,1-210.246,135.788Z" transform="translate(233.362 -117.152)" fill="#a4e8db"/><path d="M-220.475,203.353a.558.558,0,0,0,.4-.464.58.58,0,0,0,.484.46.552.552,0,0,0-.475.462A.558.558,0,0,0-220.475,203.353Z" transform="translate(238.242 -180.613)" fill="#f9fbfb"/><path d="M-257.012,82.521c-.15-.646-.3-1.292-.45-1.937-.176-.746-.357-1.49-.536-2.235l1.071-.262a.387.387,0,0,1,.1.216c.2.831.393,1.662.595,2.491a.548.548,0,0,1,.02.3,11.484,11.484,0,0,1-.8,1.422Z" transform="translate(272.533 -66.561)" fill="#1fc8a7"/><path d="M-236.263,70.787a8.553,8.553,0,0,1-.512.975c-.27.507-.549,1.01-.826,1.513a1.854,1.854,0,0,1-.126.178c-.1-.061-.109-.171-.131-.268-.11-.48-.227-.958-.338-1.437a2.7,2.7,0,0,0-.153-.482Z" transform="translate(254.577 -59.889)" fill="#1fc8a7"/><path d="M-244.94,76.362c.11,0,.117.086.136.168.16.673.323,1.346.486,2.018l-.529.973c-.257-1-.5-2-.715-3.011Z" transform="translate(261.167 -64.984)" fill="#a4e8db"/><path d="M-204.1,125.1l-4.07-2.211c-.077-.042-.16-.076-.239-.114.192-.34.353-.7.576-1.019.139-.025.24.064.346.123.937.523,1.888,1.02,2.826,1.541a.442.442,0,0,1,.2.167c.111.439.222.878.331,1.318a1.943,1.943,0,0,1,.029.194Z" transform="translate(227.214 -106.463)" fill="#1fc8a7"/><path d="M-198.345,116.107l-3.373-1.831a2.127,2.127,0,0,1,.442-.709l2.58,1.39a2.76,2.76,0,0,1,.253.745,2.835,2.835,0,0,1,.1.405Z" transform="translate(221.1 -98.983)" fill="#a4e8db"/><path d="M-252.94,88.986a.543.543,0,0,0,.462-.456.549.549,0,0,0,.459.447c-.236.085-.4.187-.449.422A.594.594,0,0,0-252.94,88.986Z" transform="translate(267.91 -76.104)" fill="#fafdfc"/></g></g></g></svg>