<svg width="99" height="18" viewBox="0 0 99 18" xmlns="http://www.w3.org/2000/svg" class="main-logo" data-v-0c3bc393="">
    <path fill-rule="evenodd" clip-rule="evenodd"
        d="M0 17.995l17.291-14.4a2.05 2.05 0 10-2.894-2.89L0 17.995zM8.34 2.657l-7.28 5.46L6.52.837a1.3 1.3 0 111.82 1.82zm8.816 8.816l-7.28 5.46 5.46-7.28a1.3 1.3 0 111.82 1.82zM27.645 9c0-2.378 2.02-4.436 4.822-4.436 1.389 0 2.629.506 3.511 1.303a.131.131 0 00.183-.006l1.687-1.768a.127.127 0 00-.005-.18c-1.393-1.284-3.306-2.05-5.376-2.05-4.145 0-7.523 3.124-7.523 7.137s3.378 7.137 7.523 7.137c1.843 0 3.664-.618 5.013-1.678l.467-.367a.129.129 0 00.05-.1V7.97a.129.129 0 00-.13-.128h-3.416a.129.129 0 00-.093.04l-2.185 2.315a.129.129 0 00.093.216h2.901c.071 0 .129.058.129.13v2.067a.127.127 0 01-.064.111 5.706 5.706 0 01-2.765.714c-2.801 0-4.822-2.058-4.822-4.436zM73.55 2.185h-3.026a.129.129 0 00-.103.205l4.932 6.617a.129.129 0 010 .154l-4.927 6.448a.129.129 0 00.102.206h3.276c.04 0 .078-.019.103-.051l3.139-4.21a.129.129 0 01.206 0l3.138 4.21a.129.129 0 00.104.051h3.275a.129.129 0 00.103-.206L78.946 9.16a.129.129 0 010-.154l4.931-6.617a.129.129 0 00-.103-.205h-3.026a.129.129 0 00-.102.05l-3.394 4.442a.129.129 0 01-.204 0l-3.395-4.442a.129.129 0 00-.102-.05zm-23.872 0h-2.92c-.05 0-.096.03-.117.076l-5.93 13.373a.129.129 0 00.118.181h2.804c.051 0 .098-.03.118-.077l1.133-2.623h6.668l1.134 2.623c.02.047.066.077.118.077h2.803a.129.129 0 00.118-.18L49.796 2.26a.128.128 0 00-.117-.076zm.819 8.487H45.94l2.16-5a.129.129 0 01.236 0l2.16 5zm8.454-8.487a.129.129 0 00-.128.128v13.374c0 .07.057.128.128.128h7.525c.04 0 .076-.018.1-.049l1.727-2.186a.129.129 0 00-.101-.208H61.91V2.313a.129.129 0 00-.129-.128h-2.829zm39.228 0c.07 0 .126.056.126.126v2.186c0 .07-.056.126-.126.126h-7.978a.126.126 0 00-.126.126v2.84c0 .069.056.125.126.125h7.463c.07 0 .126.057.126.126v2.187c0 .07-.056.126-.126.126h-7.463a.126.126 0 00-.126.126v2.972c0 .07.056.126.126.126h8.235c.07 0 .126.056.126.126v2.186c0 .07-.057.126-.126.126h-11.32a.126.126 0 01-.127-.126v-.882V3.195c0-.001 0-.002.002-.002a.002.002 0 00.002-.003v-.88c0-.07.056-.126.126-.126h11.06z"
        data-v-0c3bc393=""></path>
</svg>