<svg width="250" height="250" viewBox="0 0 250 250" fill="none" xmlns="http://www.w3.org/2000/svg">
<g clip-path="url(#clip0_28_599)">
<circle cx="125" cy="125" r="125" fill="#101124"/>
<path d="M86.3876 30L87.1165 32.4772V104.361L86.3876 105.089L53.0199 85.3651L86.3876 30Z" fill="white"/>
<path d="M86.3873 30L119.755 85.3651L86.3873 105.089V30Z" fill="white"/>
<path d="M86.3876 111.407L86.7983 111.907V137.514L86.3876 138.714L53.0001 91.6931L86.3876 111.407Z" fill="white"/>
<path d="M86.3874 138.713V111.406L119.755 91.6925L86.3874 138.713Z" fill="white"/>
<path d="M86.3876 105.089L53.0204 85.3654L86.3876 70.1989V105.089Z" fill="white"/>
<path d="M119.755 85.3654L86.3876 105.089V70.1989L119.755 85.3654Z" fill="white"/>
<path d="M197.989 204.255L143.794 125.007L89.2505 204.255H165.193L143.794 174.026L133.094 189.902H121.698L143.794 158.194L175.502 204.255H197.989Z" fill="white"/>
</g>
<defs>
<clipPath id="clip0_28_599">
<rect width="250" height="250" fill="white"/>
</clipPath>
</defs>
</svg>
