<svg width="80" height="81" viewBox="0 0 80 81" fill="none" xmlns="http://www.w3.org/2000/svg">
<path fill-rule="evenodd" clip-rule="evenodd" d="M28.6607 48.7128C29.2824 49.5697 29.4342 50.7134 28.9049 51.6302L23.6559 60.7217C17.7659 55.9552 14 48.6674 14 40.5C14 26.1406 25.6406 14.5 40 14.5C43.2934 14.5 46.4438 15.1124 49.3436 16.2294L44.0922 25.3251C43.5633 26.2412 42.4981 26.6817 41.4459 26.5738C40.9705 26.525 40.4882 26.5 40 26.5C32.268 26.5 26 32.768 26 40.5C26 43.5682 26.987 46.4058 28.6607 48.7128ZM51.3653 12.7277C47.86 11.2917 44.0224 10.5 40 10.5C23.4315 10.5 10 23.9315 10 40.5C10 50.1498 14.556 58.7354 21.6343 64.2232L17.9284 70.6421C17.2173 71.8738 15.5925 72.2246 14.4973 71.3172C5.64135 63.9803 -2.29043e-06 52.8989 0 40.5C0 18.4086 17.9086 0.499999 40 0.5C44.9047 0.5 49.6033 1.38277 53.9455 2.9981C55.2771 3.4935 55.7838 5.07454 55.0734 6.30502L51.3653 12.7277ZM56.3441 20.2784L51.0951 29.3699C50.5658 30.2867 50.7176 31.4304 51.3393 32.2873C53.013 34.5942 54 37.4319 54 40.5C54 48.232 47.732 54.5 40 54.5C39.5118 54.5 39.0295 54.4751 38.5542 54.4263C37.5019 54.3183 36.4368 54.7589 35.9079 55.675L30.6565 64.7707C33.5562 65.8877 36.7066 66.5 40 66.5C54.3594 66.5 66 54.8594 66 40.5C66 32.3327 62.2342 25.0449 56.3441 20.2784ZM28.6348 68.2724C32.1401 69.7084 35.9776 70.5 40 70.5C56.5685 70.5 70 57.0686 70 40.5C70 30.8503 65.444 22.2647 58.3657 16.7769L62.0717 10.358C62.7828 9.12629 64.4076 8.77553 65.5027 9.68287C74.3587 17.0198 80 28.1011 80 40.5C80 62.5914 62.0914 80.5 40 80.5C35.0953 80.5 30.3967 79.6173 26.0546 78.002C24.7229 77.5066 24.2162 75.9255 24.9267 74.6951L28.6348 68.2724Z" fill="#0078C2"/>
</svg>
