<svg width="148" height="27" viewBox="0 0 718 146" fill="none" xmlns="http://www.w3.org/2000/svg">
<path d="M204.32 113.24C200.278 111.116 196.95 107.851 194.75 103.85C192.436 99.5349 191.275 94.6954 191.38 89.8V55.2C191.286 50.3441 192.447 45.546 194.75 41.27C196.953 37.2741 200.281 34.0126 204.32 31.89C208.792 29.7118 213.701 28.5797 218.675 28.5797C223.649 28.5797 228.558 29.7118 233.03 31.89C237.078 34.0217 240.423 37.2794 242.66 41.27C245.005 45.5329 246.191 50.3358 246.1 55.2V89.8C246.204 94.7038 245.018 99.5488 242.66 103.85C240.426 107.846 237.081 111.108 233.03 113.24C228.558 115.418 223.649 116.55 218.675 116.55C213.701 116.55 208.792 115.418 204.32 113.24ZM228.25 100.42C230.719 97.6892 232.019 94.0987 231.87 90.42V54.83C232.033 51.1132 230.733 47.4804 228.25 44.71C227.011 43.4176 225.509 42.4047 223.847 41.739C222.184 41.0733 220.399 40.7702 218.61 40.85C216.851 40.7742 215.097 41.08 213.467 41.7463C211.838 42.4126 210.372 43.4236 209.17 44.71C206.717 47.4946 205.441 51.1229 205.61 54.83V90.42C205.455 94.0889 206.732 97.6744 209.17 100.42C210.374 101.704 211.84 102.714 213.469 103.38C215.098 104.046 216.852 104.353 218.61 104.28C220.399 104.357 222.183 104.053 223.845 103.387C225.508 102.722 227.009 101.71 228.25 100.42Z" fill="#FFFFFF"/>
<path d="M306 84.28C306.025 88.7636 305.657 93.2407 304.9 97.66C302.367 110.167 295.733 116.423 285 116.43C279.267 116.43 274.973 114.59 272.12 110.91C271.95 110.66 271.79 110.56 271.63 110.6C271.47 110.64 271.38 110.78 271.38 111.03V137.16C271.384 137.355 271.348 137.549 271.274 137.729C271.2 137.91 271.09 138.074 270.95 138.21C270.686 138.479 270.327 138.633 269.95 138.64H258.65C258.456 138.64 258.264 138.602 258.085 138.527C257.906 138.453 257.744 138.343 257.607 138.206C257.47 138.068 257.362 137.905 257.289 137.726C257.216 137.546 257.179 137.354 257.18 137.16V54.22C257.18 53.8301 257.335 53.4562 257.611 53.1805C257.886 52.9049 258.26 52.75 258.65 52.75H269.94C270.127 52.7513 270.312 52.79 270.483 52.8638C270.655 52.9377 270.81 53.0452 270.94 53.18C271.075 53.3092 271.183 53.4643 271.257 53.6362C271.331 53.808 271.369 53.993 271.37 54.18V57.37C271.358 57.4673 271.375 57.566 271.42 57.6534C271.464 57.7407 271.534 57.8127 271.62 57.86C271.78 57.94 271.94 57.86 272.11 57.61C275.21 53.69 279.667 51.73 285.48 51.73C290.553 51.73 294.663 53.2833 297.81 56.39C300.957 59.4967 303.227 64.1633 304.62 70.39C305.571 74.958 306.034 79.6142 306 84.28ZM291.65 84.16C291.781 80.0337 291.367 75.9082 290.42 71.89C288.953 66.5567 285.927 63.89 281.34 63.89C276.92 63.89 274.057 66.51 272.75 71.75C271.799 75.8083 271.386 79.974 271.52 84.14C271.52 89.62 271.97 93.79 272.87 96.65C274.203 101.643 276.987 104.14 281.22 104.14C285.453 104.14 288.437 101.727 290.17 96.9C291.281 92.7479 291.783 88.4564 291.66 84.16H291.65Z" fill="#FFFFFF"/>
<path d="M363.68 82.93L363.56 88.21C363.589 88.4107 363.57 88.6152 363.506 88.8073C363.441 88.9995 363.333 89.174 363.189 89.3168C363.045 89.4596 362.87 89.5668 362.678 89.6299C362.485 89.693 362.28 89.7101 362.08 89.68H329.2C329.117 89.6684 329.033 89.6761 328.953 89.7027C328.874 89.7292 328.802 89.7738 328.743 89.8329C328.684 89.8921 328.639 89.9641 328.613 90.0435C328.586 90.1228 328.578 90.2072 328.59 90.29C328.75 92.58 328.91 94.29 329.08 95.29C329.391 97.8058 330.611 100.121 332.51 101.8C334.499 103.468 337.035 104.341 339.63 104.25C341.831 104.247 343.984 103.608 345.83 102.41C347.544 101.216 348.883 99.5576 349.69 97.63C349.74 97.4405 349.828 97.2632 349.95 97.109C350.071 96.9548 350.222 96.827 350.394 96.7334C350.567 96.6397 350.756 96.5822 350.951 96.5645C351.147 96.5467 351.344 96.569 351.53 96.63L361.59 98.72C362.59 99.05 362.9 99.66 362.59 100.56C361.188 105.303 358.225 109.434 354.18 112.28C349.873 115.117 344.794 116.553 339.64 116.39C332.853 116.39 327.413 114.753 323.32 111.48C319.113 108.041 316.275 103.209 315.32 97.86C314.896 95.5473 314.629 93.2087 314.52 90.86C314.4 88.4 314.33 85.13 314.33 81.04C314.261 77.7982 314.468 74.5565 314.95 71.35C315.551 65.7813 318.277 60.659 322.56 57.05C326.813 53.49 332.21 51.7133 338.75 51.72C345.87 51.72 351.617 53.72 355.99 57.72C360.363 61.72 362.797 66.9967 363.29 73.55C363.56 76.31 363.68 79.41 363.68 82.93ZM332.21 66.43C330.395 68.1218 329.243 70.4051 328.96 72.87C328.697 74.9026 328.574 76.9506 328.59 79C328.577 79.0836 328.583 79.1691 328.609 79.2498C328.634 79.3304 328.679 79.4039 328.738 79.4643C328.798 79.5246 328.87 79.5701 328.95 79.5972C329.031 79.6242 329.116 79.6321 329.2 79.62H348.71C348.794 79.6321 348.879 79.6242 348.959 79.5972C349.04 79.5701 349.112 79.5246 349.172 79.4643C349.231 79.4039 349.275 79.3304 349.301 79.2498C349.327 79.1691 349.333 79.0836 349.32 79C349.16 76.22 348.997 74.22 348.83 73C348.61 70.5125 347.473 68.1957 345.64 66.5C343.758 64.9281 341.387 64.062 338.936 64.051C336.484 64.0401 334.105 64.885 332.21 66.44V66.43Z" fill="#FFFFFF"/>
<path d="M415.56 57.4099C418.894 61.1699 420.56 66.3633 420.56 72.99V113.99C420.562 114.184 420.524 114.376 420.451 114.556C420.378 114.735 420.27 114.898 420.133 115.036C419.997 115.173 419.834 115.283 419.655 115.357C419.476 115.432 419.284 115.47 419.09 115.47H407.8C407.605 115.471 407.412 115.434 407.232 115.36C407.052 115.286 406.888 115.177 406.751 115.039C406.613 114.902 406.504 114.738 406.43 114.558C406.356 114.378 406.319 114.185 406.32 113.99V75C406.486 72.1165 405.594 69.2717 403.81 67C402.976 66.0168 401.93 65.2359 400.75 64.7162C399.571 64.1965 398.288 63.9516 397 64C395.684 63.951 394.374 64.1946 393.163 64.7134C391.953 65.2322 390.872 66.0132 390 67C388.163 69.2496 387.223 72.0989 387.36 75V114C387.361 114.195 387.324 114.388 387.25 114.568C387.176 114.748 387.067 114.912 386.93 115.049C386.792 115.187 386.628 115.296 386.448 115.37C386.268 115.444 386.075 115.481 385.88 115.48H374.58C374.385 115.483 374.192 115.446 374.011 115.372C373.831 115.298 373.667 115.189 373.53 115.05C373.261 114.786 373.106 114.427 373.1 114.05V54.2199C373.101 54.0329 373.139 53.848 373.213 53.6761C373.287 53.5043 373.395 53.3491 373.53 53.2199C373.666 53.0795 373.829 52.9687 374.01 52.8947C374.191 52.8207 374.385 52.785 374.58 52.79H385.86C386.054 52.7886 386.246 52.8257 386.426 52.899C386.605 52.9722 386.769 53.0803 386.906 53.217C387.044 53.3536 387.153 53.5161 387.227 53.6951C387.302 53.8741 387.34 54.0661 387.34 54.26V57.45C387.328 57.5461 387.345 57.6436 387.387 57.7306C387.43 57.8176 387.497 57.8903 387.58 57.94C387.74 58.02 387.91 57.94 388.07 57.69C391.337 53.77 395.837 51.81 401.57 51.81C407.537 51.7833 412.2 53.6499 415.56 57.4099Z" fill="#FFFFFF"/>
<path d="M454.68 115C454.41 114.736 454.256 114.377 454.25 114V31.0001C454.251 30.813 454.289 30.628 454.363 30.4562C454.437 30.2844 454.545 30.1292 454.68 30.0001C454.81 29.8652 454.965 29.7578 455.136 29.6839C455.308 29.61 455.493 29.5713 455.68 29.5701H481.08C489.007 29.5701 495.367 31.7767 500.16 36.1901C504.953 40.6034 507.347 46.4934 507.34 53.86V91.16C507.34 98.4934 504.947 104.383 500.16 108.83C495.373 113.277 489.013 115.487 481.08 115.46H455.68C455.299 115.445 454.939 115.28 454.68 115ZM469.1 103.16L481.24 103.03C482.832 103.094 484.418 102.802 485.884 102.176C487.349 101.55 488.656 100.605 489.71 99.41C491.837 97.0034 492.983 93.7134 493.15 89.54V55.4501C493.15 51.2701 492.063 47.9567 489.89 45.5101C488.812 44.2924 487.477 43.3302 485.98 42.6936C484.484 42.0571 482.865 41.762 481.24 41.83H469.1C469.016 41.8166 468.931 41.8231 468.85 41.8488C468.77 41.8746 468.696 41.919 468.636 41.9783C468.575 42.0377 468.53 42.1104 468.503 42.1906C468.476 42.2708 468.468 42.3563 468.48 42.4401V102.56C468.468 102.644 468.476 102.73 468.504 102.81C468.531 102.891 468.576 102.964 468.636 103.024C468.696 103.084 468.769 103.13 468.85 103.157C468.93 103.184 469.016 103.192 469.1 103.18V103.16Z" fill="#FFFFFF"/>
<path d="M524.78 111.09C520.469 107.436 517.707 102.282 517.05 96.6701C516.367 92.4951 516.032 88.2705 516.05 84.0401C516.026 79.7231 516.361 75.4117 517.05 71.1501C517.727 65.5921 520.543 60.5166 524.9 57.0001C529.227 53.5201 534.667 51.7834 541.22 51.7901C547.773 51.7967 553.13 53.5334 557.29 57.0001C561.56 60.5085 564.325 65.5176 565.02 71.0001C566.282 79.4568 566.326 88.0509 565.15 96.5201C564.237 102.66 561.66 107.507 557.42 111.06C553.18 114.613 547.74 116.393 541.1 116.4C534.473 116.42 529.033 114.65 524.78 111.09ZM547.91 101.46C549.808 99.5377 550.997 97.027 551.28 94.3401C551.61 90.0901 551.77 86.6501 551.77 84.0401C551.77 81.4301 551.61 77.8601 551.28 73.6101C551.014 70.9532 549.821 68.4748 547.91 66.6101C546.065 64.8927 543.619 63.9696 541.1 64.0401C539.842 63.9917 538.586 64.1941 537.407 64.6353C536.228 65.0765 535.148 65.7478 534.23 66.6101C532.345 68.4877 531.171 70.9623 530.91 73.6101C530.552 77.0748 530.388 80.557 530.42 84.0401C530.381 87.48 530.545 90.9193 530.91 94.3401C531.186 97.0187 532.356 99.5265 534.23 101.46C535.129 102.357 536.203 103.059 537.385 103.523C538.566 103.988 539.831 104.205 541.1 104.16C542.358 104.19 543.61 103.966 544.78 103.502C545.949 103.039 547.014 102.344 547.91 101.46Z" fill="#FFFFFF"/>
<path d="M576 115C575.73 114.736 575.576 114.377 575.57 114V31C575.57 30.6102 575.725 30.2362 576 29.9606C576.276 29.6849 576.65 29.53 577.04 29.53H588.33C588.517 29.5313 588.702 29.57 588.873 29.6439C589.045 29.7177 589.2 29.8252 589.33 29.96C589.465 30.0892 589.573 30.2444 589.647 30.4162C589.721 30.588 589.759 30.773 589.76 30.96V114C589.754 114.377 589.599 114.736 589.33 115C589.066 115.269 588.707 115.423 588.33 115.43H577C576.623 115.424 576.263 115.27 576 115Z" fill="#FFFFFF"/>
<path d="M601.27 115C601 114.736 600.846 114.377 600.84 114V31C600.84 30.6102 600.995 30.2362 601.27 29.9606C601.546 29.6849 601.92 29.53 602.31 29.53H613.6C613.787 29.5313 613.972 29.57 614.143 29.6439C614.315 29.7177 614.47 29.8252 614.6 29.96C614.735 30.0892 614.843 30.2444 614.917 30.4162C614.991 30.588 615.029 30.773 615.03 30.96V114C615.024 114.377 614.869 114.736 614.6 115C614.336 115.269 613.977 115.423 613.6 115.43H602.31C602.117 115.432 601.925 115.396 601.746 115.322C601.567 115.248 601.405 115.138 601.27 115Z" fill="#FFFFFF"/>
<path d="M661.25 54.4001C664.673 56.0108 667.584 58.5373 669.66 61.7001C671.683 64.89 672.726 68.6033 672.66 72.3801V114C672.661 114.194 672.624 114.386 672.551 114.566C672.478 114.745 672.37 114.908 672.233 115.046C672.096 115.184 671.934 115.293 671.755 115.367C671.576 115.442 671.384 115.48 671.19 115.48H659.9C659.523 115.473 659.164 115.319 658.9 115.05C658.63 114.786 658.476 114.427 658.47 114.05V110.99C658.483 110.894 658.467 110.796 658.425 110.709C658.382 110.621 658.314 110.549 658.23 110.5C658.147 110.461 658.053 110.451 657.964 110.473C657.875 110.495 657.795 110.547 657.74 110.62C654.3 114.54 649.35 116.503 642.89 116.51C637.948 116.659 633.102 115.122 629.15 112.15C625.383 109.25 623.5 104.527 623.5 97.98C623.5 91.1134 625.69 86.0001 630.07 82.6401C634.45 79.2801 640.483 77.6134 648.17 77.6401H657.86C657.943 77.6517 658.027 77.644 658.107 77.6174C658.186 77.5909 658.258 77.5463 658.317 77.4872C658.376 77.428 658.421 77.3559 658.447 77.2766C658.474 77.1973 658.482 77.1129 658.47 77.0301V73.9601C658.612 71.3296 657.71 68.7494 655.96 66.7801C655.061 65.8522 653.977 65.1248 652.777 64.6457C651.578 64.1666 650.291 63.9465 649 64.0001C646.93 63.9127 644.887 64.491 643.17 65.6501C641.68 66.7274 640.652 68.3273 640.29 70.1301C640.22 70.5272 640.005 70.8845 639.688 71.1335C639.37 71.3826 638.972 71.5059 638.57 71.48L626.67 70.74C626.483 70.7388 626.298 70.7001 626.126 70.6262C625.955 70.5524 625.8 70.4449 625.67 70.31C625.538 70.2009 625.439 70.0568 625.384 69.8943C625.329 69.7317 625.321 69.5571 625.36 69.3901C625.573 66.8597 626.337 64.4064 627.598 62.2023C628.859 59.9981 630.587 58.0963 632.66 56.6301C637.04 53.3634 642.46 51.73 648.92 51.73C653.18 51.6705 657.397 52.5837 661.25 54.4001ZM654.87 102.13C656.007 101.289 656.924 100.187 657.544 98.9159C658.163 97.645 658.468 96.2435 658.43 94.8301V88.4501C658.442 88.3672 658.434 88.2828 658.407 88.2035C658.381 88.1242 658.336 88.0521 658.277 87.993C658.218 87.9338 658.146 87.8892 658.067 87.8627C657.987 87.8361 657.903 87.8284 657.82 87.8401H649.6C646 87.8401 643.15 88.62 641.07 90.17C640.033 90.9509 639.205 91.9755 638.659 93.1529C638.113 94.3304 637.866 95.6243 637.94 96.92C637.857 98.036 638.029 99.1562 638.443 100.196C638.857 101.235 639.502 102.167 640.33 102.92C642.087 104.315 644.289 105.025 646.53 104.92C649.547 104.97 652.49 103.985 654.87 102.13Z" fill="#FFFFFF"/>
<path d="M716.59 53.48C716.912 53.6489 717.163 53.9267 717.298 54.2639C717.434 54.601 717.445 54.9754 717.33 55.32L715.24 66.49C715.16 67.49 714.58 67.76 713.52 67.35C712.342 66.9181 711.094 66.7079 709.84 66.73C708.979 66.7599 708.121 66.8434 707.27 66.98C705.911 67.0907 704.591 67.4863 703.395 68.1411C702.2 68.7958 701.155 69.695 700.33 70.78C698.436 73.2339 697.46 76.2724 697.57 79.37V114C697.571 114.194 697.534 114.386 697.461 114.566C697.388 114.745 697.28 114.908 697.143 115.046C697.006 115.183 696.844 115.293 696.665 115.367C696.486 115.442 696.294 115.48 696.1 115.48H684.81C684.616 115.48 684.424 115.442 684.245 115.367C684.066 115.293 683.904 115.183 683.767 115.046C683.63 114.908 683.522 114.745 683.449 114.566C683.376 114.386 683.339 114.194 683.34 114V54.22C683.34 53.8301 683.495 53.4562 683.771 53.1805C684.046 52.9049 684.42 52.75 684.81 52.75H696.1C696.49 52.75 696.864 52.9049 697.139 53.1805C697.415 53.4562 697.57 53.8301 697.57 54.22V59.5C697.57 59.82 697.63 60.01 697.76 60.05C697.89 60.09 698.02 59.99 698.19 59.74C701.13 54.5933 705.26 52.0167 710.58 52.01C712.678 51.9625 714.751 52.4695 716.59 53.48Z" fill="#FFFFFF"/>
<path d="M73.07 0.689941C58.7685 0.689941 44.7881 4.93085 32.8968 12.8764C21.0055 20.8219 11.7373 32.1152 6.26432 45.3281C0.79135 58.541 -0.640642 73.0802 2.14946 87.1069C4.93955 101.134 11.8264 114.018 21.9391 124.131C32.0519 134.244 44.9363 141.13 58.9631 143.921C72.9898 146.711 87.5289 145.279 100.742 139.806C113.955 134.333 125.248 125.065 133.194 113.173C141.139 101.282 145.38 87.3015 145.38 72.9999C145.377 53.8229 137.758 35.4322 124.198 21.872C110.638 8.3118 92.247 0.692593 73.07 0.689941ZM73.07 126.51C62.4844 126.51 52.1364 123.371 43.3349 117.49C34.5333 111.608 27.6735 103.249 23.623 93.4689C19.5725 83.6888 18.5133 72.9272 20.5791 62.545C22.645 52.1629 27.7433 42.6266 35.2292 35.1421C42.7151 27.6576 52.2524 22.5611 62.6349 20.4971C73.0174 18.4331 83.7789 19.4944 93.5582 23.5468C103.338 27.5991 111.696 34.4605 117.575 43.2631C123.455 52.0657 126.592 62.4143 126.59 72.9999C126.59 80.0278 125.206 86.9868 122.516 93.4796C119.826 99.9724 115.884 105.872 110.914 110.841C105.944 115.81 100.044 119.751 93.5505 122.44C87.0572 125.128 80.0979 126.511 73.07 126.51Z" fill="#1A74EC"/>
<path d="M73.0699 114.66C96.0781 114.66 114.73 96.0081 114.73 73C114.73 49.9918 96.0781 31.34 73.0699 31.34C50.0618 31.34 31.4099 49.9918 31.4099 73C31.4099 96.0081 50.0618 114.66 73.0699 114.66Z" fill="#1A74EC"/>
<path d="M19.55 72.9999C19.55 80.0287 20.9347 86.9885 23.6251 93.4819C26.3155 99.9754 30.2588 105.875 35.2298 110.844C40.2008 115.813 46.1021 119.755 52.5965 122.443C59.0909 125.13 66.0513 126.513 73.08 126.51V145.31C53.9022 145.31 35.5099 137.692 21.9491 124.131C8.38834 110.57 0.77002 92.1777 0.77002 72.9999C0.77002 53.8221 8.38834 35.4298 21.9491 21.869C35.5099 8.30829 53.9022 0.689941 73.08 0.689941V19.4799C66.0505 19.4773 59.0893 20.8598 52.5942 23.5484C46.0991 26.2369 40.1974 30.1789 35.2263 35.1491C30.2551 40.1193 26.312 46.0202 23.6223 52.5148C20.9325 59.0094 19.5487 65.9704 19.55 72.9999Z" fill="#6396FF"/>
<path d="M73.0701 31.34V114.66C84.119 114.66 94.7154 110.271 102.528 102.458C110.341 94.6453 114.73 84.0489 114.73 73C114.73 61.951 110.341 51.3547 102.528 43.5419C94.7154 35.7291 84.119 31.34 73.0701 31.34Z" fill="#6396FF"/>
</svg>
