<svg width="148" height="27" viewBox="0 0 148 27" fill="none" xmlns="http://www.w3.org/2000/svg">
<path d="M33.0494 21.1481C28.7291 21.1481 26.501 18.5396 26.501 14.3823V7.53498C26.501 3.269 28.8106 0.714829 33.1309 0.714829C37.5056 0.714829 39.7065 3.40486 39.7065 7.48064V14.328C39.7065 18.3494 37.5328 21.1481 33.0494 21.1481ZM29.816 14.328C29.816 16.6647 30.7941 18.0777 33.1038 18.0777C35.3862 18.0777 36.3916 16.6919 36.3916 14.328V7.53498C36.3916 5.1982 35.4134 3.78526 33.1038 3.78526C30.7941 3.78526 29.816 5.1982 29.816 7.53498V14.328Z" fill="#1499DA"/>
<path d="M43.2024 26.3923C43.0122 26.3923 42.8763 26.2564 42.8763 26.0662V6.20356C42.8763 6.01335 43.0122 5.87749 43.2024 5.87749H45.675C45.8652 5.87749 46.0011 6.01335 46.0011 6.20356V7.72518C46.6532 6.39376 47.9846 5.60577 49.6965 5.60577C52.4408 5.60577 54.0168 7.6165 54.0168 11.0673V15.7681C54.0168 19.1917 52.305 21.1481 49.6149 21.1481C47.9846 21.1481 46.7891 20.4416 46.1098 19.2461V26.0662C46.1098 26.2564 45.9739 26.3923 45.7837 26.3923H43.2024ZM46.1098 15.5507C46.1098 17.4256 47.1966 18.2951 48.5552 18.2951C50.0769 18.2951 50.7833 17.181 50.7833 15.6594V11.1488C50.7833 9.60005 50.0769 8.45883 48.5824 8.45883C47.1423 8.45883 46.1098 9.43702 46.1098 11.2575V15.5507Z" fill="#1499DA"/>
<path d="M62.1297 21.1481C58.6517 21.1481 56.5595 19.1102 56.5595 15.6594V11.0945C56.5595 7.67085 58.5702 5.60577 61.9395 5.60577C65.336 5.60577 67.3467 7.67085 67.3467 11.0945V14.0562C67.3467 14.2464 67.2109 14.3823 67.0207 14.3823H59.6571V15.6594C59.6571 17.5071 60.6081 18.4853 62.1569 18.4853C63.3525 18.4853 64.0861 17.9147 64.4665 16.7734C64.5209 16.5561 64.6567 16.4745 64.8469 16.5289L67.0207 17.0452C67.2109 17.0995 67.3196 17.2082 67.2924 17.3984C66.6946 19.708 65.0643 21.1481 62.1297 21.1481ZM59.6571 12.2357H64.3307V10.9586C64.3307 9.21964 63.5155 8.24145 61.9939 8.24145C60.4994 8.24145 59.6571 9.21964 59.6571 10.9586V12.2357Z" fill="#1499DA"/>
<path d="M70.507 20.8764C70.3168 20.8764 70.1809 20.7405 70.1809 20.5503V6.20356C70.1809 6.01335 70.3168 5.87749 70.507 5.87749H72.9796C73.1698 5.87749 73.3057 6.01335 73.3057 6.20356V7.69801C74.148 6.31225 75.3979 5.60577 76.9467 5.60577C79.3922 5.60577 80.8866 7.34478 80.8866 10.7684V20.5503C80.8866 20.7405 80.7508 20.8764 80.5606 20.8764H77.9792C77.789 20.8764 77.6532 20.7405 77.6532 20.5503V10.7684C77.6532 9.24681 76.9467 8.45883 75.8598 8.45883C74.8001 8.45883 73.8763 9.19247 73.4144 10.4695V20.5503C73.4144 20.7405 73.2785 20.8764 73.0883 20.8764H70.507Z" fill="#1499DA"/>
<path d="M84.6047 20.8764C84.4145 20.8764 84.2787 20.7405 84.2787 20.5503V1.31261C84.2787 1.12241 84.4145 0.986548 84.6047 0.986548H90.175C94.604 0.986548 96.8049 3.67658 96.8049 7.75236V14.0834C96.8049 18.1049 94.6312 20.8764 90.1206 20.8764H84.6047ZM87.5936 17.806H90.175C92.4846 17.806 93.49 16.4202 93.49 14.0834V7.77953C93.49 5.46992 92.5118 4.05698 90.175 4.05698H87.5936V17.806Z" fill="#1499DA"/>
<path d="M105.142 21.1481C101.664 21.1481 99.5994 19.1102 99.5994 15.6594V11.1488C99.5994 7.69802 101.664 5.60577 105.142 5.60577C108.648 5.60577 110.686 7.69802 110.686 11.1488V15.6594C110.686 19.1102 108.648 21.1481 105.142 21.1481ZM102.833 15.6594C102.833 17.3984 103.648 18.2951 105.142 18.2951C106.664 18.2951 107.479 17.3984 107.479 15.6594V11.1488C107.479 9.38267 106.637 8.45883 105.142 8.45883C103.648 8.45883 102.833 9.38267 102.833 11.1488V15.6594Z" fill="#1499DA"/>
<path d="M113.971 20.8764C113.781 20.8764 113.645 20.7405 113.645 20.5503V0.497453C113.645 0.30725 113.781 0.171391 113.971 0.171391H116.553C116.743 0.171391 116.879 0.30725 116.879 0.497453V20.5503C116.879 20.7405 116.743 20.8764 116.553 20.8764H113.971Z" fill="#1499DA"/>
<path d="M120.526 20.8764C120.335 20.8764 120.2 20.7405 120.2 20.5503V0.497453C120.2 0.30725 120.335 0.171391 120.526 0.171391H123.107C123.297 0.171391 123.433 0.30725 123.433 0.497453V20.5503C123.433 20.7405 123.297 20.8764 123.107 20.8764H120.526Z" fill="#1499DA"/>
<path d="M134.063 20.8764C133.873 20.8764 133.737 20.7405 133.737 20.5503V18.92C133.003 20.2786 131.699 21.1481 130.041 21.1481C127.705 21.1481 126.102 19.5178 126.102 16.6919C126.102 14.0291 127.623 12.0999 131.645 12.0999H133.601V10.4424C133.601 8.94792 132.949 8.24145 131.645 8.24145C130.449 8.24145 129.878 8.83924 129.498 9.92611C129.444 10.1163 129.308 10.1978 129.118 10.1435L126.89 9.57288C126.699 9.51853 126.618 9.38267 126.672 9.1653C127.216 7.10023 128.764 5.60577 131.808 5.60577C134.96 5.60577 136.726 7.18175 136.726 10.2793V20.5503C136.726 20.7405 136.59 20.8764 136.4 20.8764H134.063ZM129.172 16.4745C129.172 17.806 129.824 18.5668 131.02 18.5668C132.215 18.5668 133.139 17.806 133.601 16.5017V14.1649H131.808C130.041 14.1649 129.172 14.8986 129.172 16.4745Z" fill="#1499DA"/>
<path d="M140.294 20.8764C140.104 20.8764 139.968 20.7405 139.968 20.5503V6.23073C139.968 6.04053 140.104 5.90467 140.294 5.90467H142.74C142.93 5.90467 143.066 6.04053 143.066 6.23073V8.15993C143.772 6.71982 144.941 5.71446 147.033 5.74163C147.25 5.74163 147.359 5.87749 147.359 6.0677V8.45883C147.359 8.6762 147.25 8.78489 147.006 8.75772C144.995 8.6762 143.827 9.43702 143.202 10.85V20.5503C143.202 20.7405 143.066 20.8764 142.876 20.8764H140.294Z" fill="#1499DA"/>
<path d="M9.93799 21C15.4265 21 19.8759 16.5507 19.8759 11.0621C19.8759 5.57358 15.4265 1.12424 9.93799 1.12424L9.93799 21Z" fill="#43C7FF"/>
<path d="M9.93799 1.12423C4.44945 1.12423 0.000111975 5.57356 0.000111495 11.0621C0.000111015 16.5506 4.44945 21 9.93799 21L9.93799 1.12423Z" fill="#0079AD"/>
<ellipse cx="9.938" cy="11.0621" rx="6.62525" ry="6.62525" fill="#002B40"/>
<path d="M9.93799 14.3747C11.7675 14.3747 13.2506 12.8916 13.2506 11.0621C13.2506 9.23258 11.7675 7.74948 9.93799 7.74948V14.3747Z" fill="#0079AD"/>
<path d="M9.93799 7.74956C8.1085 7.74956 6.62541 9.23266 6.62541 11.0621C6.62541 12.8916 8.1085 14.3747 9.93799 14.3747L9.93799 7.74956Z" fill="#43C7FF"/>
</svg>
