<svg width="89" height="17" viewBox="0 0 89 17" fill="none" xmlns="http://www.w3.org/2000/svg">
<g opacity="0.4">
<path d="M19.8297 13.0889C17.2375 13.0889 15.9006 11.5238 15.9006 9.02937V4.92097C15.9006 2.36138 17.2864 0.828873 19.8786 0.828873C22.5034 0.828873 23.824 2.44289 23.824 4.88836V8.99677C23.824 11.4096 22.5197 13.0889 19.8297 13.0889ZM17.8896 8.99677C17.8896 10.3988 18.4765 11.2466 19.8623 11.2466C21.2318 11.2466 21.835 10.4151 21.835 8.99677V4.92097C21.835 3.5189 21.2481 2.67113 19.8623 2.67113C18.4765 2.67113 17.8896 3.5189 17.8896 4.92097V8.99677Z" fill="white"/>
<path d="M25.9215 16.2354C25.8074 16.2354 25.7258 16.1539 25.7258 16.0397V4.12212C25.7258 4.00799 25.8074 3.92648 25.9215 3.92648H27.4051C27.5192 3.92648 27.6007 4.00799 27.6007 4.12212V5.03509C27.992 4.23624 28.7908 3.76345 29.8179 3.76345C31.4646 3.76345 32.4101 4.96988 32.4101 7.04039V9.86084C32.4101 11.915 31.383 13.0889 29.769 13.0889C28.7908 13.0889 28.0735 12.665 27.6659 11.9476V16.0397C27.6659 16.1539 27.5844 16.2354 27.4703 16.2354H25.9215ZM27.6659 9.73041C27.6659 10.8553 28.3181 11.377 29.1332 11.377C30.0462 11.377 30.4701 10.7086 30.4701 9.79562V7.08929C30.4701 6.16001 30.0462 5.47528 29.1495 5.47528C28.2854 5.47528 27.6659 6.0622 27.6659 7.15451V9.73041Z" fill="white"/>
<path d="M37.2779 13.0889C35.1911 13.0889 33.9358 11.8661 33.9358 9.79562V7.05669C33.9358 5.00249 35.1422 3.76345 37.1638 3.76345C39.2017 3.76345 40.4081 5.00249 40.4081 7.05669V8.83374C40.4081 8.94786 40.3266 9.02937 40.2125 9.02937H35.7943V9.79562C35.7943 10.9042 36.3649 11.4912 37.2942 11.4912C38.0116 11.4912 38.4517 11.1488 38.68 10.4641C38.7126 10.3336 38.7941 10.2847 38.9082 10.3173L40.2125 10.6271C40.3266 10.6597 40.3918 10.7249 40.3755 10.839C40.0169 12.2248 39.0387 13.0889 37.2779 13.0889ZM35.7943 7.74142H38.5985V6.97517C38.5985 5.93177 38.1094 5.34485 37.1964 5.34485C36.2997 5.34485 35.7943 5.93177 35.7943 6.97517V7.74142Z" fill="white"/>
<path d="M42.3043 12.9258C42.1901 12.9258 42.1086 12.8443 42.1086 12.7302V4.12212C42.1086 4.00799 42.1901 3.92648 42.3043 3.92648H43.7879C43.902 3.92648 43.9835 4.00799 43.9835 4.12212V5.01879C44.4889 4.18733 45.2388 3.76345 46.1681 3.76345C47.6354 3.76345 48.5321 4.80685 48.5321 6.86105V12.7302C48.5321 12.8443 48.4506 12.9258 48.3364 12.9258H46.7876C46.6735 12.9258 46.592 12.8443 46.592 12.7302V6.86105C46.592 5.94807 46.1681 5.47528 45.516 5.47528C44.8802 5.47528 44.3259 5.91547 44.0487 6.68171V12.7302C44.0487 12.8443 43.9672 12.9258 43.8531 12.9258H42.3043Z" fill="white"/>
<path d="M50.7629 12.9258C50.6488 12.9258 50.5673 12.8443 50.5673 12.7302V1.18754C50.5673 1.07342 50.6488 0.991905 50.7629 0.991905H54.1051C56.7625 0.991905 58.0831 2.60592 58.0831 5.0514V8.85004C58.0831 11.2629 56.7788 12.9258 54.0725 12.9258H50.7629ZM52.5563 11.0836H54.1051C55.4909 11.0836 56.0941 10.2521 56.0941 8.85004V5.0677C56.0941 3.68193 55.5072 2.83416 54.1051 2.83416H52.5563V11.0836Z" fill="white"/>
<path d="M63.0856 13.0889C60.9988 13.0889 59.7598 11.8661 59.7598 9.79562V7.08929C59.7598 5.01879 60.9988 3.76345 63.0856 3.76345C65.1887 3.76345 66.4114 5.01879 66.4114 7.08929V9.79562C66.4114 11.8661 65.1887 13.0889 63.0856 13.0889ZM61.6998 9.79562C61.6998 10.839 62.1889 11.377 63.0856 11.377C63.9986 11.377 64.4877 10.839 64.4877 9.79562V7.08929C64.4877 6.02959 63.9823 5.47528 63.0856 5.47528C62.1889 5.47528 61.6998 6.02959 61.6998 7.08929V9.79562Z" fill="white"/>
<path d="M68.383 12.9258C68.2689 12.9258 68.1873 12.8443 68.1873 12.7302V0.698448C68.1873 0.584326 68.2689 0.50281 68.383 0.50281H69.9318C70.0459 0.50281 70.1274 0.584326 70.1274 0.698448V12.7302C70.1274 12.8443 70.0459 12.9258 69.9318 12.9258H68.383Z" fill="white"/>
<path d="M72.3155 12.9258C72.2014 12.9258 72.1199 12.8443 72.1199 12.7302V0.698448C72.1199 0.584326 72.2014 0.50281 72.3155 0.50281H73.8643C73.9784 0.50281 74.0599 0.584326 74.0599 0.698448V12.7302C74.0599 12.8443 73.9784 12.9258 73.8643 12.9258H72.3155Z" fill="white"/>
<path d="M80.4379 12.9258C80.3238 12.9258 80.2423 12.8443 80.2423 12.7302V11.752C79.8021 12.5672 79.0195 13.0889 78.025 13.0889C76.623 13.0889 75.6611 12.1107 75.6611 10.4151C75.6611 8.81743 76.5741 7.65991 78.9869 7.65991H80.1608V6.66541C80.1608 5.76874 79.7695 5.34485 78.9869 5.34485C78.2696 5.34485 77.9272 5.70353 77.699 6.35565C77.6664 6.46977 77.5849 6.51868 77.4707 6.48608L76.1339 6.14371C76.0197 6.1111 75.9708 6.02959 76.0034 5.89916C76.3295 4.66012 77.2588 3.76345 79.0847 3.76345C80.9759 3.76345 82.0356 4.70903 82.0356 6.56759V12.7302C82.0356 12.8443 81.9541 12.9258 81.84 12.9258H80.4379ZM77.5033 10.2847C77.5033 11.0836 77.8946 11.5401 78.6119 11.5401C79.3293 11.5401 79.8836 11.0836 80.1608 10.301V8.89895H79.0847C78.025 8.89895 77.5033 9.33913 77.5033 10.2847Z" fill="white"/>
<path d="M84.1767 12.9258C84.0626 12.9258 83.981 12.8443 83.981 12.7302V4.13842C83.981 4.0243 84.0626 3.94278 84.1767 3.94278H85.644C85.7581 3.94278 85.8396 4.0243 85.8396 4.13842V5.29594C86.2635 4.43188 86.9645 3.82866 88.2199 3.84496C88.3503 3.84496 88.4155 3.92648 88.4155 4.0406V5.47528C88.4155 5.6057 88.3503 5.67092 88.2036 5.65461C86.9971 5.60571 86.2961 6.0622 85.9211 6.90996V12.7302C85.9211 12.8443 85.8396 12.9258 85.7255 12.9258H84.1767Z" fill="white"/>
<path opacity="0.5" d="M0 7.03732C2.87895e-07 3.74419 2.66961 1.07458 5.96274 1.07458L5.96274 3.06217C3.76732 3.06217 1.98758 4.84191 1.98758 7.03733C1.98758 9.23274 3.76732 11.0125 5.96274 11.0125V13.0001C2.66961 13.0001 -5.21279e-07 10.3305 0 7.03732Z" fill="white"/>
<path d="M11.9254 7.03732C11.9254 10.3305 9.25584 13.0001 5.96271 13.0001V11.0125C8.15813 11.0125 9.93787 9.23274 9.93787 7.03732C9.93787 4.8419 8.15813 3.06216 5.96271 3.06216V1.07458C9.25584 1.07458 11.9254 3.74419 11.9254 7.03732Z" fill="white"/>
<path opacity="0.5" d="M5.96271 9.0248C7.06041 9.0248 7.95027 8.13494 7.95027 7.03724C7.95027 5.93954 7.06041 5.04968 5.96271 5.04968V9.0248Z" fill="white"/>
<path d="M5.96271 5.0498C4.86501 5.0498 3.97516 5.93966 3.97516 7.03735C3.97516 8.13504 4.86501 9.0249 5.96271 9.0249L5.96271 5.0498Z" fill="white"/>
</g>
</svg>
