<svg width="116" height="23" viewBox="0 0 116 23" fill="none" xmlns="http://www.w3.org/2000/svg">
<g clip-path="url(#clip0_485_424)">
<path fill-rule="evenodd" clip-rule="evenodd" d="M7.30754 12.8291C7.46605 13.0476 7.50476 13.3392 7.36979 13.5729L6.03148 15.891C4.52971 14.6757 3.56954 12.8175 3.56954 10.7351C3.56954 7.07394 6.5375 4.10598 10.1987 4.10598C11.0384 4.10598 11.8416 4.2621 12.581 4.54692L11.242 6.86601C11.1072 7.09958 10.8356 7.21191 10.5673 7.18438C10.4461 7.17195 10.3231 7.16558 10.1987 7.16558C8.22727 7.16558 6.62914 8.76371 6.62914 10.7351C6.62914 11.5174 6.88078 12.2409 7.30754 12.8291ZM13.0964 3.65408C12.2027 3.28795 11.2243 3.08611 10.1987 3.08611C5.97425 3.08611 2.54967 6.51069 2.54967 10.7351C2.54967 13.1955 3.71131 15.3845 5.51604 16.7837L4.57114 18.4204C4.38983 18.7344 3.97557 18.8238 3.69634 18.5925C1.43836 16.7218 0 13.8964 0 10.7351C0 5.10254 4.5661 0.536438 10.1987 0.536438C11.4492 0.536438 12.6472 0.761518 13.7543 1.17337C14.0938 1.29968 14.223 1.7028 14.0419 2.01653L13.0964 3.65408ZM14.3659 5.57927L13.0276 7.8973C12.8926 8.13106 12.9313 8.42267 13.0898 8.64114C13.5166 9.22934 13.7682 9.95284 13.7682 10.7351C13.7682 12.7065 12.1701 14.3047 10.1987 14.3047C10.0742 14.3047 9.95123 14.2983 9.83005 14.2858C9.56176 14.2583 9.29018 14.3707 9.15533 14.6042L7.81639 16.9233C8.55572 17.2081 9.35897 17.3643 10.1987 17.3643C13.8598 17.3643 16.8278 14.3963 16.8278 10.7351C16.8278 8.65272 15.8677 6.79458 14.3659 5.57927ZM7.30091 17.8162C8.19465 18.1823 9.17309 18.3841 10.1987 18.3841C14.4231 18.3841 17.8477 14.9595 17.8477 10.7351C17.8477 8.27476 16.6861 6.08571 14.8813 4.68651L15.8262 3.04989C16.0075 2.73586 16.4218 2.64642 16.701 2.87776C18.959 4.74845 20.3974 7.57381 20.3974 10.7351C20.3974 16.3677 15.8312 20.9338 10.1987 20.9338C8.94813 20.9338 7.75016 20.7087 6.64306 20.2969C6.30352 20.1706 6.17434 19.7674 6.35547 19.4537L7.30091 17.8162Z" fill="#0078C2"/>
<path d="M30.3308 18.6733C27.1126 18.6733 25.4529 16.7302 25.4529 13.6335V8.53298C25.4529 5.35528 27.1733 3.45271 30.3915 3.45271C33.6502 3.45271 35.2896 5.45648 35.2896 8.4925V13.593C35.2896 16.5885 33.6704 18.6733 30.3308 18.6733ZM27.9222 13.593C27.9222 15.3337 28.6509 16.3861 30.3713 16.3861C32.0715 16.3861 32.8203 15.3539 32.8203 13.593V8.53298C32.8203 6.79233 32.0917 5.73985 30.3713 5.73985C28.6509 5.73985 27.9222 6.79233 27.9222 8.53298V13.593Z" fill="#0078C2"/>
<path d="M37.8936 22.5796C37.752 22.5796 37.6508 22.4784 37.6508 22.3367V7.54121C37.6508 7.39953 37.752 7.29833 37.8936 7.29833H39.7355C39.8772 7.29833 39.9784 7.39953 39.9784 7.54121V8.67466C40.4641 7.68289 41.4559 7.09593 42.731 7.09593C44.7753 7.09593 45.9492 8.5937 45.9492 11.1642V14.6657C45.9492 17.216 44.6741 18.6733 42.6703 18.6733C41.4559 18.6733 40.5653 18.147 40.0593 17.2565V22.3367C40.0593 22.4784 39.9581 22.5796 39.8165 22.5796H37.8936ZM40.0593 14.5038C40.0593 15.9004 40.8689 16.5481 41.8809 16.5481C43.0144 16.5481 43.5406 15.7182 43.5406 14.5848V11.2249C43.5406 10.0712 43.0144 9.22114 41.9012 9.22114C40.8285 9.22114 40.0593 9.94979 40.0593 11.3059V14.5038Z" fill="#0078C2"/>
<path d="M51.9925 18.6733C49.4017 18.6733 47.8432 17.1553 47.8432 14.5848V11.1844C47.8432 8.63418 49.341 7.09593 51.8508 7.09593C54.3808 7.09593 55.8786 8.63418 55.8786 11.1844V13.3906C55.8786 13.5323 55.7774 13.6335 55.6357 13.6335H50.1506V14.5848C50.1506 15.9611 50.859 16.6897 52.0127 16.6897C52.9033 16.6897 53.4497 16.2647 53.7331 15.4146C53.7736 15.2527 53.8748 15.192 54.0165 15.2325L55.6357 15.617C55.7774 15.6575 55.8583 15.7385 55.8381 15.8801C55.3928 17.6005 54.1784 18.6733 51.9925 18.6733ZM50.1506 12.0345H53.6319V11.0832C53.6319 9.78786 53.0247 9.05922 51.8913 9.05922C50.778 9.05922 50.1506 9.78786 50.1506 11.0832V12.0345Z" fill="#0078C2"/>
<path d="M58.2326 18.4709C58.0909 18.4709 57.9897 18.3697 57.9897 18.228V7.54121C57.9897 7.39953 58.0909 7.29833 58.2326 7.29833H60.0744C60.2161 7.29833 60.3173 7.39953 60.3173 7.54121V8.65442C60.9447 7.62217 61.8758 7.09593 63.0295 7.09593C64.8511 7.09593 65.9643 8.3913 65.9643 10.9416V18.228C65.9643 18.3697 65.8631 18.4709 65.7214 18.4709H63.7986C63.6569 18.4709 63.5557 18.3697 63.5557 18.228V10.9416C63.5557 9.8081 63.0295 9.22114 62.2199 9.22114C61.4305 9.22114 60.7423 9.76763 60.3983 10.7189V18.228C60.3983 18.3697 60.2971 18.4709 60.1554 18.4709H58.2326Z" fill="#0078C2"/>
<path d="M68.7339 18.4709C68.5922 18.4709 68.491 18.3697 68.491 18.228V3.898C68.491 3.75632 68.5922 3.65511 68.7339 3.65511H72.8831C76.1822 3.65511 77.8217 5.65889 77.8217 8.6949V13.4108C77.8217 16.4064 76.2025 18.4709 72.8426 18.4709H68.7339ZM70.9603 16.1837H72.8831C74.6035 16.1837 75.3524 15.1515 75.3524 13.4108V8.71514C75.3524 6.99473 74.6237 5.94225 72.8831 5.94225H70.9603V16.1837Z" fill="#0078C2"/>
<path d="M84.0322 18.6733C81.4415 18.6733 79.9032 17.1553 79.9032 14.5848V11.2249C79.9032 8.65442 81.4415 7.09593 84.0322 7.09593C86.6432 7.09593 88.1612 8.65442 88.1612 11.2249V14.5848C88.1612 17.1553 86.6432 18.6733 84.0322 18.6733ZM82.3118 14.5848C82.3118 15.8801 82.919 16.5481 84.0322 16.5481C85.1657 16.5481 85.7729 15.8801 85.7729 14.5848V11.2249C85.7729 9.90931 85.1454 9.22114 84.0322 9.22114C82.919 9.22114 82.3118 9.90931 82.3118 11.2249V14.5848Z" fill="#0078C2"/>
<path d="M90.6088 18.4709C90.4671 18.4709 90.3659 18.3697 90.3659 18.228V3.29079C90.3659 3.14911 90.4671 3.04791 90.6088 3.04791H92.5316C92.6733 3.04791 92.7745 3.14911 92.7745 3.29079V18.228C92.7745 18.3697 92.6733 18.4709 92.5316 18.4709H90.6088Z" fill="#0078C2"/>
<path d="M95.491 18.4709C95.3493 18.4709 95.2481 18.3697 95.2481 18.228V3.29079C95.2481 3.14911 95.3493 3.04791 95.491 3.04791H97.4138C97.5554 3.04791 97.6566 3.14911 97.6566 3.29079V18.228C97.6566 18.3697 97.5554 18.4709 97.4138 18.4709H95.491Z" fill="#0078C2"/>
<path d="M110.216 18.4709C110.075 18.4709 109.974 18.3697 109.974 18.228V7.56145C109.974 7.41977 110.075 7.31857 110.216 7.31857H112.038C112.18 7.31857 112.281 7.41977 112.281 7.56145V8.9985C112.807 7.92578 113.677 7.17689 115.236 7.19713C115.398 7.19713 115.479 7.29833 115.479 7.44001V9.22114C115.479 9.38306 115.398 9.46402 115.216 9.44378C113.718 9.38306 112.848 9.94979 112.382 11.0023V18.228C112.382 18.3697 112.281 18.4709 112.139 18.4709H110.216Z" fill="#0078C2"/>
<path d="M51.9925 18.6733C49.4017 18.6733 47.8433 17.1553 47.8433 14.5848V11.1844C47.8433 8.63419 49.341 7.09595 51.8508 7.09595C54.3808 7.09595 55.8786 8.63419 55.8786 11.1844V13.3906C55.8786 13.5323 55.7774 13.6335 55.6357 13.6335H50.1506V14.5848C50.1506 15.9611 50.859 16.6898 52.0127 16.6898C52.9033 16.6898 53.4498 16.2647 53.7331 15.4146C53.7736 15.2527 53.8737 15.205 54.0165 15.205H55.7389C55.8776 15.205 55.9705 15.3543 55.9413 15.4956C55.5031 17.6192 54.1784 18.6733 51.9925 18.6733ZM50.1506 12.0345H53.6319V11.0832C53.6319 9.78788 53.0247 9.05924 51.8913 9.05924C50.7781 9.05924 50.1506 9.78788 50.1506 11.0832V12.0345Z" fill="#0078C2"/>
<path d="M102.618 18.7142C100.553 18.7142 99.3387 17.2164 99.3387 14.6662V11.1444C99.3387 8.59415 100.614 7.13686 102.638 7.13686C103.832 7.13686 104.723 7.6631 105.229 8.55367V7.15623C105.229 7.01455 105.33 6.91335 105.471 6.91335H107.394C107.536 6.91335 107.637 7.01455 107.637 7.15623V18.2689C107.637 18.4106 107.536 18.5118 107.394 18.5118H105.552C105.411 18.5118 105.31 18.4106 105.31 18.2689V17.1355C104.824 18.1272 103.893 18.7142 102.618 18.7142ZM101.747 14.5852C101.747 15.7591 102.273 16.589 103.407 16.589C104.459 16.589 105.229 15.8603 105.229 14.5043V11.3063C105.229 9.93 104.419 9.26207 103.407 9.26207C102.273 9.26207 101.747 10.0919 101.747 11.2254V14.5852Z" fill="#0078C2"/>
</g>
<defs>
<clipPath id="clip0_485_424">
<rect width="115.5" height="21.9272" fill="white" transform="translate(0 0.536438)"/>
</clipPath>
</defs>
</svg>
