<svg width="159" height="32" viewBox="0 0 159 32" fill="none" xmlns="http://www.w3.org/2000/svg">
<path d="M16 0C12.8355 0 9.74207 0.938383 7.11088 2.69649C4.4797 4.45459 2.42894 6.95345 1.21794 9.87707C0.00693472 12.8007 -0.309922 16.0177 0.307442 19.1214C0.924805 22.2251 2.44865 25.0761 4.68629 27.3137C6.92393 29.5513 9.77486 31.0752 12.8786 31.6926C15.9823 32.3099 19.1993 31.9931 22.1229 30.7821C25.0465 29.5711 27.5454 27.5203 29.3035 24.8891C31.0616 22.2579 32 19.1645 32 16C31.9994 11.7567 30.3135 7.68739 27.3131 4.68694C24.3126 1.68648 20.2433 0.000586697 16 0ZM16 27.8401C13.6577 27.8401 11.368 27.1455 9.42052 25.8442C7.47301 24.5428 5.95514 22.6932 5.05889 20.5291C4.16263 18.3651 3.92825 15.9839 4.38537 13.6866C4.84249 11.3894 5.97058 9.27929 7.62699 7.6232C9.28339 5.96711 11.3937 4.83941 13.691 4.38272C15.9884 3.92603 18.3695 4.16086 20.5334 5.05752C22.6973 5.95418 24.5466 7.47238 25.8476 9.42014C27.1486 11.3679 27.8428 13.6577 27.8424 16C27.8424 17.555 27.536 19.0949 26.9408 20.5315C26.3457 21.9682 25.4734 23.2735 24.3737 24.373C23.274 25.4725 21.9685 26.3446 20.5317 26.9395C19.0949 27.5344 17.5551 27.8404 16 27.8401Z" fill="#1A74EC"/>
<path d="M15.9998 25.2181C21.0908 25.2181 25.2179 21.0911 25.2179 16.0001C25.2179 10.9091 21.0908 6.78198 15.9998 6.78198C10.9088 6.78198 6.78174 10.9091 6.78174 16.0001C6.78174 21.0911 10.9088 25.2181 15.9998 25.2181Z" fill="#1A74EC"/>
<path d="M4.15788 16C4.15788 17.5552 4.46428 19.0952 5.05958 20.532C5.65488 21.9688 6.52741 23.2743 7.62734 24.3738C8.72726 25.4733 10.033 26.3454 11.4701 26.9401C12.9071 27.5349 14.4472 27.8407 16.0024 27.8401V32C11.759 32 7.68931 30.3143 4.68872 27.3137C1.68814 24.3131 0.00244141 20.2435 0.00244141 16C0.00244141 11.7565 1.68814 7.68687 4.68872 4.68629C7.68931 1.68571 11.759 0 16.0024 0V4.15766C14.447 4.15707 12.9067 4.46297 11.4695 5.05787C10.0324 5.65277 8.72651 6.52501 7.62655 7.62476C6.5266 8.72451 5.65411 10.0302 5.05894 11.4673C4.46377 12.9043 4.15758 14.4446 4.15788 16Z" fill="#6396FF"/>
<path d="M16 6.78198V25.2181C18.4448 25.2181 20.7894 24.247 22.5182 22.5182C24.2469 20.7895 25.2181 18.4449 25.2181 16.0001C25.2181 13.5553 24.2469 11.2106 22.5182 9.4819C20.7894 7.75317 18.4448 6.78198 16 6.78198Z" fill="#6396FF"/>
<path d="M45.0429 22.5562C44.1486 22.0863 43.4122 21.3637 42.9253 20.4785C42.4133 19.5237 42.1565 18.4529 42.1797 17.3697V9.71375C42.1588 8.63928 42.4157 7.5776 42.9253 6.63146C43.4128 5.74728 44.1491 5.02562 45.0429 4.55596C46.0324 4.07397 47.1186 3.82349 48.2192 3.82349C49.3198 3.82349 50.4061 4.07397 51.3955 4.55596C52.2913 5.02763 53.0313 5.74846 53.5264 6.63146C54.0451 7.5747 54.3076 8.63745 54.2875 9.71375V17.3697C54.3105 18.4547 54.048 19.5268 53.5264 20.4785C53.032 21.3626 52.2919 22.0844 51.3955 22.5562C50.4061 23.0382 49.3198 23.2887 48.2192 23.2887C47.1186 23.2887 46.0324 23.0382 45.0429 22.5562ZM50.3379 19.7196C50.8843 19.1153 51.1719 18.3208 51.1389 17.5069V9.63188C51.1749 8.80946 50.8873 8.00564 50.3379 7.39263C50.0636 7.10665 49.7314 6.88252 49.3636 6.73523C48.9957 6.58794 48.6007 6.52088 48.2048 6.53853C47.8157 6.52176 47.4275 6.58941 47.0669 6.73685C46.7064 6.88428 46.382 7.10799 46.116 7.39263C45.5732 8.00878 45.2908 8.8116 45.3283 9.63188V17.5069C45.2941 18.3187 45.5765 19.112 46.116 19.7196C46.3823 20.0037 46.7068 20.2271 47.0672 20.3745C47.4277 20.5219 47.8157 20.5898 48.2048 20.5737C48.6006 20.5907 48.9955 20.5234 49.3633 20.3762C49.731 20.2289 50.0633 20.0051 50.3379 19.7196Z" fill="#FFFFFF"/>
<path d="M67.5416 16.1481C67.5472 17.1402 67.4658 18.1309 67.2983 19.1087C66.7377 21.876 65.2699 23.2605 62.895 23.2619C61.6264 23.2619 60.6764 22.8548 60.045 22.0405C60.0074 21.9852 59.972 21.9631 59.9366 21.9719C59.9012 21.9808 59.8813 22.0118 59.8813 22.0671V27.8489C59.8821 27.892 59.8741 27.9349 59.8578 27.9749C59.8414 28.0148 59.817 28.051 59.7862 28.0812C59.7277 28.1406 59.6482 28.1748 59.5649 28.1763H57.0645C57.0216 28.1763 56.9792 28.1679 56.9395 28.1514C56.8999 28.1349 56.864 28.1107 56.8337 28.0803C56.8035 28.0499 56.7796 28.0137 56.7634 27.974C56.7472 27.9343 56.739 27.8918 56.7393 27.8489V9.49676C56.7393 9.41049 56.7735 9.32776 56.8345 9.26677C56.8955 9.20577 56.9783 9.1715 57.0645 9.1715H59.5627C59.604 9.17178 59.6449 9.18035 59.6829 9.19669C59.7209 9.21303 59.7553 9.23681 59.7839 9.26664C59.8139 9.29523 59.8377 9.32956 59.8541 9.36758C59.8704 9.4056 59.8789 9.44653 59.8791 9.48791V10.1938C59.8764 10.2153 59.8802 10.2371 59.8901 10.2565C59.8999 10.2758 59.9154 10.2917 59.9344 10.3022C59.9698 10.3199 60.0052 10.3022 60.0428 10.2469C60.7288 9.37949 61.7149 8.9458 63.0012 8.9458C64.1238 8.9458 65.0332 9.28951 65.7294 9.97692C66.4257 10.6643 66.928 11.6969 67.2363 13.0747C67.4467 14.0855 67.5491 15.1157 67.5416 16.1481ZM64.3664 16.1216C64.3953 15.2086 64.3038 14.2957 64.0943 13.4066C63.7697 12.2265 63.1 11.6364 62.0851 11.6364C61.1071 11.6364 60.4736 12.2162 60.1844 13.3756C59.974 14.2736 59.8825 15.1953 59.9123 16.1172C59.9123 17.3297 60.0118 18.2524 60.211 18.8852C60.506 19.9901 61.1219 20.5425 62.0586 20.5425C62.9953 20.5425 63.6554 20.0085 64.0389 18.9406C64.2847 18.0218 64.3958 17.0722 64.3686 16.1216H64.3664Z" fill="#FFFFFF"/>
<path d="M80.3044 15.8492L80.2778 17.0175C80.2842 17.0619 80.2801 17.1071 80.2658 17.1497C80.2516 17.1922 80.2276 17.2308 80.1958 17.2624C80.164 17.294 80.1252 17.3177 80.0826 17.3317C80.04 17.3456 79.9947 17.3494 79.9503 17.3428H72.675C72.6567 17.3402 72.638 17.3419 72.6204 17.3478C72.6029 17.3536 72.5869 17.3635 72.5739 17.3766C72.5608 17.3897 72.5509 17.4056 72.545 17.4232C72.5391 17.4407 72.5374 17.4594 72.54 17.4777C72.5754 17.9844 72.6108 18.3628 72.6484 18.5841C72.7172 19.1407 72.9872 19.653 73.4074 20.0245C73.8476 20.3936 74.4088 20.5867 74.9828 20.5667C75.4698 20.5661 75.9463 20.4247 76.3547 20.1595C76.7341 19.8952 77.0303 19.5284 77.2088 19.1019C77.2199 19.0599 77.2395 19.0207 77.2663 18.9866C77.2931 18.9524 77.3265 18.9242 77.3647 18.9034C77.4028 18.8827 77.4447 18.87 77.4879 18.8661C77.5311 18.8621 77.5747 18.8671 77.6159 18.8806L79.8419 19.343C80.0632 19.416 80.1318 19.551 80.0632 19.7502C79.7531 20.7997 79.0973 21.7136 78.2023 22.3435C77.2494 22.9712 76.1256 23.2888 74.985 23.2529C73.4834 23.2529 72.2797 22.8907 71.3739 22.1664C70.443 21.4054 69.8151 20.3364 69.6038 19.1527C69.5101 18.641 69.4509 18.1235 69.4268 17.6039C69.4002 17.0595 69.3847 16.336 69.3847 15.431C69.3694 14.7137 69.4153 13.9964 69.5219 13.2869C69.6548 12.0547 70.258 10.9213 71.2058 10.1227C72.1469 9.33501 73.341 8.94189 74.7881 8.94336C76.3636 8.94336 77.6351 9.3859 78.6028 10.271C79.5705 11.1561 80.1089 12.3236 80.2181 13.7737C80.2778 14.3844 80.3044 15.0703 80.3044 15.8492ZM73.341 12.1982C72.9395 12.5726 72.6845 13.0778 72.6219 13.6232C72.5638 14.073 72.5364 14.5261 72.54 14.9796C72.5371 14.9981 72.5385 15.017 72.5442 15.0349C72.5499 15.0527 72.5597 15.069 72.5728 15.0823C72.586 15.0957 72.6021 15.1057 72.6198 15.1117C72.6375 15.1177 72.6565 15.1195 72.675 15.1168H76.992C77.0105 15.1195 77.0294 15.1177 77.0472 15.1117C77.0649 15.1057 77.081 15.0957 77.0941 15.0823C77.1073 15.069 77.1171 15.0527 77.1228 15.0349C77.1285 15.017 77.1299 14.9981 77.1269 14.9796C77.0915 14.3645 77.0554 13.9219 77.0185 13.652C76.9699 13.1016 76.7183 12.5889 76.3127 12.2137C75.8963 11.8659 75.3717 11.6743 74.8292 11.6718C74.2867 11.6694 73.7604 11.8564 73.341 12.2005V12.1982Z" fill="#FFFFFF"/>
<path d="M91.7838 10.2025C92.5214 11.0345 92.8901 12.1836 92.8901 13.6499V22.722C92.8904 22.7649 92.8822 22.8074 92.866 22.8471C92.8498 22.8868 92.8259 22.923 92.7957 22.9534C92.7654 22.9838 92.7295 23.008 92.6899 23.0245C92.6502 23.041 92.6078 23.0495 92.5649 23.0494H90.0667C90.0236 23.0497 89.9809 23.0415 89.9411 23.0251C89.9012 23.0088 89.865 22.9847 89.8345 22.9542C89.804 22.9237 89.7799 22.8875 89.7636 22.8476C89.7472 22.8078 89.739 22.7651 89.7393 22.722V14.0947C89.776 13.4567 89.5785 12.8272 89.1839 12.3245C88.9994 12.107 88.7679 11.9342 88.5068 11.8192C88.2458 11.7042 87.9621 11.65 87.677 11.6607C87.3858 11.6499 87.0958 11.7038 86.828 11.8186C86.5601 11.9334 86.3211 12.1062 86.1281 12.3245C85.7217 12.8223 85.5136 13.4528 85.544 14.0947V22.7242C85.5443 22.7673 85.536 22.81 85.5197 22.8499C85.5033 22.8897 85.4792 22.9259 85.4487 22.9564C85.4183 22.9869 85.382 23.011 85.3422 23.0273C85.3023 23.0437 85.2596 23.052 85.2165 23.0517H82.7162C82.673 23.0522 82.6302 23.0441 82.5903 23.0278C82.5504 23.0114 82.5142 22.9872 82.4838 22.9565C82.4242 22.8982 82.39 22.8187 82.3887 22.7353V9.49669C82.3888 9.45531 82.3973 9.41438 82.4137 9.37636C82.43 9.33834 82.4539 9.30401 82.4838 9.27543C82.5139 9.24434 82.55 9.21983 82.59 9.20346C82.63 9.18708 82.673 9.17918 82.7162 9.18028H85.2121C85.255 9.17999 85.2975 9.18819 85.3372 9.2044C85.3769 9.22062 85.4131 9.24453 85.4435 9.27476C85.4739 9.305 85.4981 9.34096 85.5146 9.38056C85.5311 9.42017 85.5396 9.46265 85.5396 9.50555V10.2114C85.537 10.2327 85.5406 10.2543 85.55 10.2735C85.5594 10.2927 85.5743 10.3088 85.5927 10.3198C85.6281 10.3375 85.6657 10.3198 85.7011 10.2645C86.4239 9.39713 87.4196 8.96344 88.6882 8.96344C90.0085 8.95754 91.0403 9.37057 91.7838 10.2025Z" fill="#FFFFFF"/>
<path d="M100.44 22.9453C100.38 22.887 100.346 22.8074 100.345 22.724V4.35865C100.345 4.31726 100.353 4.27633 100.37 4.23831C100.386 4.20029 100.41 4.16596 100.44 4.13738C100.469 4.10755 100.503 4.08376 100.541 4.06742C100.579 4.05108 100.62 4.04252 100.661 4.04224H106.281C108.035 4.04224 109.443 4.5305 110.503 5.50704C111.564 6.48358 112.093 7.78685 112.092 9.41687V17.6702C112.092 19.2929 111.562 20.5961 110.503 21.5801C109.444 22.564 108.037 23.053 106.281 23.0471H100.661C100.577 23.0438 100.497 23.0072 100.44 22.9453ZM103.631 20.3254L106.317 20.2967C106.669 20.3109 107.02 20.2463 107.344 20.1077C107.668 19.9692 107.958 19.7601 108.191 19.4957C108.661 18.9632 108.915 18.2352 108.952 17.3118V9.76869C108.952 8.84378 108.712 8.11064 108.231 7.56927C107.992 7.29983 107.697 7.08694 107.366 6.94608C107.035 6.80522 106.676 6.73994 106.317 6.755H103.631C103.612 6.75203 103.593 6.75346 103.575 6.75916C103.557 6.76485 103.541 6.77467 103.528 6.78781C103.515 6.80094 103.504 6.81703 103.498 6.83478C103.492 6.85252 103.491 6.87143 103.493 6.88997V20.1927C103.491 20.2113 103.493 20.2303 103.499 20.2481C103.505 20.2659 103.515 20.2821 103.528 20.2954C103.541 20.3087 103.557 20.3187 103.575 20.3247C103.593 20.3307 103.612 20.3324 103.631 20.3299V20.3254Z" fill="#FFFFFF"/>
<path d="M115.951 22.0803C114.997 21.2718 114.386 20.1314 114.241 18.8896C114.089 17.9658 114.015 17.031 114.019 16.0949C114.014 15.1397 114.088 14.1857 114.241 13.2428C114.39 12.013 115.013 10.8899 115.978 10.1118C116.935 9.34179 118.139 8.95751 119.589 8.95899C121.039 8.96046 122.224 9.34474 123.144 10.1118C124.089 10.8881 124.701 11.9965 124.855 13.2096C125.134 15.0808 125.144 16.9824 124.884 18.8564C124.682 20.215 124.111 21.2874 123.173 22.0736C122.235 22.8599 121.031 23.2537 119.562 23.2552C118.096 23.2596 116.892 22.868 115.951 22.0803ZM121.069 19.9495C121.489 19.5241 121.752 18.9685 121.815 18.374C121.888 17.4336 121.923 16.6724 121.923 16.0949C121.923 15.5174 121.888 14.7275 121.815 13.7871C121.756 13.1992 121.492 12.6508 121.069 12.2382C120.661 11.8582 120.12 11.6539 119.562 11.6695C119.284 11.6589 119.006 11.7036 118.745 11.8012C118.484 11.8989 118.245 12.0474 118.042 12.2382C117.625 12.6537 117.365 13.2012 117.307 13.7871C117.228 14.5537 117.192 15.3242 117.199 16.0949C117.19 16.8561 117.227 17.6171 117.307 18.374C117.369 18.9667 117.627 19.5216 118.042 19.9495C118.241 20.1478 118.479 20.3032 118.74 20.406C119.001 20.5088 119.281 20.5567 119.562 20.5469C119.84 20.5535 120.117 20.504 120.376 20.4014C120.635 20.2987 120.871 20.145 121.069 19.9495Z" fill="#FFFFFF"/>
<path d="M127.284 22.9453C127.224 22.887 127.19 22.8075 127.189 22.7241V4.35871C127.189 4.27245 127.223 4.18971 127.284 4.12871C127.345 4.06771 127.428 4.03345 127.514 4.03345H130.012C130.054 4.03373 130.095 4.04229 130.133 4.05863C130.171 4.07498 130.205 4.09876 130.234 4.12859C130.264 4.15717 130.287 4.19151 130.304 4.22953C130.32 4.26755 130.329 4.30847 130.329 4.34986V22.7241C130.327 22.8075 130.293 22.887 130.234 22.9453C130.175 23.0048 130.096 23.0389 130.012 23.0405H127.505C127.422 23.0392 127.342 23.005 127.284 22.9453Z" fill="#FFFFFF"/>
<path d="M132.876 22.9453C132.816 22.887 132.782 22.8075 132.781 22.7241V4.35871C132.781 4.27245 132.815 4.18971 132.876 4.12871C132.937 4.06771 133.02 4.03345 133.106 4.03345H135.604C135.646 4.03373 135.686 4.04229 135.724 4.05863C135.762 4.07498 135.797 4.09876 135.825 4.12859C135.855 4.15717 135.879 4.19151 135.896 4.22953C135.912 4.26755 135.92 4.30847 135.921 4.34986V22.7241C135.919 22.8075 135.885 22.887 135.825 22.9453C135.767 23.0048 135.688 23.039 135.604 23.0405H133.106C133.063 23.041 133.021 23.0329 132.981 23.0165C132.942 23.0002 132.906 22.9759 132.876 22.9453Z" fill="#FFFFFF"/>
<path d="M146.147 9.53647C146.905 9.89287 147.549 10.4519 148.008 11.1517C148.456 11.8576 148.687 12.6792 148.672 13.5149V22.7241C148.672 22.767 148.664 22.8096 148.648 22.8493C148.632 22.889 148.608 22.9251 148.578 22.9556C148.547 22.986 148.511 23.0101 148.472 23.0266C148.432 23.0431 148.39 23.0516 148.347 23.0516H145.849C145.765 23.0501 145.686 23.0159 145.627 22.9565C145.568 22.8981 145.534 22.8186 145.532 22.7352V22.0581C145.535 22.0368 145.532 22.0151 145.522 21.9958C145.513 21.9765 145.498 21.9605 145.479 21.9497C145.461 21.941 145.44 21.9389 145.42 21.9437C145.4 21.9486 145.383 21.96 145.371 21.9762C144.61 22.8436 143.514 23.278 142.085 23.2795C140.991 23.3125 139.919 22.9723 139.045 22.3148C138.211 21.6731 137.794 20.628 137.794 19.1794C137.794 17.66 138.279 16.5286 139.248 15.7851C140.217 15.0417 141.552 14.6729 143.253 14.6788H145.397C145.416 14.6814 145.434 14.6796 145.452 14.6738C145.469 14.6679 145.485 14.658 145.498 14.6449C145.511 14.6319 145.521 14.6159 145.527 14.5984C145.533 14.5808 145.535 14.5621 145.532 14.5438V13.8645C145.564 13.2825 145.364 12.7115 144.977 12.2758C144.778 12.0705 144.538 11.9095 144.273 11.8035C144.007 11.6975 143.722 11.6488 143.437 11.6607C142.979 11.6413 142.527 11.7693 142.147 12.0258C141.817 12.2641 141.59 12.6181 141.51 13.017C141.494 13.1049 141.446 13.184 141.376 13.2391C141.306 13.2942 141.218 13.3215 141.129 13.3157L138.496 13.152C138.455 13.1517 138.414 13.1432 138.376 13.1268C138.338 13.1105 138.303 13.0867 138.275 13.0569C138.245 13.0327 138.223 13.0008 138.211 12.9649C138.199 12.9289 138.197 12.8903 138.206 12.8533C138.253 12.2934 138.422 11.7506 138.701 11.2629C138.98 10.7751 139.363 10.3543 139.821 10.0299C140.79 9.30709 141.99 8.94567 143.419 8.94567C144.362 8.9325 145.295 9.13456 146.147 9.53647ZM144.736 20.0977C144.987 19.9116 145.19 19.6677 145.327 19.3865C145.464 19.1053 145.532 18.7951 145.523 18.4824V17.0707C145.526 17.0524 145.524 17.0337 145.518 17.0161C145.512 16.9986 145.503 16.9826 145.49 16.9696C145.476 16.9565 145.461 16.9466 145.443 16.9407C145.425 16.9349 145.407 16.9331 145.388 16.9357H143.57C142.773 16.9357 142.142 17.1083 141.682 17.4513C141.453 17.6241 141.27 17.8508 141.149 18.1113C141.028 18.3718 140.973 18.6581 140.99 18.9448C140.971 19.1918 141.009 19.4396 141.101 19.6697C141.192 19.8997 141.335 20.1058 141.518 20.2725C141.907 20.5811 142.395 20.7383 142.89 20.715C143.558 20.726 144.209 20.5082 144.736 20.0977Z" fill="#FFFFFF"/>
<path d="M158.392 9.33302C158.464 9.37038 158.519 9.43187 158.549 9.50646C158.579 9.58106 158.582 9.66391 158.556 9.74016L158.094 12.2117C158.076 12.433 157.948 12.4927 157.713 12.402C157.452 12.3065 157.176 12.2599 156.899 12.2648C156.708 12.2715 156.518 12.2899 156.33 12.3202C156.03 12.3447 155.737 12.4322 155.473 12.5771C155.208 12.7219 154.977 12.9209 154.795 13.161C154.376 13.704 154.16 14.3763 154.184 15.0617V22.7242C154.184 22.7671 154.176 22.8097 154.16 22.8494C154.143 22.8891 154.12 22.9252 154.089 22.9557C154.059 22.9861 154.023 23.0103 153.984 23.0268C153.944 23.0432 153.901 23.0517 153.859 23.0517H151.36C151.318 23.0517 151.275 23.0432 151.235 23.0268C151.196 23.0103 151.16 22.9861 151.13 22.9557C151.099 22.9252 151.075 22.8891 151.059 22.8494C151.043 22.8097 151.035 22.7671 151.035 22.7242V9.49675C151.035 9.41049 151.069 9.32776 151.13 9.26676C151.191 9.20576 151.274 9.17149 151.36 9.17149H153.859C153.945 9.17149 154.028 9.20576 154.089 9.26676C154.15 9.32776 154.184 9.41049 154.184 9.49675V10.6651C154.184 10.7359 154.197 10.7779 154.226 10.7868C154.255 10.7956 154.283 10.7735 154.321 10.7182C154.972 9.57937 155.885 9.00923 157.063 9.00776C157.527 8.99724 157.985 9.10944 158.392 9.33302Z" fill="#FFFFFF"/>
</svg>
