<svg width="112" height="93" viewBox="0 0 112 93" fill="none" xmlns="http://www.w3.org/2000/svg">
<path d="M29.2323 46.5C29.2323 53.6655 32.0788 60.5376 37.1456 65.6044C42.2124 70.6712 49.0845 73.5177 56.25 73.5177V83C46.5696 83 37.2857 79.1545 30.4406 72.3094C23.5955 65.4643 19.75 56.1804 19.75 46.5C19.75 36.8196 23.5955 27.5357 30.4406 20.6906C37.2857 13.8455 46.5696 10 56.25 10V19.4823C49.0845 19.4823 42.2124 22.3288 37.1456 27.3956C32.0788 32.4624 29.2323 39.3345 29.2323 46.5Z" fill="white"/>
<path d="M83.2677 46.5C83.2677 39.3345 80.4212 32.4624 75.3544 27.3956C70.2876 22.3288 63.4155 19.4823 56.25 19.4823L56.25 10C65.9304 10 75.2143 13.8455 82.0594 20.6906C88.9045 27.5357 92.75 36.8196 92.75 46.5C92.75 56.1804 88.9045 65.4643 82.0594 72.3094C75.2143 79.1545 65.9304 83 56.25 83L56.25 73.5177C63.4155 73.5177 70.2876 70.6712 75.3544 65.6044C80.4212 60.5376 83.2677 53.6655 83.2677 46.5Z" fill="#A4A9B0"/>
<path d="M56.2498 67.4867C53.4937 67.4867 50.7646 66.9439 48.2182 65.8891C45.6719 64.8344 43.3583 63.2885 41.4094 61.3396C39.4605 59.3908 37.9146 57.0771 36.8599 54.5308C35.8052 51.9845 35.2623 49.2553 35.2623 46.4992C35.2623 43.7431 35.8052 41.014 36.8599 38.4676C37.9146 35.9213 39.4605 33.6077 41.4094 31.6588C43.3583 29.7099 45.6719 28.164 48.2182 27.1093C50.7646 26.0546 53.4937 25.5117 56.2498 25.5117L56.2498 46.4992L56.2498 67.4867Z" fill="#A4A9B0"/>
<path d="M56.2502 25.5133C59.0063 25.5133 61.7354 26.0561 64.2818 27.1109C66.8281 28.1656 69.1417 29.7115 71.0906 31.6604C73.0395 33.6092 74.5854 35.9229 75.6401 38.4692C76.6948 41.0155 77.2377 43.7447 77.2377 46.5008C77.2377 49.2569 76.6948 51.986 75.6401 54.5324C74.5854 57.0787 73.0395 59.3923 71.0906 61.3412C69.1417 63.2901 66.8281 64.836 64.2818 65.8907C61.7354 66.9454 59.0063 67.4883 56.2502 67.4883L56.2502 46.5008L56.2502 25.5133Z" fill="white"/>
</svg>
