<svg width="134" height="134" viewBox="0 0 134 134" fill="none" xmlns="http://www.w3.org/2000/svg">
<g clip-path="url(#clip0_58_2)">
<path d="M67 134C104.003 134 134 104.003 134 67C134 29.9969 104.003 0 67 0C29.9969 0 0 29.9969 0 67C0 104.003 29.9969 134 67 134Z" fill="#5FD4F2"/>
<g clip-path="url(#clip1_58_2)">
<path d="M38.4154 65.0777C38.4154 64.2934 37.7785 63.6541 36.9906 63.6541H27.4247C26.638 63.6541 26 64.291 26 65.0777C26 65.8645 26.6368 66.5035 27.4247 66.5035H36.9906C37.7761 66.5012 38.4154 65.8631 38.4154 65.0777Z" fill="#FFAC33"/>
<path d="M40.9881 54.0012C41.2649 54.2792 41.6298 54.4193 41.996 54.4193C42.3597 54.4193 42.7258 54.2816 43.0038 54.0012C43.5585 53.4466 43.5585 52.5427 43.0038 51.988L36.2378 45.2232C35.6819 44.6661 34.7804 44.6661 34.2234 45.2232C33.6687 45.7791 33.6687 46.6806 34.2234 47.2377L40.9881 54.0012Z" fill="#FFAC33"/>
<path d="M43.011 76.1614C42.4563 75.6067 41.5524 75.6067 40.9953 76.1614L34.2317 82.9248C33.6759 83.4843 33.6759 84.3833 34.2305 84.9405C34.5085 85.2172 34.8746 85.3575 35.2396 85.3575C35.6045 85.3575 35.9683 85.2198 36.2462 84.9405L43.011 78.1771C43.568 77.6199 43.568 76.7183 43.011 76.1614Z" fill="#FFAC33"/>
<path d="M54.0776 49.4129C54.8632 49.4129 55.5036 48.7761 55.5036 47.9894V38.4235C55.5036 37.638 54.8656 37 54.0776 37C53.2922 37 52.6528 37.6368 52.6528 38.4235V47.9894C52.6528 48.7761 53.2922 49.4129 54.0776 49.4129Z" fill="#FFAC33"/>
<path d="M66.1618 54.417C66.5257 54.417 66.8917 54.2804 67.1674 54.0013L73.9321 47.2377C74.4903 46.6794 74.4903 45.7779 73.9321 45.2221C73.3774 44.6662 72.4747 44.6662 71.9199 45.2221L65.1542 51.9856C64.597 52.5427 64.597 53.4442 65.1542 54.0013C65.4332 54.2792 65.7958 54.417 66.1618 54.417Z" fill="#FFAC33"/>
<path d="M94.8462 68.2026C91.6404 59.7462 83.5669 54.1355 74.4468 54.1355C62.8665 54.1355 53.3622 63.2048 52.6687 74.6134C46.9081 75.2975 42.4272 80.2121 42.4272 86.1552C42.4272 92.5647 47.6404 97.7767 54.051 97.7767H94.8462C94.9902 97.7767 95.1292 97.7549 95.2632 97.7125C102.85 97.0407 108.746 90.6323 108.746 82.9756C108.746 75.1187 102.591 68.6715 94.8462 68.2026Z" fill="#E1E8ED"/>
<path d="M47.9462 74.9456C49.0712 74.3317 50.2978 73.8811 51.6028 73.6272C52.329 66.4685 56.3375 60.3165 62.0605 56.6368C59.9229 54.6139 57.0855 53.4526 54.0776 53.4526C47.6682 53.4526 42.4563 58.6645 42.4563 65.0765C42.4563 69.2347 44.6532 72.8902 47.9462 74.9456Z" fill="#FFAC33"/>
</g>
</g>
<defs>
<clipPath id="clip0_58_2">
<rect width="134" height="134" fill="white"/>
</clipPath>
<clipPath id="clip1_58_2">
<rect width="82.9914" height="61" fill="white" transform="translate(26 37)"/>
</clipPath>
</defs>
</svg>
