<svg width="16" height="17" viewBox="0 0 16 17" fill="none" xmlns="http://www.w3.org/2000/svg">
<path fill-rule="evenodd" clip-rule="evenodd" d="M5.73215 10.1426C5.85649 10.3139 5.88685 10.5427 5.78099 10.726L4.73119 12.5443C3.55318 11.591 2.8 10.1335 2.8 8.5C2.8 5.62812 5.12812 3.3 8 3.3C8.65869 3.3 9.28877 3.42247 9.86872 3.64588L8.81844 5.46502C8.71266 5.64823 8.49963 5.73635 8.28918 5.71475C8.19411 5.705 8.09764 5.7 8 5.7C6.45361 5.7 5.2 6.9536 5.2 8.50001C5.2 9.11364 5.3974 9.68117 5.73215 10.1426ZM10.2731 2.94553C9.572 2.65833 8.80449 2.5 8 2.5C4.68629 2.5 2 5.18629 2 8.5C2 10.43 2.91121 12.1471 4.32688 13.2446L3.58568 14.5284C3.44346 14.7748 3.11851 14.8449 2.89947 14.6635C1.12827 13.1961 0 10.9798 0 8.5C0 4.08172 3.58172 0.5 8 0.5C8.98095 0.5 9.92067 0.676555 10.7891 0.999623C11.0554 1.0987 11.1568 1.41491 11.0147 1.66101L10.2731 2.94553ZM11.2688 4.45568L10.219 6.27399C10.1132 6.45735 10.1435 6.68609 10.2679 6.85747C10.6026 7.31885 10.8 7.88638 10.8 8.50001C10.8 10.0464 9.54639 11.3 8 11.3C7.90237 11.3 7.8059 11.295 7.71085 11.2853C7.5004 11.2637 7.28737 11.3518 7.18159 11.535L6.13131 13.3541C6.71125 13.5775 7.34132 13.7 8 13.7C10.8719 13.7 13.2 11.3719 13.2 8.5C13.2 6.86654 12.4468 5.40899 11.2688 4.45568ZM5.72696 14.0545C6.42802 14.3417 7.19552 14.5 8 14.5C11.3137 14.5 14 11.8137 14 8.5C14 6.57006 13.0888 4.85294 11.6731 3.75538L12.4143 2.47159C12.5566 2.22526 12.8815 2.15511 13.1006 2.33658C14.8717 3.80397 16 6.02023 16 8.50001C16 12.9183 12.4183 16.5 8 16.5C7.01906 16.5 6.07935 16.3235 5.21093 16.0004C4.94459 15.9013 4.84325 15.5851 4.98534 15.339L5.72696 14.0545Z" fill="#0078C2"/>
</svg>
