<svg width="16" height="16" viewBox="0 0 16 16" fill="none" xmlns="http://www.w3.org/2000/svg">
<path fill-rule="evenodd" clip-rule="evenodd" d="M0 2.00002C0 0.895167 0.895146 3.05176e-05 2 3.05176e-05H10.6667C11.403 3.05176e-05 12 0.596983 12 1.33336C12 1.70155 11.7015 2.00003 11.3333 2.00003C10.9651 2.00003 10.6667 1.70155 10.6667 1.33336H2C1.63152 1.33336 1.33333 1.63155 1.33333 2.00002C1.33333 2.36849 1.63152 2.66668 2 2.66668H12.6624C13.7693 2.66668 14.6666 3.56404 14.6666 4.67098V7.44712C15.4434 7.72168 16 8.4625 16 9.33331C16 10.2041 15.4434 10.945 14.6666 11.2195V13.9957C14.6666 15.1026 13.7693 15.9999 12.6624 15.9999H2.66666C1.19381 15.9999 0 14.8061 0 13.3333V2.00002ZM1.33333 3.88628V13.3333C1.33333 14.0698 1.93018 14.6666 2.66666 14.6666H12.6624C13.0329 14.6666 13.3333 14.3662 13.3333 13.9957V11.3333H12C10.8951 11.3333 9.99999 10.4382 9.99999 9.33332C9.99999 8.22846 10.8951 7.33332 12 7.33332H13.3333V4.67098C13.3333 4.30042 13.0329 4.00002 12.6624 4.00002H2C1.76622 4.00002 1.54184 3.95994 1.33333 3.88628ZM14 8.66666H12C11.6315 8.66666 11.3333 8.96485 11.3333 9.33332C11.3333 9.70178 11.6315 9.99997 12 9.99997H14C14.3682 9.99997 14.6666 9.7015 14.6666 9.33331C14.6666 8.96513 14.3682 8.66666 14 8.66666Z" fill="#0079AD"/>
</svg>
