<?xml version="1.0" encoding="utf-8"?>
<!-- Generator: Adobe Illustrator 22.1.0, SVG Export Plug-In . SVG Version: 6.00 Build 0)  -->
<svg version="1.1" id="Layer_1" xmlns="http://www.w3.org/2000/svg" xmlns:xlink="http://www.w3.org/1999/xlink" x="0px" y="0px"
	 viewBox="0 0 256 256" style="enable-background:new 0 0 256 256;" xml:space="preserve">
<style type="text/css">
	.st0{fill:#2A373B;}
	.st1{fill:#283036;}
	.st2{fill:#399584;}
	.st3{fill:#293237;}
	.st4{fill:#389181;}
	.st5{fill:#3A9987;}
	.st6{fill:#293439;}
	.st7{fill:#2C4345;}
	.st8{fill:#389282;}
	.st9{fill:#388D7E;}
	.st10{fill:#2A3C3F;}
	.st11{fill:#2B4042;}
	.st12{fill:#34736A;}
	.st13{fill:#388C7D;}
	.st14{fill:#389081;}
	.st15{fill:#2D4949;}
	.st16{fill:#2E504F;}
	.st17{fill:#336E66;}
	.st18{fill:#326962;}
	.st19{fill:#34786D;}
	.st20{fill:#2A393D;}
	.st21{fill:#31655F;}
	.st22{fill:#368275;}
	.st23{fill:#37887A;}
	.st24{fill:#2D4C4B;}
	.st25{fill:#2C4647;}
	.st26{fill:#388E7E;}
	.st27{fill:#2F5552;}
	.st28{fill:#367F73;}
	.st29{fill:#378A7B;}
	.st30{fill:#357B70;}
	.st31{fill:#31615C;}
	.st32{fill:#2F5A56;}
	.st33{fill:#368578;}
	.st34{fill:#305E59;}
	.st35{fill:#37877A;}
	.st36{fill:#368577;}
	.st37{fill:#2F5754;}
	.st38{fill:#192123;}
	.st39{fill:#1FC8A7;}
	.st40{fill:#198889;}
	.st41{fill:#68FDE1;}
	.st42{fill:#FDFEFE;}
	.st43{fill:#19898A;}
	.st44{fill:#A4E8DB;}
	.st45{fill:#2AA197;}
	.st46{fill:#F9FBFB;}
	.st47{fill:#FAFDFC;}
</style>
<g transform="translate(-831 -378)">
	<g transform="translate(1257.715 433.694)">
		<path class="st0" d="M-318.8,63.8c-1,0-2,0.4-2.9-0.3C-320.7,63.3-319.7,63.4-318.8,63.8z"/>
		<path class="st0" d="M-314.8,64.2c-0.8,0-1.6,0.3-2.4-0.3C-316.3,63.7-315.5,63.8-314.8,64.2z"/>
		<g transform="translate(-426.715 -55.694)">
			<path class="st1" d="M28,48c2-2.8,4.3-5.4,6.7-7.9c16.9-18,38.7-30.7,62.7-36.5c3.9-1,7.9-1.8,11.9-2.2c0.5,1.3-0.6,1.7-1.4,2.1
				c-4.5,2.6-9,5.2-13.5,7.8c-4.8,2.8-9.6,5.6-14.5,8.4c-0.6,0.2-1.1,0.7-1.4,1.2c-0.2,0.3-0.5,0.6-0.9,0.7
				c-5.5,2.6-10.8,5.6-15.8,9c-0.6,0.5-1.2,0.8-1.9,1c-0.6,0-1.1,0.1-1.6,0.4c-9.1,5.1-18.1,10.3-27,15.6c-0.6,0.4-1.3,0.8-2,1
				C28.8,48.8,28.1,49,28,48z"/>
			<path class="st2" d="M164.1,250.8c-7.2,2.2-14.5,3.7-22,4.4c-0.4-1.2,0.6-1.6,1.3-2c5.2-3.1,10.5-6.1,15.8-9.1
				c2.7-1.6,5.5-2.8,7.8-4.9c2.3-1.4,4.9-2,7.3-3.1c11.1-4.8,21.3-11.2,30.5-19.1c1.4-1.2,2.6-2.8,4.4-3.7c1-0.2,1.9-0.6,2.8-1.1
				c6.4-3.7,12.8-7.5,19.3-11.1c0.5-0.3,1.2-1.4,1.7,0.1c-4.3,6.4-9.3,12.3-14.8,17.7c-0.4,0.4-0.8,0.8-1.2,1.1
				c-11.1,6.2-22,12.7-33.1,19c-5.6,3.2-11.1,6.4-16.7,9.6C166,249.2,165,249.9,164.1,250.8z"/>
			<path class="st3" d="M28,48c0.7,0.9,1.5,0.2,2.1-0.1c4.6-2.6,9.1-5.3,13.7-7.9c4.9-2.8,9.8-5.6,14.7-8.5c0.4-0.2,0.9-0.6,1.3,0
				c-2,1.9-4.1,3.6-6.3,5.2c-5.7,4.8-11,10.1-15.8,15.9c-0.6,0.8-1.3,1.6-2.1,2.1c-3,0.9-5.5,2.8-8.2,4.3c-2.7,1.5-5.2,3.1-7.9,4.5
				c-0.6,0.3-1.5,1.2-1.9-0.2c2-3.7,4.3-7.3,6.9-10.6C25.5,51,26.7,49.4,28,48z"/>
			<path class="st3" d="M78.5,20.7c0.2-1.4,1.6-1.5,2.5-2c4-2.5,8.1-4.7,12.2-7.1c4.7-2.7,9.4-5.4,14.2-8.2c0.8-0.5,1.7-0.9,1.9-2
				c4.1-0.8,8.3-1.2,12.5-1.3c1.9-0.1,3.8,0,5.7-0.1c0.1,1.2-0.8,1.5-1.6,1.9c-4.1,2.5-8.3,4.9-12.5,7.3c-1.2,0.7-2.4,1.5-3.4,2.4
				c-3.3,1-6.8,1.4-10.2,2.2c-6.5,1.5-12.8,3.6-18.8,6.2C80.3,20.4,79.5,21,78.5,20.7z"/>
			<path class="st4" d="M232.9,201.2c-0.2-0.4-0.4-0.4-0.8-0.2c-5.3,3.1-10.7,6.2-16,9.2c-1.6,0.9-3.2,1.9-4.8,2.8
				c-0.6,0.4-1.3,0.6-2.1,0.6c-0.3-0.7,0.2-1,0.6-1.4c5.2-5,9.9-10.4,14.1-16.2c0.3-0.4,0.7-0.8,1.1-1c4.2-1.9,8-4.5,12.1-6.7
				c0.9-0.5,1.8-1,2.7-1.5c0.6-0.3,1.3-0.8,2-0.2C239.3,191.7,236.3,196.6,232.9,201.2z"/>
			<path class="st5" d="M164.1,250.8c-0.1-1,0.7-1.2,1.3-1.6c5-2.9,10-5.8,15-8.7c10.8-6.2,21.6-12.5,32.3-18.7
				c1.2-0.9,2.6-1.5,4.1-1.8c-1.7,1.5-3.3,3-5,4.6c-5,4.5-10.5,8.6-16.2,12.1C185.9,242.8,175.3,247.6,164.1,250.8z"/>
			<path class="st6" d="M17.6,63.2c0.6,0.9,1.2,0.2,1.8-0.1c4.2-2.4,8.4-4.9,12.7-7.2c1.1-0.6,2.1-1.7,3.5-1.4
				c-0.6,1.9-2.1,3.2-3.2,4.7c-2.3,3.3-4.4,6.8-6.4,10.3c-0.4,0.7-0.7,1.4-1.5,1.7c-1.8,0.1-3.1,1.3-4.5,2.1c-2.5,1.4-5,2.9-7.5,4.3
				c-0.7,0.4-1.5,1.2-2.4,0.5C12.1,73,14.6,68,17.6,63.2z"/>
			<path class="st6" d="M110,11.2c2.2-2.2,5.2-3.3,7.8-4.9c2.8-1.7,5.6-3.3,8.4-4.9c0.6-0.3,1.1-0.8,1.4-1.4c3.6-0.1,7.2,0,10.8,0.4
				c0.7,0.3,1.4-0.1,2.1,0.2l1.3,0.1c0.6,0.3,1.2,0,1.8,0.2v0c0.2,1-0.6,1.2-1.2,1.6c-2.7,1.7-5.5,3.3-8.3,4.8c-1.6,0.9-3,2-4.5,2.8
				c-2.5,0.3-5.1-0.2-7.7,0.3c-1,0.1-2,0.2-3,0.2c-0.7-0.1-1.4,0-2,0.2c-1.6,0.2-3.3,0.4-4.9,0.6C111.3,11.8,110.6,11.6,110,11.2z"
				/>
			<path class="st7" d="M188.5,15.3c2.6,1.1,5.1,2.5,7.4,4.1c1.7,1,3.2,2.2,4.8,3.3c0.2,0.6-0.3,0.8-0.6,1c-2.8,1.7-5.6,3.5-8.5,4.9
				c-0.6,0-1.1-0.2-1.6-0.5c-3.2-1.9-6.5-3.9-9.9-5.6c-0.4-0.2-0.7-0.4-0.9-0.8c-0.2-0.9,0.4-1.2,1-1.6
				C183,18.6,185.7,16.9,188.5,15.3z"/>
			<path class="st8" d="M167.2,239.3c-1.2,1.8-3.3,2.4-5,3.5c-6.2,3.6-12.4,7.2-18.7,10.7c-0.7,0.3-1.2,0.9-1.4,1.6l-1.6,0.1
				c-0.7,0.3-1.4,0-2.1,0.2c-2.6,0.4-5.2,0.5-7.8,0.3c-0.4-1,0.5-1.2,1.1-1.6c4.5-2.6,8.9-5.2,13.4-7.7c1.4-0.8,2.8-1.7,4-2.8
				c5.6-1.4,11.2-2.6,16.7-4.5C166.2,239.1,166.7,238.9,167.2,239.3z"/>
			<path class="st0" d="M10,78.2c2.1-0.3,3.6-1.7,5.3-2.7c2.5-1.3,4.9-2.9,7.4-4.2c0.5-0.3,1-0.9,1.6-0.2c0.2,0.7,0.1,1.4-0.4,1.9
				c-1.7,3.1-3.2,6.3-4.5,9.6c-0.3,0.6-0.4,1.2-1,1.5c-1.2,0.1-2.4,0.6-3.4,1.3c-2.4,1.4-4.8,2.8-7.1,4.1c-0.6,0.4-1.3,1-2.1,0.5
				C6.8,86,8.2,82,10,78.2z"/>
			<path class="st9" d="M119.4,255.6c-4.1-0.1-8.1-0.5-12.1-1.4c0.4-0.6,0.9-1.1,1.6-1.4c3.1-1.8,6.2-3.6,9.3-5.4
				c1.1-0.6,2-1.4,3.1-2c4.6,0.4,9.2-0.4,13.7,0c1.3,1,0.1,1.4-0.5,1.8c-1.8,1.2-3.6,2.2-5.5,3.3c-2.7,1.6-5.5,3.1-8.1,4.8
				C120.4,255.5,120,255.9,119.4,255.6z"/>
			<path class="st0" d="M130,9.8c1.6-2,4-2.7,6.1-4c2.1-1.3,4.3-2.5,6.5-3.8c0.4-0.2,0.8-0.6,1-1.1c3.8,0.3,7.6,0.9,11.3,2.1
				c0.4,0.1,0.8,0.1,1.2,0.1c0.4,1.1-0.6,1.3-1.2,1.6c-2.1,1.2-4.2,2.5-6.4,3.7c-1.5,0.8-3,1.5-3.9,3c-3.4-0.1-6.7-0.8-10.1-1
				c-0.9-0.2-1.8-0.3-2.7-0.2C131.1,10.3,130.4,10.4,130,9.8z"/>
			<path class="st10" d="M165.2,5.5c4.2,1.1,8.2,2.6,12.2,4.4c0.5,1.1-0.4,1.4-1,1.8c-2.9,1.8-6,3.5-8.9,5.2
				c-2.3-0.1-4.4-1.2-6.6-1.8c-2.1-0.6-4.3-0.7-6.2-1.9c-0.3-1.1,0.6-1.5,1.3-1.9c2.4-1.4,4.7-2.8,7.2-4.1
				C163.9,6.8,164.6,6.2,165.2,5.5z"/>
			<path class="st10" d="M1,112.1c0.4-4.5,1.2-8.9,2.4-13.2c1.3,0,2.3-0.9,3.3-1.5c2.2-1.2,4.3-2.5,6.6-3.7c0.6-0.3,1.5-1,1.9,0.3
				c-1,4.2-1.7,8.5-3,12.6c-3.2,1.7-6.3,3.5-9.4,5.3C2.2,112.2,1.6,112.6,1,112.1z"/>
			<path class="st11" d="M167.5,16.6c2-1.9,4.6-2.7,6.8-4.3c1-0.8,2.6-0.9,3-2.5c3.9,1.4,7.6,3.2,11.2,5.4c-1.4,1.8-3.6,2.4-5.3,3.6
				c-1,0.6-2,1.2-3.1,1.7c-0.4,0.2-0.7,0.6-0.7,1c-0.6,0.4-1.1,0.1-1.6-0.1c-2.9-1.4-5.9-2.7-9-3.8
				C168.3,17.5,167.5,17.5,167.5,16.6z"/>
			<path class="st12" d="M54.8,233c-3.6-2.3-7-5-10.2-7.9c2.9-2,6-3.6,9.1-5.4c0.5,0,1,0.2,1.4,0.5c2.5,1.9,5,3.9,7.6,5.6
				c0.5,0.3,1,0.6,1,1.3c0,0.5-0.4,1-0.8,1.2C60.2,229.8,57.6,231.6,54.8,233z"/>
			<path class="st13" d="M249.3,168.6c-1.1,3.6-2.4,7.1-4,10.5c-4.4,2.8-8.9,5.2-13.3,7.8c-0.5,0.4-1.3,0.6-1.9,0.3
				c-0.3-0.5,0-1,0.3-1.4c1.8-3.1,3.4-6.3,4.8-9.6c0.2-0.5,0.5-0.9,0.9-1.1c3.4-1.3,6.3-3.5,9.5-5.2c0.7-0.4,1.5-0.8,2.2-1.2
				C248.3,168.4,248.8,168.1,249.3,168.6z"/>
			<path class="st11" d="M1,112.1c2-0.4,3.4-1.8,5.2-2.7c1.4-0.7,2.7-1.5,4.1-2.3c0.5-0.3,1-0.5,1.6-0.5c0.3,0.7,0.3,1.4,0.1,2.1
				c-0.4,3.1-0.8,6.2-1,9.3c0,0.3-0.1,0.7-0.3,0.9C7.5,120,5,122,2.2,123.4c-0.6,0.3-1.3,1.1-2.1,0.4v-0.3c0.3-1.3-0.1-2.6,0.2-3.8
				C0.3,117.2,0.5,114.6,1,112.1z"/>
			<path class="st14" d="M119.4,255.6l6.2-3.6c2.9-1.7,5.8-3.3,8.7-5.1c0.4-0.3,1.1-0.5,1.1-1.1c0.8-0.8,1.9-0.7,2.8-0.8
				c3-0.3,5.9-0.7,8.8-1.2c0.6-0.1,1.3-0.4,1.9,0.3c-0.6,1.4-2,1.8-3.2,2.5c-4.6,2.7-9.3,5.3-13.9,8c-0.4,0.3-1.1,0.5-1.1,1.1
				C126.9,256.1,123.1,256,119.4,255.6z"/>
			<path class="st12" d="M253.9,105.2c0.8,3.2,1.2,6.5,1.3,9.8c0.3,2.5,0.3,2.5-1.8,3.7c-1.9,1-3.7,2.2-5.5,3.2
				c-0.9,0.4-1.5,1.4-1.4,2.4c0,0.7,0.4,1.6-0.7,2c-0.4-0.3-0.6-0.7-0.5-1.2c0.1-4.7-0.5-9.3-0.9-14c0.1-0.6,0.6-0.7,1.1-1
				C248.3,108.6,251.1,106.9,253.9,105.2z"/>
			<path class="st15" d="M191.5,28.5c2.3-1.8,5-2.9,7.4-4.5c0.6-0.4,1.2-0.8,1.8-1.2c3.1,2,6.1,4.2,8.8,6.7c0.1,1.3-1,1.5-1.7,2
				c-2.2,1.3-4.5,2.6-6.8,4c-0.1,0-0.2,0-0.3,0c-3.2-1.9-6.1-4.3-9.1-6.4C191.5,28.8,191.5,28.6,191.5,28.5z"/>
			<path class="st16" d="M216.3,35.3c2.8,2.5,5.4,5.2,7.8,8.1c0,1.1-1,1.4-1.7,1.9c-2.1,1.4-4.4,2.3-6.4,3.9c-0.6,0.1-1-0.2-1.3-0.6
				c-2.2-2.1-4.3-4.3-6.4-6.5c-0.4-0.3-0.6-0.7-0.6-1.2c0.3-0.9,1.1-1.2,1.9-1.6C211.7,38,214.1,36.9,216.3,35.3z"/>
			<path class="st16" d="M6.8,169.2c-1.3-3.4-2.3-6.9-3.1-10.5c0.3-0.8,1.1-1.1,1.8-1.5c1.9-1.1,3.8-2.2,5.7-3.3
				c0.6-0.4,1.3-0.8,1.9,0.1c1,3.4,2.2,6.7,2.6,10.3c-2.6,1.9-5.4,3.5-8.3,4.9C7.2,169.4,7,169.4,6.8,169.2z"/>
			<path class="st17" d="M253.9,105.2c0,0.2,0,0.4-0.1,0.5c-2.9,1.9-5.7,3.9-9,5c-0.4-0.3-0.7-0.8-0.7-1.3c-0.4-2.7-1.1-5.3-1.5-7.9
				c-0.1-1,0.5-2,1.4-2.4c2.5-1.4,5-2.9,7.5-4.4C252.6,98.1,253.4,101.6,253.9,105.2z"/>
			<path class="st18" d="M251.5,94.7c-0.4,1.4-1.9,1.5-2.9,2.1c-1.5,1-3.2,1.9-4.8,2.8c-0.6,0.3-1,1-0.8,1.6
				c-0.3,0.1-0.6-0.1-0.6-0.4c0,0,0,0,0,0c-0.8-3.4-2.1-6.8-2.8-10.2c0-0.5,0.3-0.9,0.6-1.1c2.7-1.6,5.2-3.4,8.2-4.6
				C249.8,88.1,250.8,91.3,251.5,94.7z"/>
			<path class="st17" d="M53.9,220c-2.8,1.6-5.5,3.3-8.3,4.9c-0.3,0.1-0.6,0.2-1,0.2c-2.6-2.1-5.1-4.4-7.4-6.8
				c0-0.2,0.1-0.4,0.2-0.5c2.9-1.8,5.6-3.8,8.9-4.9c2.1,1.1,3.5,2.9,5.2,4.4C52.4,218.1,53.7,218.5,53.9,220z"/>
			<path class="st19" d="M54.8,233c1.3-1.5,3.2-2,4.7-3.1c1.4-1,3.1-1.3,4.1-2.8c2.6,0.7,4.8,2.4,7.1,3.7c0.9,0.5,2.1,0.6,2.4,1.8
				c-2.3,2-5.1,3.2-7.7,4.7c-0.7,0.4-1.3,1.3-2.3,1.1C60.2,236.8,57.4,235,54.8,233z"/>
			<path class="st20" d="M14.9,93.8c-0.6-0.6-1,0-1.5,0.2c-2.9,1.6-5.7,3.3-8.6,4.9c-0.4,0.2-1.1,1.3-1.5-0.1c0.5-3,1.3-5.9,2.4-8.8
				c3.1-1.2,5.8-3.2,8.7-4.8c0.9-0.5,1.8-0.9,2.7-1.4c0.4-0.2,0.8-0.4,1.2,0.1c0.2,0.3,0.3,0.8,0.1,1.1c-0.9,2.6-1.8,5.2-2.6,7.8
				C15.6,93.3,15.5,93.8,14.9,93.8z"/>
			<path class="st20" d="M165.2,5.5c0.4,0.9-0.3,1.1-0.8,1.4c-2.7,1.6-5.4,3.1-8.1,4.7c-0.6,0.4-1.3,0.6-1.6,1.3
				c-0.4,0.3-0.9,0.4-1.4,0.3c-2.4-0.5-4.8-1-7.3-1.3c-0.5,0-0.9-0.3-1.1-0.7c-0.5-0.8,0-1.1,0.6-1.5c3.1-1.7,6.1-3.5,9.1-5.2
				c0.5-0.3,1.3-0.5,1.4-1.3c2.7,0.2,5.2,1.3,7.7,2.1C164.2,5.3,164.7,5.4,165.2,5.5z"/>
			<path class="st21" d="M248.4,84.9c-2.2,1.5-4.5,2.9-6.9,4.2c-0.6,0.4-1.3,0.6-1.6,1.4c-0.5,0.1-0.7-0.3-0.8-0.7c-1-2.7-2-5.3-3-8
				c-0.1-0.3-0.2-0.7-0.1-1c0.8-1.3,2.3-1.7,3.5-2.4c1.6-1.1,3.3-2,5.1-2.8C246.2,78.5,247.5,81.7,248.4,84.9z"/>
			<path class="st18" d="M46.3,213.3c-3.2,1.4-6.1,3.4-9.1,5.1c-2.4-2.3-4.7-4.8-6.8-7.4c1-1.4,2.7-1.8,4-2.6c1.5-1,3.1-1.9,4.7-2.6
				c1.3,0.5,1.9,1.7,2.8,2.6c1.2,1.1,2.4,2.3,3.6,3.6C46,212.1,46.6,212.5,46.3,213.3z"/>
			<path class="st22" d="M255.1,142.2c-0.3,3.8-0.9,7.5-1.7,11.2c-3.1,1.4-6,3.2-9,4.9c-0.8,0.4-1.6,1.2-2.6,0.4
				c-0.4-0.9,0.1-1.8,0.3-2.6c0.5-2.2,0.9-4.5,1.6-6.6c0.3-0.6,0.8-1,1.3-1.3c2.7-1.4,5.1-3.1,7.8-4.4
				C253.7,143.4,254.2,142.5,255.1,142.2z"/>
			<path class="st21" d="M39.2,205.8c-2.8,1.8-5.8,3.5-8.8,5.1c-2.2-2.4-4.3-5-6.1-7.8c0.2-0.7,0.9-1,1.5-1.3
				c1.9-1.1,3.7-2.1,5.6-3.2c0.5-0.4,1.1-0.6,1.7-0.5c2.1,1.5,3.3,3.8,4.9,5.6C38.5,204.3,39.5,204.8,39.2,205.8z"/>
			<path class="st19" d="M246,126.3c-0.6-3,0.7-4.8,3.4-5.8c1.3-0.5,2.3-1.5,3.6-2.1c1.6-0.7,2.4-1.6,2.1-3.4
				c0.4,2.1,0.6,4.3,0.6,6.4c0.1,1.8,0,3.7,0.1,5.5c-0.4,0.6-0.9,1-1.6,1.3c-2.3,1.2-4.6,2.7-6.9,3.9c-0.6,0.4-1,1.1-1,1.8
				c-0.1,0.5-0.2,1.3-1,0.4C245,131.7,245.2,128.9,246,126.3z"/>
			<path class="st23" d="M249.3,168.6c-2.7,0.9-5,2.7-7.5,4c-1.9,1-3.5,2.5-5.7,2.7c-0.3-0.4-0.3-0.9-0.1-1.3c1-2.4,2-4.8,2.9-7.3
				c0.1-0.3,0.3-0.5,0.5-0.7c3.4-1.6,6.5-3.6,9.7-5.4c0.8-0.4,1.5-1.3,2.6-0.6C251.2,163,250.4,165.8,249.3,168.6z"/>
			<path class="st7" d="M0,123.9c2-0.4,3.4-1.8,5.1-2.7c1.2-0.6,2.3-1.3,3.5-2c0.4-0.2,1-0.7,1.5-0.1c0.6,0.8,0.8,1.9,0.5,2.9
				c-0.4,3.1,0.2,6.2,0,9.2c0,0.8,0,1.6-0.2,2.3c-0.6,0.9-0.9,0.3-1-0.3c-0.2-1.1-0.2-2.2-0.1-3.4c0-1.1-0.4-1.3-1.3-0.7
				c-2.1,1.3-4.1,2.5-6.3,3.6c-0.6,0.3-1.4,0.8-1.7-0.4L0,123.9z"/>
			<path class="st22" d="M86.6,249.1c-3-0.8-6-2-8.8-3.4c0-0.7,0.5-1.1,1-1.4c2.9-1.7,5.9-3.3,8.8-5.2c0.2-0.1,0.5-0.2,0.8-0.2
				c3,0.6,5.9,1.6,8.7,2.8c0.2,0.9-0.6,1.3-1.2,1.6c-2.1,1.3-4.3,2.5-6.4,3.7C88.6,247.7,87.6,248.4,86.6,249.1z"/>
			<path class="st24" d="M12.8,154c-1.9,0.1-3.1,1.5-4.7,2.3c-1.5,0.7-2.9,1.6-4.4,2.5c-0.9-3.1-1.6-6.3-2-9.5
				c2.6-1.3,5.1-2.8,7.6-4.2c0.6-0.3,1.3-1.1,2.1-0.2c0.5,2.4,1,4.8,1.5,7.3C13,152.7,13.3,153.4,12.8,154z"/>
			<path class="st25" d="M0.1,132.4c0.4,0.7,0.9,0.4,1.4,0.1c2.3-1.3,4.6-2.6,6.9-3.9c1.1-0.7,1.5-0.5,1.5,0.9
				c0,1.5-0.4,3.1,0.3,4.6c0.8,1,0.5,2,0.3,3.1c-1.2,1.5-3,1.9-4.5,2.9c-1.1,0.7-2.2,1.4-3.4,1.9c-0.6,0.3-1.3,0.9-1.9-0.1l-0.1-1.3
				c-0.3-0.8,0.1-1.7-0.3-2.5C0.1,136.2,0,134.3,0.1,132.4z"/>
			<path class="st24" d="M216.2,35.3c-0.7,1.8-2.6,1.9-3.9,2.9c-1.4,1.1-3.2,1.6-4.5,2.8c-0.8,0.2-1.1-0.4-1.5-0.8
				c-1.5-1.2-2.9-2.5-4.4-3.7c-0.4-0.3-1-0.6-0.8-1.3c1.5-1.8,3.9-2.4,5.8-3.7c1-0.6,2.1-1,2.7-2.1c1.7,1.2,3.2,2.6,4.6,4.1
				C214.7,34.3,215.4,34.9,216.2,35.3z"/>
			<path class="st26" d="M230.1,187.2c3.9-1.7,7.3-4.1,11-6.1c1.4-0.7,2.5-1.9,4.2-2.1c-1,2.6-2.2,5.1-3.5,7.5
				c-2.6,0.5-4.5,2.2-6.7,3.4c-2.9,1.5-5.7,3.2-8.5,4.8c-0.5,0.3-1,0.5-1.6,0.6c-0.3-0.5,0-0.9,0.2-1.2c1.4-2.1,2.8-4.2,4.1-6.4
				C229.5,187.4,229.7,187.1,230.1,187.2z"/>
			<path class="st27" d="M215.9,49.1c0.6-1.7,2.4-1.8,3.6-2.6c1.5-1.1,3.3-1.6,4.5-3.1c2,2.1,3.8,4.3,5.5,6.7c0.4,0.7,0,1.1-0.5,1.4
				c-2.4,1.6-4.9,3-7.6,4.2c-0.4,0-0.8-0.1-1-0.4c-1.4-1.7-2.8-3.3-4.2-5C215.9,49.9,215.8,49.5,215.9,49.1z"/>
			<path class="st27" d="M6.8,169.2c2.4-1.4,4.7-2.7,7.1-4c0.5-0.3,1.1-0.5,1.7-0.7c0.1,0,0.3,0.1,0.3,0.1c1.4,2.5,2.4,5.2,2.9,8
				c-2.4,1.6-5,3.1-7.6,4.5c-0.4,0.3-1,0.3-1.4-0.1C8.5,174.5,7.5,171.9,6.8,169.2z"/>
			<path class="st28" d="M88.4,239.3c-3.4,2.3-7.3,3.9-10.5,6.5c-2.7-1-5.4-2.2-7.9-3.7c1.5-1.6,3.5-2.3,5.3-3.4
				c1.5-1,3.2-1.9,4.7-2.9c2.9,0.7,5.6,1.8,8.2,3.1C88.4,238.9,88.4,239.1,88.4,239.3z"/>
			<path class="st29" d="M120.8,245.8c-0.1,1.2-1.3,1.3-2.1,1.7c-3.8,2.3-7.7,4.5-11.5,6.7c-2.4-0.2-4.8-0.6-7.1-1.4
				c-0.2-0.6,0.2-1,0.6-1.2c3.9-2.4,7.9-4.8,11.9-7c2.2,0,4.4,0.2,6.6,0.5C119.9,245.2,120.4,245.4,120.8,245.8z"/>
			<path class="st28" d="M255.1,142.2c-0.9,2-3,2.2-4.6,3.3c-2.1,1.4-4.3,2.5-6.5,3.8c-0.2-0.2-0.4-0.4-0.3-0.7
				c0.3-2.7,0.7-5.3,1.3-7.9c2.3-1.6,4.8-2.9,7.2-4.3c1.4-0.7,2.6-1.7,3.5-3C255.8,136.3,255.6,139.3,255.1,142.2z"/>
			<path class="st30" d="M255.8,133.4c-0.1,1.2-1,2.3-2.1,2.7c-2.4,1.2-4.7,2.7-7,4c-0.4,0.2-0.8,0.3-1.3,0.3c-1-2-0.5-3.9,0.4-5.8
				c-0.1-2.2,1.4-3.1,3-3.9c2.4-1.2,4.7-2.6,7.1-3.9C256,129.1,256,131.2,255.8,133.4z"/>
			<path class="st30" d="M79.9,235.9c-0.9,1.5-2.5,1.9-3.8,2.7c-2,1.2-4.1,2.3-6.1,3.5c-2.4-1-4.7-2.2-6.8-3.7
				c3.2-2.1,6.5-4,9.9-5.8c0.4-0.2,0.8-0.1,1.1,0.1c1.5,0.8,3,1.4,4.6,2.1C79.2,235,79.8,235.2,79.9,235.9z"/>
			<path class="st31" d="M33.1,198.4c-1.9,0.4-3.3,1.8-5,2.6c-1.3,0.6-2.5,1.4-3.8,2.2c-1.6-2-3.1-4.2-4.4-6.4
				c0-0.3,0.2-0.5,0.4-0.7c2.6-1.7,5.3-3.2,8-4.6c0.4,0.1,0.8,0.4,1,0.8c1.1,1.6,2.2,3.2,3.3,4.8C33,197.4,33.4,197.8,33.1,198.4z"
				/>
			<path class="st32" d="M15.9,189.9c-1.5-2.4-2.7-4.9-3.8-7.4c2.6-0.6,4.6-2.3,6.9-3.5c0.7-0.4,1.4-1,2.3-0.7
				c1.2,1.9,2.2,4,3.3,5.9c0.3,0.4,0.3,0.9,0.1,1.3c-2.4,1.7-5,2.9-7.5,4.4C16.9,190.2,16.3,190.2,15.9,189.9z"/>
			<path class="st31" d="M244.7,75.5c-2.6,2.1-5.6,3.4-8.5,5.1c-0.2,0-0.4,0-0.5-0.1c-1.1-2.3-2.6-4.4-3.1-7
				c1.8-1.6,4.1-2.5,6.1-3.8c0.7-0.6,1.6-1,2.6-1.1C242.7,70.8,243.8,73.1,244.7,75.5z"/>
			<path class="st32" d="M233.7,55.8c1.5,1.9,2.8,4,3.9,6.1c0.2,0.8-0.5,1-1,1.3c-2.4,1.4-4.7,2.8-7.1,4.2c-0.1,0-0.1,0-0.2,0
				c-2-1.9-3.5-4.3-4.4-6.9c0.4-0.6,0.9-1,1.5-1.3c1.8-1,3.6-2,5.4-3.1C232.4,55.8,233,55.4,233.7,55.8z"/>
			<path class="st33" d="M251.8,160.1c-2.6,0.5-4.4,2.4-6.6,3.4c-1.9,0.8-3.4,2.4-5.5,2.7c-0.2-0.2-0.3-0.6-0.2-0.9
				c0.6-2,1.2-3.9,1.8-5.9c0.1-0.3,0.4-0.6,0.7-0.7c2.6-0.4,4.3-2.4,6.6-3.4c1.6-0.7,2.8-2.2,4.8-2
				C253.1,155.6,252.5,157.9,251.8,160.1z"/>
			<path class="st34" d="M15.9,189.9c2.4-0.6,4.3-2.3,6.5-3.4c0.7-0.5,1.5-0.8,2.3-1c1.5,1,3.8,4.8,3.7,6.1l-8.5,5.1
				C18.4,194.5,17.1,192.3,15.9,189.9z"/>
			<path class="st34" d="M229.4,67.4c1.4-1.7,3.4-2.3,5.1-3.4c1-0.7,2.2-1.1,3-2c1.5,2.1,2.7,4.3,3.8,6.7c-2.8,1.7-5.6,3.4-8.6,4.9
				c-0.3,0.1-0.6,0-0.7-0.3c-1-1.7-1.9-3.4-2.8-5.2C229.2,67.8,229.3,67.6,229.4,67.4z"/>
			<path class="st35" d="M112.4,245.1c-3.1,2.3-6.6,3.9-9.9,6c-0.9,0.4-1.7,1-2.3,1.8c-2.3-0.3-4.6-0.9-6.8-1.7
				c-0.5-1,0.4-1.3,0.9-1.6c2-1.3,4.1-2.4,6.2-3.6c1.4-0.8,2.6-1.7,3.9-2.5c2.5-0.1,4.9,0.7,7.4,1
				C112.2,244.5,112.4,244.8,112.4,245.1C112.4,245,112.4,245.1,112.4,245.1z"/>
			<path class="st36" d="M104.2,243.7c-1.2,2-3.5,2.4-5.2,3.6c-1.5,1-3.2,1.9-4.8,2.7c-0.5,0.3-0.8,0.5-0.8,1.1
				c-2.3-0.5-4.6-1.2-6.8-2.1c0.5-1.7,2.1-1.8,3.3-2.6c2.4-1.6,5-2.7,7.2-4.5c0.4-0.3,0.8-0.4,1.3-0.2c1.6,0.4,3.3,0.7,4.9,1.1
				C103.7,243,104.2,243.1,104.2,243.7z"/>
			<path class="st15" d="M0.7,141.8c1,0.6,1.6-0.3,2.4-0.6c2.4-1.2,4.4-3,7-3.8c1.1,2.2,1.4,4.7,1,7.1c-2.3,1.3-4.5,2.6-6.8,3.9
				c-0.8,0.4-1.5,1.3-2.6,0.9C1.2,146.8,0.9,144.4,0.7,141.8z"/>
			<path class="st37" d="M233.7,55.8c-3.1,1.3-5.8,3.2-8.7,4.8c-1.9-1.1-3.2-2.9-3.7-5.1c2.3-1.4,4.7-2.8,7-4.2
				c0.5-0.3,1.1-0.5,1.1-1.3C231,51.9,232.4,53.8,233.7,55.8z"/>
			<path class="st37" d="M21.3,178.4c-2.4,1.1-4.7,2.4-7,3.8c-0.7,0.4-1.4,0.8-2.1,0.3c-1-1.7-1.8-3.5-2.4-5.4c2.3-0.5,4-2,6-3.1
				c0.9-0.6,1.8-1,2.9-1.3C20.1,174.2,21,176.2,21.3,178.4z"/>
			<path class="st7" d="M0.3,119.7c-0.1,1.3,0.3,2.6-0.2,3.8C-0.1,122.3,0,121,0.3,119.7z"/>
			<path class="st15" d="M0.4,138.1c0.5,0.8,0.2,1.6,0.3,2.5C0.3,139.8,0.3,139,0.4,138.1z"/>
			<path class="st2" d="M138.4,255.5c0.7-0.5,1.4-0.2,2.1-0.2C139.9,255.6,139.1,255.7,138.4,255.5z"/>
			<path class="st38" d="M21.3,178.4l-2.7-5.8c-1-2.7-2-5.4-3-8.1c-0.9-3.5-1.8-7-2.7-10.5c-0.5-3.2-1.6-6.2-1.7-9.5
				c-0.3-2.4-0.7-4.7-1-7.1c0-1.1,0-2.3,0-3.4c0.1-5-0.3-9.9,0-14.9c0.6-1.8,0.4-3.6,0.7-5.4c0.4-2.4,0.7-4.7,1-7.1
				c1-4.3,1.8-8.6,3.1-12.9l3.4-9.8c1.3-2.3,2.2-4.8,3.3-7.2c0.9-1.9,1.9-3.8,2.8-5.7c2.2-3.5,4.4-7.1,6.7-10.6
				c1.3-2.1,2.8-4.1,4.5-6c2.9-3.5,6.1-6.8,9.2-10.1c3.7-4,8-7.2,12-10.8c1-0.8,2.1-1.5,3.2-2.1c5.7-4.1,11.9-7.6,18.2-10.5
				c0.1-0.1,0.2-0.2,0.4-0.3c8.5-3.9,17.4-6.8,26.6-8.5c1.7-0.2,3.3-0.5,4.9-1c2.4,0,4.7-0.8,7.1-0.7c0.5-0.4,1.2,0.1,1.7-0.3l3,0
				c4.2-0.3,8.3-0.3,12.5,0c3.5,0.1,7,0.5,10.5,1l9.8,1.7l12.9,3.7l11.8,5.1c4.2,2,8.1,4.5,12.2,6.8l9.5,6.8l6.8,5.8
				c2.6,2.8,5.3,5.5,8.1,8.1c1.7,2.3,3.5,4.4,5.4,6.4c1.1,1.8,2.3,3.5,3.7,5.1c1.3,2.4,2.8,4.6,4.4,6.8c0.9,2.1,2.1,4.1,3.4,6.1
				l3.4,7.1l3.8,9.8l3.1,10.8c0.6,3.2,1.2,6.3,1.7,9.5c0.7,5,1.1,10.1,1.1,15.2c0,0.1,0.2,0.3,0.2,0.4c0.1,2.8-0.5,5.6-0.3,8.4
				c0,1.9-0.6,3.8-0.4,5.8c-0.4,2.9-0.9,5.9-1.3,8.8l-2.1,9.5c-0.8,2.5-1.5,5-2.3,7.4c-1.2,3-2.3,6.1-3.5,9.1l-6,11.9l-5.1,8.1
				c-4.8,6.5-10,12.6-15.8,18.3c-3.8,3.4-7.7,6.8-11.8,9.8c-9,6.6-18.9,11.8-29.4,15.6c-0.3,0.1-0.5,0.2-0.8,0.4
				c-6,2-12.1,3.6-18.3,4.8c-4.5,0.7-9,1.3-13.5,1.7c-4.9-0.1-9.7,0.5-14.6,0l-8.4-0.7l-8.1-1.4l-7.1-1.7l-8.8-2.7l-8.5-3.4
				l-6.8-3.3c-2.4-1.4-4.9-2.8-7.3-4.2c-0.7-0.4-1.4-0.9-2.1-1.3l-9.8-7.1l-7.5-6.7l-7.1-7.4l-6.1-7.5l-4.7-6.8
				c-1.1-2.1-2.4-4.1-3.7-6.1C23.9,183,22.1,180.9,21.3,178.4z"/>
			<path class="st3" d="M134.4,10.2h-12.5c1.5-0.7,3.1-0.2,4.6-0.3c1.2-0.1,2.3,0,3.5,0C131.4,10,132.9,9.5,134.4,10.2z"/>
			<path class="st3" d="M118.8,10.2c-0.5,0.6-1.1,0.3-1.7,0.3C117.6,10,118.2,10.3,118.8,10.2z"/>
			<path class="st39" d="M98.1,158.5c-2.1,1.5-4.9,1.6-7.1,0.3c-1.6-5.4-2.9-10.9-4.3-16.3c-3.8-13.8-7.4-27.6-11.1-41.4
				c-0.3-0.7-0.3-1.5-0.2-2.3c0-0.4,0.4-0.7,0.7-0.9c3.5-1.7,7.4-2,11.1-3.1c0.8-0.2,1.5-0.4,2.3-0.5c1.5,0.8,2.4,2.5,2.1,4.2
				c1.2-2.2,1.4-5.1,4.5-5.7c0.9-0.1,1.9-0.3,2.8-0.5c0.3,0,0.6,0.1,0.8,0.2c0.4,0.4,0.7,1,0.8,1.7c3.2,13.6,6.4,27.2,9.7,40.8
				c0.1,0.4,0.2,0.9,0.2,1.3c-0.2,1.8-1.3,3.2-2.2,4.7c-2.9,5.3-5.8,10.6-8.8,15.9C99.1,157.4,98.7,158,98.1,158.5z"/>
			<path class="st39" d="M180.7,157.1c-0.3,0.6-0.7,1-1.3,1.3c-2.7,1.3-5.6,1.6-8.5,2.3c-11.7,2.8-23.5,5.6-35.2,8.3
				c-5.8,1.3-11.5,2.8-17.3,4.1c-0.6,0.2-1.2,0.2-1.8,0.1c-0.8-0.6-0.2-1.2,0-1.8c2.2-4.3,4.6-8.5,7-12.7
				c4.1-7.4,8.1-14.9,12.3-22.3c0.8-1.4,1.2-3.1,2.8-3.9c1.6,0.4,3.1,1.1,4.4,2c7.4,4,14.7,8,22.1,12c4.9,2.7,9.8,5.2,14.6,8.1
				C180.2,155.4,180.5,156.2,180.7,157.1z"/>
			<path class="st40" d="M116.4,173c5.1-0.9,10.2-2.3,15.3-3.5c15.5-3.6,31-7.3,46.5-11c0.4-0.1,0.8-0.1,1.2-0.1
				c-2.9,2.3-6.1,4-9.2,5.9c-17.8,10.9-35.5,21.9-53.3,32.8c-2.1,1.3-4.2,2.6-6.3,3.9c-2.8,1.9-6.5,1.3-8.7-1.3
				c-0.4-0.5,0-1,0.2-1.4c4.4-8.1,8.8-16.2,13.3-24.2C115.7,173.6,115.9,173.1,116.4,173z"/>
			<path class="st40" d="M99.5,92.4l-0.7,0c-0.4,0.2-0.6,0.2-0.8-0.2c-0.9-0.2,1.3-0.2,0-0.7c-1.9-0.6-4-1.1-4.8-3.2
				c-0.2-0.4-0.4-0.8-0.2-1.3c4.3-2.6,8.7-5.2,13-7.8c13-8,26-15.9,39-23.9c3.4-2.1,6.5-1.6,9.2,1.3c-1.3,3.2-3.2,6.1-4.8,9.1
				c-2.8,5.3-5.8,10.5-8.6,15.7c-0.3,0.8-0.9,1.5-1.6,2c-5.2,1.5-10.4,2.7-15.7,3.7c-1.6,0.4-3.1,0.8-4.7,1.2
				c-2.7,0.7-5.4,1.4-8.2,2c-3,0.7-6,1.4-9,2.1C101,92.6,100.2,92.6,99.5,92.4z"/>
			<path class="st41" d="M116.4,173c-4.9,8.9-9.7,17.8-14.6,26.7c-1.7-1.4-2.3-3.7-1.8-5.8c1.3-5.3,2.6-10.7,3.9-16
				c0.2-0.9,0.7-1.8,1.2-2.6c16.8-25.2,33.6-50.4,50.3-75.6c0.5-1,1.3-1.8,2.2-2.2c0.4,0.7-0.2,1.3-0.4,1.9c-1.6,3.1-3.3,6-4.9,9
				c-0.5,0.9-0.9,1.8-1.3,2.8c-1.2,1.8-2.3,3.6-3.3,5.5c-1.5,2.6-2.9,5.2-4.3,7.8c-1.3,2.5-2.8,4.8-4,7.3c-0.1,0.4-0.4,0.7-0.7,0.9
				c-1.6,1.8-2.5,4-3.6,6.1c-6.3,11.3-12.4,22.6-18.6,33.8C116.5,172.7,116.4,172.8,116.4,173z"/>
			<path class="st41" d="M139.4,83c4.1-7.4,8.1-14.8,12.3-22.2c0.8-1.5,1.4-3.1,2.6-4.3c1.5,1.9,2,4.4,1.3,6.7
				c-1.3,4.9-2.4,9.9-3.7,14.8c-0.3,1-0.7,1.9-1.3,2.7c-16.8,25.2-33.5,50.4-50.3,75.5c-0.5,1-1.3,1.7-2.2,2.2
				c3.5-6.4,7-12.8,10.5-19.3c0.6-0.9,1-1.9,1.4-2.9c0.9-2.9,2.6-5.3,4-8c1.2-2.3,2.6-4.6,3.8-7c2.2-3.5,4.1-7.2,6.1-10.8
				c1.3-2.5,2.7-5,4.1-7.5c3.1-5.5,6.1-11,9.1-16.5C137.7,85.3,138.5,84.1,139.4,83z"/>
			<path class="st41" d="M180.7,157.1c-1-0.5-0.7-1.5-1-2.3c-1.5-2.6-1.7-5.5-2.6-8.3c-0.4-1.6-0.9-3.1-1.5-4.6
				c-0.8-3.8-2.1-7.5-2.8-11.4c-0.6-3-1.5-6-2.5-8.9c-2-7.5-4-14.9-5.9-22.4c-0.2-0.7-0.8-1.6,0.4-2.1c1.3,0.6,2.4,1.7,3,3.1
				c6,12,11.9,24.1,17.9,36.1c0.8,1.3,1,2.9,0.5,4.4C184.4,146.2,182.8,151.7,180.7,157.1z"/>
			<path class="st41" d="M75.4,98.8c2,7.4,4,14.8,6,22.1c3.2,11.8,6.3,23.7,9.4,35.5c0.2,0.7,0.9,1.5,0.2,2.4
				c-1.2-0.6-2.2-1.6-2.8-2.9c-5.9-12-11.9-24-17.9-36c-0.9-1.8-1.1-3.9-0.4-5.9c1.5-4.5,2.9-8.9,4.4-13.4
				C74.6,100,74.9,99.3,75.4,98.8z"/>
			<path class="st39" d="M164.8,97.1c-0.5,0.5-0.2,1-0.1,1.6c2,7.4,3.9,14.7,5.9,22.1c0.1,0.3,0.2,0.5,0,0.8
				c-0.6,0.1-1.2-0.1-1.7-0.5c-5.7-3-11.3-6.2-17-9.2c-0.4-0.2-0.8-0.4-0.9-0.9c-0.4-1.2,0.5-1.9,1-2.7c1.9-3.7,4.1-7.1,5.8-10.9
				C159.8,95.9,162.6,95.8,164.8,97.1z"/>
			<path class="st42" d="M93.1,87c0.6,2.7,2.9,3.4,5,4.2c1,0.4,0.8,0.6,0,1c-0.6,0.7-1.5,0.6-2.2,0.9c-1.6,0.4-2.3,1.7-2.9,3
				c-0.4,0.9-0.7,1.7-1.1,2.7c-0.9-1.5-1.1-3.2-2.2-4.5c-1.6-0.9-3.4-1.2-4.8-2.5c-0.2-0.2-0.1-0.4,0.2-0.4c3.6-0.9,5.9-3.1,6.6-7.2
				L93.1,87z"/>
			<path class="st43" d="M85,91.9c1.6,0.8,3.5,1,4.8,2.5c-1.8,1.1-3.9,1.1-5.9,1.7c-2.6,0.7-5.2,1.2-7.8,1.8c2.4-2,5.2-3.3,7.8-5
				C84.3,92.5,84.8,92.4,85,91.9z"/>
			<path class="st44" d="M118.2,121.5c-1.4,3.3-3.4,6.3-5,9.5c-1,1.8-2.1,3.6-3.1,5.4c-3.4-14.3-6.8-28.7-10.2-43
				c-0.1-0.3-0.2-0.6-0.3-1c3.7-1.1,7.4-1.9,11.1-2.7c0.5,0.5,0.9,1.2,1,1.9c2.2,9.3,4.5,18.6,6.6,27.9
				C118.5,120.2,118.5,120.9,118.2,121.5z"/>
			<path class="st45" d="M96,93.1c0.7-0.5,1.4-0.8,2.2-0.9l0.7,0.3C98,92.9,97,93.1,96,93.1z"/>
			<path class="st44" d="M176,141.9c1.2,1.7,1.3,3.8,1.8,5.7c0.7,2.4,1.3,4.8,1.9,7.2c-5.2-2.8-10.5-5.6-15.7-8.5
				c-8.4-4.6-16.8-9.1-25.2-13.7c1.1-3,3-5.6,4.4-8.4c0.7-0.3,1.3,0.1,1.9,0.4c9.8,5.4,19.7,10.7,29.5,16.1
				C175.2,140.9,175.7,141.3,176,141.9z"/>
			<path class="st46" d="M135.3,173.1c1.6-0.5,2.8-1.9,3-3.5c0.4,1.8,1.8,3.2,3.7,3.5c-1.9,0.2-3.3,1.7-3.6,3.5
				C137.8,174.6,136.9,173.5,135.3,173.1z"/>
			<path class="st39" d="M118.2,121.5c-1.1-4.9-2.3-9.8-3.4-14.7c-1.3-5.7-2.7-11.3-4.1-17l8.2-2c0.4,0.5,0.7,1,0.8,1.6
				c1.5,6.3,3,12.7,4.5,19c0.3,0.7,0.3,1.5,0.2,2.3C122.5,114.4,120.4,118,118.2,121.5z"/>
			<path class="st39" d="M139.4,83c-1.1,2.6-2.4,5-3.9,7.4c-2.1,3.9-4.2,7.7-6.3,11.5c-0.3,0.5-0.6,0.9-1,1.4c-0.8-0.5-0.8-1.3-1-2
				c-0.8-3.7-1.7-7.3-2.6-10.9c-0.3-1.3-0.7-2.5-1.2-3.7L139.4,83z"/>
			<path class="st44" d="M123.5,86.6c0.8,0,0.9,0.7,1,1.3c1.2,5.1,2.5,10.2,3.7,15.4l-4,7.4c-2-7.6-3.8-15.2-5.4-22.9L123.5,86.6z"
				/>
			<path class="st39" d="M176,141.9c-10.3-5.6-20.7-11.2-31-16.8c-0.6-0.3-1.2-0.6-1.8-0.9c1.5-2.6,2.7-5.3,4.4-7.8
				c1.1-0.2,1.8,0.5,2.6,0.9c7.1,4,14.4,7.8,21.5,11.7c0.6,0.3,1.2,0.7,1.5,1.3c0.8,3.3,1.7,6.7,2.5,10
				C175.9,140.9,175.9,141.4,176,141.9z"/>
			<path class="st44" d="M173.2,130.4l-25.7-13.9c1.1-1.8,1.6-4,3.4-5.4l19.6,10.6c1.3,1.7,1.2,3.8,1.9,5.7
				C172.8,128.3,173.1,129.3,173.2,130.4z"/>
			<path class="st47" d="M114,98.1c1.8-0.2,3.2-1.7,3.5-3.5c0.3,1.8,1.7,3.1,3.5,3.4c-1.8,0.6-3.1,1.4-3.4,3.2
				C117.1,99.6,115.7,98.3,114,98.1z"/>
		</g>
	</g>
</g>
</svg>
