<svg xmlns="http://www.w3.org/2000/svg" xmlns:xlink="http://www.w3.org/1999/xlink" width="459.89" height="414.945" viewBox="0 0 459.89 414.945"><defs><linearGradient id="a" x1="0.622" y1="0.737" x2="0.622" y2="-0.221" gradientUnits="objectBoundingBox"><stop offset="0" stop-color="#86f1ff"/><stop offset="1" stop-color="#fff"/></linearGradient><linearGradient id="b" x1="0.972" y1="3.578" x2="0.972" y2="2.571" xlink:href="#a"/><linearGradient id="c" x1="0.231" y1="9.837" x2="0.231" y2="8.625" xlink:href="#a"/><linearGradient id="d" x1="-1.209" y1="13.813" x2="-1.209" y2="12.651" xlink:href="#a"/><linearGradient id="e" x1="0.56" y1="1.116" x2="0.56" y2="0.092" xlink:href="#a"/><radialGradient id="f" cx="0.214" cy="0.927" r="1.299" gradientTransform="translate(0.046) scale(0.908 1)" gradientUnits="objectBoundingBox"><stop offset="0.29" stop-color="#0099ce"/><stop offset="0.42" stop-color="#039ed0"/><stop offset="0.579" stop-color="#0badd8"/><stop offset="0.752" stop-color="#1ac5e5"/><stop offset="0.935" stop-color="#2de8f7"/><stop offset="1" stop-color="#36f6ff"/></radialGradient><radialGradient id="g" cx="-3.552" cy="0.577" r="5.369" gradientTransform="translate(-0.138) scale(1.276 1)" xlink:href="#f"/><radialGradient id="h" cx="-0.258" cy="1.189" r="1.543" gradientTransform="translate(-0.07) scale(1.139 1)" xlink:href="#f"/><radialGradient id="i" cx="0.627" cy="1.527" r="2.075" gradientTransform="translate(-0.185) scale(1.371 1)" xlink:href="#f"/><radialGradient id="j" cx="-0.033" cy="1.083" r="1.635" gradientTransform="translate(-0.012) scale(1.025 1)" xlink:href="#f"/><radialGradient id="k" cx="0.419" cy="0.639" r="0.57" gradientTransform="matrix(0.672, -0.741, 0.706, 0.64, -0.313, 0.54)" gradientUnits="objectBoundingBox"><stop offset="0.521" stop-color="#fff" stop-opacity="0"/><stop offset="0.644" stop-color="#cefbff" stop-opacity="0.114"/><stop offset="0.911" stop-color="#54f2ff" stop-opacity="0.4"/><stop offset="1" stop-color="#2aefff" stop-opacity="0.502"/></radialGradient><radialGradient id="l" cx="0.13" cy="0.581" r="0.715" gradientTransform="translate(-0.219) scale(1.437 1)" gradientUnits="objectBoundingBox"><stop offset="0" stop-color="#fff" stop-opacity="0"/><stop offset="0.086" stop-color="#fff" stop-opacity="0.031"/><stop offset="0.219" stop-color="#fff" stop-opacity="0.118"/><stop offset="0.384" stop-color="#fff" stop-opacity="0.263"/><stop offset="0.575" stop-color="#fff" stop-opacity="0.459"/><stop offset="0.786" stop-color="#fff" stop-opacity="0.714"/><stop offset="1" stop-color="#fff"/></radialGradient><linearGradient id="m" x1="0.67" y1="0.513" x2="1.038" y2="0.402" gradientUnits="objectBoundingBox"><stop offset="0" stop-color="#0099ce"/><stop offset="0.118" stop-color="#0aabd7"/><stop offset="0.36" stop-color="#1dcbe8"/><stop offset="0.593" stop-color="#2be3f5"/><stop offset="0.812" stop-color="#33f1fc"/><stop offset="1" stop-color="#36f6ff"/></linearGradient><linearGradient id="n" x1="0.928" y1="0.628" x2="1.311" y2="0.549" xlink:href="#m"/><linearGradient id="o" x1="-0.545" y1="0.585" x2="-0.026" y2="0.493" xlink:href="#m"/><radialGradient id="p" cx="0.5" cy="0.5" r="4.644" gradientTransform="translate(0.599 0.665) scale(0.102 0.09)" gradientUnits="objectBoundingBox"><stop offset="0" stop-color="#6c96ae"/><stop offset="0.069" stop-color="#759eb4"/><stop offset="0.502" stop-color="#acd2dc"/><stop offset="0.825" stop-color="#cef2f5"/><stop offset="1" stop-color="#dbffff"/></radialGradient><linearGradient id="q" x1="0.5" y1="1" x2="0.5" gradientUnits="objectBoundingBox"><stop offset="0" stop-color="#232a4d"/><stop offset="1" stop-color="#00244a"/></linearGradient><linearGradient id="s" y1="0.5" x2="1" y2="0.5" gradientUnits="objectBoundingBox"><stop offset="0" stop-color="#1c223c"/><stop offset="1" stop-color="#00284c"/></linearGradient><linearGradient id="t" x1="1.154" y1="2.576" x2="2.421" y2="2.576" xlink:href="#s"/><linearGradient id="u" x1="0.518" y1="1.044" x2="0.518" y2="0.026" gradientUnits="objectBoundingBox"><stop offset="0" stop-color="#26110e"/><stop offset="1" stop-color="#633a1f"/></linearGradient><linearGradient id="v" x1="0.527" y1="1.045" x2="0.527" y2="0.049" gradientUnits="objectBoundingBox"><stop offset="0" stop-color="#0f3482"/><stop offset="1" stop-color="#0869bd"/></linearGradient><linearGradient id="w" x1="0.526" y1="4.457" x2="0.526" y2="-0.869" xlink:href="#v"/><linearGradient id="x" y1="0.5" x2="1" y2="0.5" gradientUnits="objectBoundingBox"><stop offset="0" stop-color="#105b47"/><stop offset="1" stop-color="#19e9bb"/></linearGradient><linearGradient id="y" x1="0.5" y1="1" x2="0.5" y2="0" xlink:href="#x"/><linearGradient id="z" x1="0.508" y1="1.001" x2="0.508" y2="-0.002" gradientUnits="objectBoundingBox"><stop offset="0" stop-color="#67ebff"/><stop offset="0.173" stop-color="#8aefff"/><stop offset="0.445" stop-color="#bcf6ff"/><stop offset="0.684" stop-color="#e0fbff"/><stop offset="0.876" stop-color="#f6fdff"/><stop offset="1" stop-color="#fff"/></linearGradient><linearGradient id="aa" x1="0.5" y1="1" x2="0.5" y2="-0.617" xlink:href="#x"/><linearGradient id="ab" y1="0.5" x2="1" y2="0.5" gradientUnits="objectBoundingBox"><stop offset="0" stop-color="#19e9bb" stop-opacity="0"/><stop offset="1" stop-color="#fff"/></linearGradient><linearGradient id="ac" x1="0.214" y1="0.419" x2="1.176" y2="0.419" gradientUnits="objectBoundingBox"><stop offset="0" stop-color="#12235e"/><stop offset="1" stop-color="#13468e"/></linearGradient><linearGradient id="ad" x1="0.786" y1="0.341" x2="1.772" y2="0.341" xlink:href="#ac"/><linearGradient id="ae" x1="1.887" y1="0.724" x2="1.887" y2="-0.317" xlink:href="#v"/><linearGradient id="af" x1="0.536" y1="1.055" x2="0.536" y2="-0.034" gradientUnits="objectBoundingBox"><stop offset="0" stop-color="#6c96ae"/><stop offset="1" stop-color="#dbffff"/></linearGradient><linearGradient id="ag" x1="0.513" y1="0.445" x2="0.636" y2="0.63" xlink:href="#af"/><linearGradient id="ah" x1="0.487" y1="1.751" x2="1.325" y2="1.751" gradientUnits="objectBoundingBox"><stop offset="0" stop-color="#274655"/><stop offset="1" stop-color="#8a9c7c"/></linearGradient><linearGradient id="ai" x1="0.05" y1="0.725" x2="3.085" y2="0.725" xlink:href="#ah"/><linearGradient id="aj" x1="0.578" y1="1.055" x2="0.578" y2="0.071" xlink:href="#v"/><linearGradient id="ak" x1="0.583" y1="1.095" x2="0.583" y2="0.157" xlink:href="#v"/><linearGradient id="al" x1="0.109" y1="0.891" x2="0.856" y2="0.144" gradientTransform="matrix(1, 0, 0, 1, 0, 0)" xlink:href="#f"/><linearGradient id="am" x1="0.109" y1="0.891" x2="0.856" y2="0.144" gradientTransform="matrix(1, 0, 0, 1, 0, 0)" xlink:href="#f"/><linearGradient id="ap" x1="0.109" y1="0.891" x2="0.856" y2="0.144" xlink:href="#x"/></defs><g transform="translate(-59.157 -52.608)"><path d="M115.859,257.687c-14.98,17.692,5.69,47.135-18.776,60.055-6.067,3.2-28.423,5.912-31.687,26.582-3.47,21.969,26.352,75.867,95.921,48.071,47.847-19.118,54.682-83.328,37.214-117.787C179.62,237.3,138.843,230.542,115.859,257.687Z" fill="url(#a)" style="mix-blend-mode:multiply;isolation:isolate"/><path d="M409.8,386.447c-8.794-13.242-34.442-43.674-47.433-49.768-13.807-6.477-55,2.88-49.964,54,3.462,35.161,44.448,51.915,70.477,46.986C411.061,432.332,423.3,406.765,409.8,386.447Z" fill="url(#b)" style="mix-blend-mode:multiply;isolation:isolate"/><path d="M412.324,384.79c-4.314-.675-15.236-1.125-18.88.376-3.874,1.6-9.619,11.675,1.671,20.139,7.765,5.821,18.761.626,22.591-5.561C421.852,393.046,418.942,385.825,412.324,384.79Z" fill="url(#c)" style="mix-blend-mode:multiply;isolation:isolate"/><path d="M95.14,179.59c6.279,2.5,22.608,6.923,28.623,5.907,6.392-1.079,18.52-14.32,4.384-30.966-9.721-11.448-28.1-7.38-36,.644C83.592,163.862,85.507,175.757,95.14,179.59Z" fill="url(#d)" style="mix-blend-mode:multiply;isolation:isolate"/><path d="M346.629,224.408c-34.439-17.541-74.311,27.263-104.637-7.5-7.518-8.619-20.465-43.861-55.256-41.252C149.759,178.431,73.7,247.442,145.42,349.7c49.325,70.331,156.137,56.861,205.373,15.334C404.1,320.08,399.47,251.322,346.629,224.408Z" fill="url(#e)" style="mix-blend-mode:multiply;isolation:isolate"/><path d="M257.317,77.3A181.5,181.5,0,0,0,75.82,258.8a183.675,183.675,0,0,0,.984,18.967q-.5-6.687-.5-13.505A178.556,178.556,0,1,1,362.385,406.806,181.508,181.508,0,0,0,257.317,77.3Z" fill="url(#f)"/><path d="M375.49,416.345A201.492,201.492,0,0,0,422.3,369.769,201.86,201.86,0,0,0,438,336.6,197.8,197.8,0,0,1,375.49,416.345Z" fill="url(#g)"/><path d="M250.3,54.485c113.862,0,206.165,92.3,206.165,206.164a205.8,205.8,0,0,1-11.982,69.411,199.752,199.752,0,0,0,15.374-77.1c0-110.651-89.7-200.351-200.351-200.351a201.017,201.017,0,0,0-43.153,4.675A207.544,207.544,0,0,1,250.3,54.485Z" fill="url(#h)"/><path d="M209.657,67.571A201.974,201.974,0,0,0,120.288,108.9,199.754,199.754,0,0,0,59.157,252.959,202.547,202.547,0,0,0,60.243,273.9q-.552-7.381-.558-14.908C59.685,166.378,123.562,88.7,209.657,67.571Z" fill="url(#i)"/><path d="M253.5,98.954a162.968,162.968,0,0,0-91.723,28.1A163.758,163.758,0,0,1,413.1,265.425a164.631,164.631,0,0,1-2.819,30.4,162.789,162.789,0,0,1-25.646,64.958A163.758,163.758,0,0,0,253.5,98.954Z" fill="url(#j)"/><circle cx="192.091" cy="192.091" r="192.091" transform="translate(65.828 64.609)" fill="url(#k)"/><path d="M292.26,87C369.3,90,459.042,201.889,406.747,304.471c-25.328,49.683,11.284-60.978-70-124.162C258.065,119.151,239.313,84.931,292.26,87Z" fill="url(#l)" style="mix-blend-mode:overlay;isolation:isolate"/><path d="M469.45,282.38c26.383-69.146-2.127-151.714-74.541-193.221C459.858,130.666,486.278,211.087,469.45,282.38Z" fill="url(#m)"/><path d="M449.505,368.27c43.284-45.781,60.959-110.206,40.124-163.922C502.513,255.116,483.834,321.519,449.505,368.27Z" fill="url(#n)"/><path d="M511.435,279.2c14.751-35.647,8.066-78.211-20.085-107.446C513.636,200.585,520.233,244.537,511.435,279.2Z" fill="url(#o)"/><ellipse cx="170.451" cy="17.403" rx="170.451" ry="17.403" transform="translate(75.661 432.747)" fill="url(#p)" style="mix-blend-mode:multiply;isolation:isolate"/><path d="M187.49,309.608s-2.759,20.666-5.487,55.468c-15.461,24.033-30.9,51.285-38.664,68.783,1.4,1.547,4.667,7.173,7.137,6.329,35.339-28.12,60.844-48.553,66.1-59.534,11.9-24.844,26.9-66.547,19.024-66.547C235.6,314.107,193.6,306.852,187.49,309.608Z" fill="url(#q)"/><path d="M251.5,309.423l29.184,65.286L260.5,440.683s-11.083,4.139-11.668-.5c-4.169-33.007-2.5-42.484-.124-54.263-33.818-38.24-47.768-68.178-28.265-72.934C220.442,312.991,246.025,304.243,251.5,309.423Z" fill="url(#q)"/><path d="M260.5,440.683c5.2,2.907,17.106,3.49,17.106,9.053,0,0-16.483,1.645-30.762-1.618,0,0,1.064-7.772,1.988-7.93C253.39,440.544,258.059,440.69,260.5,440.683Z" fill="url(#s)"/><path d="M150.476,440.188c-3.651,12.791,11.225,15.176,6.2,17.552,0,0-9.657,1.008-13.338-3.169s-5.7-10.293-7.276-17.445c0,0,11.795-5.6,12.333-4.836C150.015,436.564,149.427,437.986,150.476,440.188Z" fill="url(#t)"/><path d="M225.066,182.68s1.126,15.1-5.836,20.306c0,0,8.4,14.788,20.9,3.627a21.32,21.32,0,0,1-2.426-13.07L228.626,183S226.432,177.164,225.066,182.68Z" fill="#f6b386"/><path d="M223.218,202.519a27.973,27.973,0,0,1,14.292-5.9,19.5,19.5,0,0,1,.2-3.076L228.626,183s-2.194-5.837-3.56-.321c0,0,1.126,15.1-5.836,20.306a16.926,16.926,0,0,0,1.273,1.842C221.4,204.022,222.311,203.254,223.218,202.519Z" fill="#f6b386" opacity="0.4" style="mix-blend-mode:multiply;isolation:isolate"/><path d="M249.19,175.808c.753-5.409,3.192-11.816-2.329-15.529-5.668-3.812-22.274-3.853-21.393,13.854,0,0-4.676-2.6-5.011,2.731s2.539,7.97,5.272,7.055c0,0,.476,4.747,1.375,6.047,1.8,2.6,8.475,6.076,13.5,5.967C247.052,195.793,247.837,185.532,249.19,175.808Z" fill="#f6b386"/><path d="M229.068,180.9s-1.857-7.7-.766-10.86,6.449-6.452,11.583-4.791,8.2,4.87,8.951,6.858,3.744-.4,4.6-1.156c4.838-4.266,5.581-16.174,3.225-14.956-5.725,2.958-10.525-4.121-19.692-4.582-6.068-.3-11.046,2-12.241,5.049-1.454-.37-4.879.871-6.706,3.345-2.353,3.186-2.531,9.127-1.151,15.141,2.153,9.387,6.191,11.194,7.564,15.412.552,1.7,1.415-6.655,1.415-6.655s-2.376-.092-3.212-1.147c-1.328-1.677-3.151-8.795,2.366-7.041.983.313,1.008,3.463,1.658,5.538C226.994,182.113,229.068,180.9,229.068,180.9Z" fill="url(#u)"/><path d="M236.966,185.384a33.946,33.946,0,0,0,4.971.947c.563.066-.633,1.809-2.5,1.688C237.668,187.9,235.877,185.068,236.966,185.384Z" fill="#ffdeeb"/><path d="M241.369,177.758c-.124.193-.8,5.116-.242,5.454a4.94,4.94,0,0,0,2.618.241C244.116,183.3,242.112,176.6,241.369,177.758Z" fill="#f6b386" opacity="0.4" style="mix-blend-mode:multiply;isolation:isolate"/><path d="M223.572,177.859a9.8,9.8,0,0,0,.231,2.056c.224,1.675.982,1.178,1.2,1.019S224.549,177.147,223.572,177.859Z" fill="#f6b386" opacity="0.4" style="mix-blend-mode:multiply;isolation:isolate"/><path d="M238.644,173.787c.873.365.429,2.594-.432,2.327a6.162,6.162,0,0,0-3.487-.158c-.569.139-1-1.674.136-2.21A4.812,4.812,0,0,1,238.644,173.787Z" fill="#633a1f"/><circle cx="1.272" cy="1.272" r="1.272" transform="translate(235.706 176.664)" fill="#633a1f"/><path d="M245.444,174.481c-.816.316-.459,2.391.343,2.165a5.7,5.7,0,0,1,3.229-.061c.523.143.968-1.525-.072-2.049A4.446,4.446,0,0,0,245.444,174.481Z" fill="#633a1f"/><path d="M245.76,178.936a1.272,1.272,0,1,0,.8-1.613A1.272,1.272,0,0,0,245.76,178.936Z" fill="#633a1f"/><path d="M219.23,202.986s-9.528,3.315-18.713,6.9c-16.153,11.257-13.884,60.436-12.984,102.512,11.973,10.55,48.486,13.563,68.149,3.183,7.675-36.38,44.553-79.379-15.551-108.964C240.131,206.613,228.825,216.272,219.23,202.986Z" fill="url(#v)"/><path d="M188.163,244.168a39.191,39.191,0,0,1,1.934-8.143,261.116,261.116,0,0,0,44.384,5.545,244.467,244.467,0,0,0,33.809-1.3,18.6,18.6,0,0,1,5.23,9.512c-11.262.579-22.647.688-34.1.229-9.9-.4-19.972-1.057-29.767-2.424C202.446,246.58,195.351,245.212,188.163,244.168Zm24.4,18.3c10.166,1.258,20.278,1.911,30.506,2.153,9.137.217,18.627.237,27.866-.358a31.457,31.457,0,0,0,2.7-8.7c-11.064.52-22.241.6-33.47.189a307.842,307.842,0,0,1-30.941-2.47c-7.237-1.008-14.371-2.386-21.594-3.432-.159,2.922-.175,5.992-.092,9.151C195.88,260.152,204.188,261.433,212.559,262.469Z" fill="url(#w)" style="mix-blend-mode:screen;isolation:isolate"/><path d="M276.258,181.127c28.3,63.6,44.71,177.056,33.331,231.48,0,0,60.908-37.588,56.664-173.258-17.975.424-30.806-18.255-35.977-40.685C330.276,198.664,297.515,191.066,276.258,181.127Z" fill="url(#x)"/><path d="M276.258,181.127c34.253,43.817,53.649,136.878,33.331,231.48,0,0-71.1.8-106.353-136.833,26.37-8,30.738-37.056,28.437-58.168C231.673,217.606,263.71,195.09,276.258,181.127Z" fill="url(#y)"/><path d="M361.416,245.4c-16.585.392-28.423-16.842-33.194-37.538,0,0-24.462-5.85-44.6-16.179-11.577,12.882-41.363,33.5-41.363,33.5,2.123,19.479-1.352,50.53-25.682,57.91,32.525,126.989,96.062,119.547,96.062,119.547S365.331,370.572,361.416,245.4Zm-46.125,145.55s-57.337,6.136-89.285-105.182c21.874-6.636,26.9-38.612,24.991-56.125,0,0,26.8-18.375,37.212-29.958,18.1,9.287,36.066,17.192,36.066,17.192,4.289,18.607,14.933,34.1,29.844,33.75C357.64,363.168,315.291,390.947,315.291,390.947Z" fill="#fff" opacity="0.57" style="mix-blend-mode:screen;isolation:isolate"/><path d="M345.4,300.927a162.52,162.52,0,0,0-1.795-19.185c-7.982-.8-11.6-.353-19.025.046a174.332,174.332,0,0,0-6.215-26.128l-21.512,3.574a191.014,191.014,0,0,1,6.259,25.325c-10.349,2.125-18.6,3.594-28.544,7.6l4.98,20.241A227.046,227.046,0,0,1,305.67,305a205.829,205.829,0,0,1,1.242,33.214c6.7-.278,14.086-.569,19.775-1.925,1.621-10.128,1.423-23.68-.075-34.636A136.385,136.385,0,0,1,345.4,300.927Z" fill="url(#z)" style="mix-blend-mode:soft-light;isolation:isolate"/><path d="M255.733,326.535a190.375,190.375,0,0,1-28.218-33.058,97.574,97.574,0,0,1-11.995-23.983,37.5,37.5,0,0,1-12.284,6.28C238.488,413.41,309.589,412.607,309.589,412.607a371.616,371.616,0,0,0,7.374-52.369C294.043,354.711,273.233,342.884,255.733,326.535Z" opacity="0.2" fill="url(#aa)" style="mix-blend-mode:multiply;isolation:isolate"/><path d="M323.22,234.465c13.144,35.264,20.115,60.683,3.529,136.977,0,0,26.441-56.667,23.256-115.649C350.005,255.793,338.788,257.686,323.22,234.465Z" opacity="0.57" fill="url(#ab)" style="mix-blend-mode:screen;isolation:isolate"/><g opacity="0.4" style="mix-blend-mode:multiply;isolation:isolate"><path d="M291.439,240.909l-62.281,67.5,3.267,3.786,3.267,3.785,75.893-51.729,6.853-26.279Z" fill="url(#ac)"/><path d="M224.964,308.454,230,314.29l-2.1-2.43L212.2,325.415l4.193,4.859L232.1,316.72l2.94,3.407,2.424-2.092-10.073-11.673Z" fill="url(#ad)"/></g><path d="M196.646,215.488s-16.438,66.988,41.559,88.015c0,0-3.133,7.582-4.533,7.353-35.55-5.8-67.735-30.111-61.18-63.878C176,228.917,196.646,215.488,196.646,215.488Z" opacity="0.4" fill="url(#ae)" style="mix-blend-mode:multiply;isolation:isolate"/><path d="M329.753,236.114l-90.837,73.994-3.257-4,66.177-67.763Z" fill="url(#af)"/><path d="M329.753,236.114l-90.837,73.994,3.257,4L321.919,263Z" fill="url(#ag)"/><rect width="15.9" height="3.302" transform="translate(233.894 303.945) rotate(50.834)" fill="url(#ah)"/><rect width="6.619" height="21.396" transform="matrix(0.632, 0.775, -0.775, 0.632, 234.265, 309.629)" fill="url(#ai)"/><path d="M200.517,209.882s-29.631,58.289,23.045,90.4c0,0-4.31,10.841-5.665,10.417-45.444-14.228-55.635-44.5-42.514-76.294C182.4,217.4,200.517,209.882,200.517,209.882Z" fill="url(#aj)"/><g opacity="0.4" style="mix-blend-mode:multiply;isolation:isolate"><path d="M170.588,251.722C167.217,276.8,180.821,299.09,217.9,310.7c.793.248,2.6-3.357,3.956-6.394C185.732,293.467,170.374,273.987,170.588,251.722Z" fill="url(#ak)"/></g><path d="M223.562,300.281s6.89,1.809,9.639,4.229l-1.867,1.521,1.286,1.579c.659,1.871-.7,1.527.484,3.259,2.8,3.6,9.35,8.335,6.911,9.822-4.679,2.854-13.121,4.652-17.877-1.3-2.432-3.046-4.241-8.689-4.241-8.689Z" fill="#f6b386"/><path d="M181.608,201.19H180.44a1.284,1.284,0,0,1-1.283-1.283v-1.168a.752.752,0,0,0-.71-.763.732.732,0,0,0-.755.732v1.2a1.283,1.283,0,0,1-1.283,1.283h-1.168a.753.753,0,0,0-.763.71.732.732,0,0,0,.732.755h1.2a1.283,1.283,0,0,1,1.283,1.283v1.168a.753.753,0,0,0,.71.763.732.732,0,0,0,.755-.732v-1.2a1.284,1.284,0,0,1,1.283-1.283h1.2a.733.733,0,0,0,.733-.755A.754.754,0,0,0,181.608,201.19Z" fill="url(#al)"/><path d="M390.4,200.756h-1.859a2.041,2.041,0,0,1-2.042-2.041v-1.86a1.2,1.2,0,0,0-1.13-1.215,1.167,1.167,0,0,0-1.2,1.166v1.909a2.041,2.041,0,0,1-2.041,2.041h-1.86a1.2,1.2,0,0,0-1.215,1.131,1.167,1.167,0,0,0,1.166,1.2h1.909a2.041,2.041,0,0,1,2.041,2.041v1.86a1.2,1.2,0,0,0,1.131,1.215,1.167,1.167,0,0,0,1.2-1.166V205.13a2.041,2.041,0,0,1,2.042-2.041h1.908a1.167,1.167,0,0,0,1.166-1.2A1.2,1.2,0,0,0,390.4,200.756Z" fill="url(#am)"/><path d="M368.709,373.553h-1.86a2.042,2.042,0,0,1-2.042-2.042v-1.859a1.2,1.2,0,0,0-1.13-1.215,1.167,1.167,0,0,0-1.2,1.166v1.908a2.042,2.042,0,0,1-2.042,2.042h-1.859a1.2,1.2,0,0,0-1.215,1.13,1.167,1.167,0,0,0,1.166,1.2h1.908a2.041,2.041,0,0,1,2.042,2.041v1.86a1.2,1.2,0,0,0,1.13,1.215,1.167,1.167,0,0,0,1.2-1.166v-1.909a2.042,2.042,0,0,1,2.042-2.041h1.909a1.166,1.166,0,0,0,1.165-1.2A1.2,1.2,0,0,0,368.709,373.553Z" fill="url(#am)"/><path d="M165.073,145.331h-1.859a2.042,2.042,0,0,1-2.042-2.042v-1.86a1.2,1.2,0,0,0-1.13-1.214,1.165,1.165,0,0,0-1.2,1.165v1.909a2.042,2.042,0,0,1-2.042,2.042h-1.86a1.2,1.2,0,0,0-1.214,1.13,1.165,1.165,0,0,0,1.165,1.2H156.8a2.042,2.042,0,0,1,2.042,2.042v1.86a1.2,1.2,0,0,0,1.13,1.214,1.166,1.166,0,0,0,1.2-1.166v-1.908a2.042,2.042,0,0,1,2.042-2.042h1.908a1.166,1.166,0,0,0,1.166-1.2A1.2,1.2,0,0,0,165.073,145.331Z" fill="url(#am)"/><path d="M120.127,225.384h-1.614a1.772,1.772,0,0,1-1.772-1.773V222a1.041,1.041,0,0,0-.982-1.054,1.012,1.012,0,0,0-1.043,1.012v1.656a1.773,1.773,0,0,1-1.773,1.773h-1.614a1.041,1.041,0,0,0-1.055.981,1.013,1.013,0,0,0,1.012,1.044h1.657a1.772,1.772,0,0,1,1.773,1.772V230.8a1.041,1.041,0,0,0,.981,1.054,1.013,1.013,0,0,0,1.044-1.012v-1.657a1.772,1.772,0,0,1,1.772-1.772h1.657a1.013,1.013,0,0,0,1.012-1.044A1.041,1.041,0,0,0,120.127,225.384Z" fill="url(#ap)"/><path d="M327.619,173.13H326a1.773,1.773,0,0,1-1.772-1.773v-1.614a1.041,1.041,0,0,0-.981-1.055,1.013,1.013,0,0,0-1.044,1.012v1.657a1.772,1.772,0,0,1-1.772,1.773H318.82a1.041,1.041,0,0,0-1.054.981,1.012,1.012,0,0,0,1.012,1.043h1.657a1.772,1.772,0,0,1,1.772,1.773v1.614a1.041,1.041,0,0,0,.981,1.055,1.013,1.013,0,0,0,1.044-1.012v-1.657A1.773,1.773,0,0,1,326,175.154h1.657a1.012,1.012,0,0,0,1.012-1.043A1.04,1.04,0,0,0,327.619,173.13Z" fill="url(#ap)"/><path d="M95.36,297.6H93.5a2.041,2.041,0,0,1-2.041-2.041V293.7a1.2,1.2,0,0,0-1.131-1.215,1.167,1.167,0,0,0-1.2,1.166v1.909a2.041,2.041,0,0,1-2.042,2.041H85.225a1.2,1.2,0,0,0-1.215,1.131,1.167,1.167,0,0,0,1.166,1.2h1.908a2.042,2.042,0,0,1,2.042,2.042v1.859a1.2,1.2,0,0,0,1.131,1.215,1.167,1.167,0,0,0,1.2-1.166v-1.908a2.041,2.041,0,0,1,2.041-2.042h1.909a1.167,1.167,0,0,0,1.166-1.2A1.2,1.2,0,0,0,95.36,297.6Z" fill="url(#am)"/><path d="M138.782,325.631h-1a1.1,1.1,0,0,1-1.1-1.1v-1a.644.644,0,0,0-.608-.653.627.627,0,0,0-.646.627v1.027a1.1,1.1,0,0,1-1.1,1.1h-1a.644.644,0,0,0-.653.608.627.627,0,0,0,.627.646h1.027a1.1,1.1,0,0,1,1.1,1.1v1a.644.644,0,0,0,.608.653.627.627,0,0,0,.646-.627v-1.027a1.1,1.1,0,0,1,1.1-1.1h1.027a.627.627,0,0,0,.627-.646A.645.645,0,0,0,138.782,325.631Z" fill="url(#ap)"/><path d="M393.651,288.8h-1.86a2.041,2.041,0,0,1-2.041-2.041v-1.86a1.2,1.2,0,0,0-1.131-1.215,1.167,1.167,0,0,0-1.2,1.166v1.909a2.041,2.041,0,0,1-2.041,2.041h-1.86a1.2,1.2,0,0,0-1.215,1.131,1.167,1.167,0,0,0,1.166,1.2h1.909a2.041,2.041,0,0,1,2.041,2.042v1.859a1.2,1.2,0,0,0,1.131,1.215,1.167,1.167,0,0,0,1.2-1.166V293.17a2.041,2.041,0,0,1,2.041-2.042H393.7a1.167,1.167,0,0,0,1.166-1.2A1.2,1.2,0,0,0,393.651,288.8Z" fill="url(#ap)"/><path d="M285.748,127.042h-1.86A2.042,2.042,0,0,1,281.846,125v-1.86a1.2,1.2,0,0,0-1.13-1.214,1.165,1.165,0,0,0-1.2,1.166V125a2.042,2.042,0,0,1-2.042,2.042h-1.86a1.2,1.2,0,0,0-1.214,1.13,1.166,1.166,0,0,0,1.166,1.2h1.908a2.042,2.042,0,0,1,2.042,2.042v1.86a1.2,1.2,0,0,0,1.13,1.214,1.165,1.165,0,0,0,1.2-1.166v-1.908a2.042,2.042,0,0,1,2.042-2.042H285.8a1.165,1.165,0,0,0,1.165-1.2A1.2,1.2,0,0,0,285.748,127.042Z" fill="url(#ap)"/></g></svg>