<svg xmlns="http://www.w3.org/2000/svg" width="20" height="20" viewBox="0 0 20 20"><g transform="translate(0 0.223)"><g transform="translate(0 -0.413)"><circle cx="10" cy="10" r="10" transform="translate(0 0.189)" fill="#f6c863"/></g><g transform="translate(3.574 3.912)"><path d="M47.749,47.147v3.425H40.42V47.147a3.664,3.664,0,1,1,7.329,0Z" transform="translate(-37.713 -40.752)" fill="#da364c"/><path d="M46.649,54.222v2.325H40.42V53.123A3.64,3.64,0,0,1,41,51.141a3.663,3.663,0,0,1,5.646,3.081Z" transform="translate(-37.713 -46.728)" fill="#ef5261"/><path d="M35.377,89.091h8.245a.386.386,0,0,1,.386.386v1.012H34.991V89.477A.386.386,0,0,1,35.377,89.091Z" transform="translate(-33.128 -79.272)" fill="#575b6d"/><rect width="0.324" height="1.62" rx="0.162" transform="translate(6.21)" fill="#ef5261"/><rect width="0.324" height="1.62" rx="0.162" transform="matrix(0.866, -0.5, 0.5, 0.866, 3.045, 0.935)" fill="#ef5261"/><rect width="0.324" height="1.62" rx="0.162" transform="matrix(0.5, -0.866, 0.866, 0.5, 0.772, 3.326)" fill="#ef5261"/><rect width="0.324" height="1.62" rx="0.162" transform="translate(0 6.534) rotate(-90)" fill="#ef5261"/><rect width="0.324" height="1.62" rx="0.162" transform="translate(12.743 6.21) rotate(90)" fill="#ef5261"/><rect width="0.324" height="1.62" rx="0.162" transform="matrix(0.5, 0.866, -0.866, 0.5, 11.809, 3.045)" fill="#ef5261"/><rect width="0.324" height="1.62" rx="0.162" transform="matrix(0.866, 0.5, -0.5, 0.866, 9.417, 0.773)" fill="#ef5261"/></g></g></svg>