<svg xmlns="http://www.w3.org/2000/svg" width="24" height="24" viewBox="0 0 24 24"><g transform="translate(-1507 -689.277)"><g transform="translate(1507 689.277)"><path d="M12,0A12,12,0,1,1,0,12,12,12,0,0,1,12,0Z" fill="#13294e"/><path d="M10.494,0A10.494,10.494,0,1,1,0,10.494,10.494,10.494,0,0,1,10.494,0Z" transform="translate(1.506 1.506)" fill="#34496c"/><path d="M264.3,333.866c-.144.648-.3,1.293-.389,1.953a.856.856,0,0,0,.089.932,3.087,3.087,0,0,1,.3,2.191,3.464,3.464,0,0,1-1.178,1.734.4.4,0,0,0-.3.356c-.069.386-.2.764-.238,1.151-.034.322-.189.4-.465.375-.374,0-.749-.011-1.123-.007-.183,0-.268-.03-.206-.248.079-.277.1-.57.181-.847.06-.211-.012-.263-.2-.3s-.331-.069-.378.175c-.121.615-.247,1.228-.372,1.842a.7.7,0,0,1-.144.4c-.217,0-.434-.007-.651-.008-.8,0-1.035-.3-.854-1.066.162-.751.327-1.5.485-2.254a.489.489,0,0,0-.066-.414,3.065,3.065,0,0,1-.38-.816,3.223,3.223,0,0,1,.529-2.741,5.7,5.7,0,0,1,.753-.661.4.4,0,0,0,.181-.295c.064-.364.139-.726.209-1.09.03-.327.171-.479.533-.436a6.81,6.81,0,0,0,1.046,0c.224-.008.276.092.234.284-.058.271-.1.545-.181.808-.075.246.06.276.241.318s.3.062.331-.173c.05-.343.127-.683.192-1.024a7.291,7.291,0,0,0,.155-.727c.041-.356.171-.579.575-.508.132,0,.264.009.4.011.6.007.853.321.731.9C264.321,333.749,264.312,333.808,264.3,333.866Zm-4.069,4.313a1.148,1.148,0,0,0,1.036,1.11,1.2,1.2,0,0,0,1.187-1.13,1.179,1.179,0,0,0-1.1-1.087A1.142,1.142,0,0,0,260.233,338.18Z" transform="translate(-249.492 -326.058)" fill="#fefefe"/></g></g></svg>