<svg xmlns="http://www.w3.org/2000/svg" width="498.374" height="486.937" viewBox="0 0 498.374 486.937">
  <g id="Group_56" data-name="Group 56" transform="translate(-2306 -4906)">
    <g id="surplus" transform="translate(2041 3994.793)">
      <g id="rai-logo" transform="translate(265 1005.262)">
        <g id="Group_51" data-name="Group 51" transform="translate(0 0)">
          <path id="Path_40" data-name="Path 40" d="M-262.155,126.483c-1.478-.073-3.035.56-4.4-.5A7.216,7.216,0,0,1-262.155,126.483Z" transform="translate(427.775 56.893)" fill="#2a373b"/>
          <path id="Path_41" data-name="Path 41" d="M-255.984,127.131c-1.228.038-2.518.525-3.619-.46A5.406,5.406,0,0,1-255.984,127.131Z" transform="translate(427.821 56.898)" fill="#2a373b"/>
          <g id="Group_50" data-name="Group 50" transform="translate(0 0)">
            <path id="Path_42" data-name="Path 42" d="M-383.958,17.957A92.424,92.424,0,0,1-373.639,5.892a194.711,194.711,0,0,1,96.182-56.071,119.168,119.168,0,0,1,18.2-3.376c.7,2-1,2.581-2.148,3.245-6.887,3.979-13.737,8.023-20.653,11.954-7.437,4.229-14.762,8.652-22.2,12.89a4.059,4.059,0,0,0-2.072,1.869,2.966,2.966,0,0,1-1.411,1.093A171.584,171.584,0,0,0-332.028-8.632a7.8,7.8,0,0,1-2.956,1.564,4.1,4.1,0,0,0-2.456.657c-13.9,7.858-27.709,15.869-41.507,23.9a9.815,9.815,0,0,1-3.013,1.464C-382.795,19.112-383.883,19.471-383.958,17.957Z" transform="translate(427.02 55.752)" fill="#283036"/>
            <path id="Path_43" data-name="Path 43" d="M-176.237,327.125A165.993,165.993,0,0,1-210,333.877c-.6-1.83.876-2.456,1.978-3.093,8.04-4.7,16.142-9.289,24.181-13.985,4.077-2.382,8.44-4.331,12-7.529,3.5-2.095,7.458-3.137,11.182-4.716a180.087,180.087,0,0,0,46.737-29.283c2.216-1.89,4.027-4.283,6.69-5.648a11.944,11.944,0,0,0,4.277-1.722c9.839-5.7,19.626-11.486,29.585-16.97.724-.4,1.906-2.119,2.634.153a175.964,175.964,0,0,1-22.667,27.135c-.6.614-1.277,1.151-1.917,1.725-17.033,9.5-33.793,19.467-50.722,29.145-8.544,4.886-17.042,9.854-25.585,14.741A20.067,20.067,0,0,0-176.237,327.125Z" transform="translate(428.135 57.703)" fill="#399584"/>
            <path id="Path_44" data-name="Path 44" d="M-383.854,17.662c1.138,1.381,2.245.379,3.206-.17,7.022-4.017,14-8.115,21.013-12.158q11.287-6.512,22.6-12.971c.648-.37,1.369-.905,2.057-.015A101.36,101.36,0,0,1-344.7.377,205.571,205.571,0,0,0-369,24.71a11.544,11.544,0,0,1-3.291,3.239c-4.619,1.366-8.413,4.315-12.55,6.6-4.076,2.247-8.022,4.731-12.157,6.87-.863.447-2.254,1.829-2.957-.376a125.212,125.212,0,0,1,10.534-16.33A50.8,50.8,0,0,1-383.854,17.662Z" transform="translate(426.918 56.047)" fill="#293237"/>
            <path id="Path_45" data-name="Path 45" d="M-307.008-23.963c.3-2.216,2.48-2.291,3.836-3.12,6.169-3.763,12.485-7.286,18.745-10.9L-262.69-50.52c1.275-.732,2.665-1.321,2.941-3.014A126.572,126.572,0,0,1-240.5-55.581c2.915-.183,5.863-.066,8.8-.086.2,1.78-1.271,2.283-2.384,2.955-6.34,3.824-12.778,7.475-19.2,11.167a27.314,27.314,0,0,0-5.29,3.672c-5.119,1.535-10.434,2.2-15.629,3.376A169.709,169.709,0,0,0-303.1-24.921C-304.335-24.4-305.523-23.529-307.008-23.963Z" transform="translate(427.515 55.743)" fill="#293237"/>
            <path id="Path_46" data-name="Path 46" d="M-71.382,251.226c-.292-.578-.655-.66-1.238-.324q-12.287,7.105-24.592,14.179c-2.455,1.42-4.9,2.867-7.347,4.3a5.236,5.236,0,0,1-3.186.875c-.5-1.074.382-1.607.948-2.149a178.482,178.482,0,0,0,21.623-24.92,4.361,4.361,0,0,1,1.708-1.535c6.476-2.916,12.349-6.9,18.534-10.338,1.358-.753,2.695-1.555,4.076-2.259.95-.483,1.966-1.239,3.095-.307A142.111,142.111,0,0,1-71.382,251.226Z" transform="translate(428.795 57.564)" fill="#389181"/>
            <path id="Path_47" data-name="Path 47" d="M-176.455,326.937c-.174-1.479,1.083-1.887,1.978-2.413,7.643-4.481,15.319-8.9,22.989-13.35q24.8-14.342,49.617-28.646a16.951,16.951,0,0,1,6.347-2.778q-3.837,3.494-7.659,6.989a166.788,166.788,0,0,1-24.927,18.609A186.435,186.435,0,0,1-176.455,326.937Z" transform="translate(428.354 57.896)" fill="#3a9987"/>
            <path id="Path_48" data-name="Path 48" d="M-399.878,40.812c.979,1.312,1.907.258,2.687-.181,6.5-3.668,12.947-7.447,19.465-11.088,1.688-.941,3.172-2.581,5.433-2.118-.947,2.862-3.184,4.883-4.846,7.266-3.561,5.1-6.751,10.435-9.888,15.786-.6,1.027-1.038,2.214-2.315,2.659-2.754.129-4.732,1.995-6.937,3.25-3.814,2.177-7.611,4.393-11.433,6.562-1.1.625-2.239,1.789-3.745.784A139.644,139.644,0,0,1-399.878,40.812Z" transform="translate(426.845 56.275)" fill="#293439"/>
            <path id="Path_49" data-name="Path 49" d="M-259.018-38.485c3.453-3.33,7.947-5.012,11.937-7.491,4.228-2.629,8.593-5.038,12.9-7.531a5.425,5.425,0,0,0,2.169-2.148,113.577,113.577,0,0,1,16.629.641c1.055.433,2.216-.089,3.267.37l1.926.144c.857.407,1.823-.028,2.685.341v-.028c.258,1.465-.933,1.894-1.841,2.455-4.144,2.6-8.408,5.012-12.694,7.366-2.411,1.324-4.562,3.031-6.964,4.361-3.906.494-7.862-.279-11.752.482a24.514,24.514,0,0,1-4.535.232,7.457,7.457,0,0,0-3.07.307c-2.524.278-5.039.634-7.551,1A3.338,3.338,0,0,1-259.018-38.485Z" transform="translate(427.823 55.725)" fill="#293439"/>
            <path id="Path_50" data-name="Path 50" d="M-139.216-32.343a65.241,65.241,0,0,1,11.328,6.3c2.534,1.551,4.932,3.327,7.39,5,.264.9-.46,1.248-.995,1.571-4.3,2.609-8.536,5.339-13.072,7.547a4.339,4.339,0,0,1-2.425-.815c-4.973-2.972-9.9-6.041-15.116-8.584a2.867,2.867,0,0,1-1.343-1.183c-.349-1.321.571-1.891,1.489-2.4C-147.656-27.279-143.479-29.894-139.216-32.343Z" transform="translate(428.501 55.891)" fill="#2c4345"/>
            <path id="Path_51" data-name="Path 51" d="M-171.447,309.24c-1.874,2.789-5.064,3.731-7.741,5.315-9.477,5.6-19.077,10.982-28.62,16.472a3.5,3.5,0,0,0-2.073,2.481l-2.409.154c-1.061.434-2.221-.06-3.282.358a55.848,55.848,0,0,1-11.969.53c-.577-1.571.816-1.917,1.662-2.406,6.84-3.957,13.636-7.99,20.517-11.877a32.554,32.554,0,0,0,6.1-4.246c8.593-2.1,17.24-4.041,25.626-6.9C-172.92,308.868-172.141,308.594-171.447,309.24Z" transform="translate(428.023 58.083)" fill="#389282"/>
            <path id="Path_52" data-name="Path 52" d="M-411.417,63.57c3.149-.519,5.514-2.642,8.2-4.086,3.837-2.064,7.538-4.38,11.336-6.52.727-.411,1.565-1.31,2.5-.23a3.087,3.087,0,0,1-.561,2.926A144.773,144.773,0,0,0-396.9,70.4c-.392.853-.593,1.832-1.584,2.262a10.981,10.981,0,0,0-5.232,2.047c-3.611,2.184-7.3,4.231-10.961,6.33-.984.565-1.955,1.561-3.29.767A109.623,109.623,0,0,1-411.417,63.57Z" transform="translate(426.804 56.435)" fill="#2a373b"/>
            <path id="Path_53" data-name="Path 53" d="M-244.612,334.111a96.663,96.663,0,0,1-18.609-2.1,5.064,5.064,0,0,1,2.444-2.2c4.739-2.81,9.5-5.578,14.325-8.238,1.659-.921,3.089-2.161,4.716-3.126,7.034.686,14.068-.632,21.095.029,2,1.49.175,2.194-.725,2.791-2.716,1.808-5.575,3.39-8.408,5.012-4.174,2.388-8.39,4.707-12.448,7.294C-242.942,334.04-243.682,334.535-244.612,334.111Z" transform="translate(427.796 58.141)" fill="#388d7e"/>
            <path id="Path_54" data-name="Path 54" d="M-228.571-40.594c2.379-3.146,6.178-4.169,9.316-6.173,3.239-2.069,6.64-3.884,9.975-5.805a3.987,3.987,0,0,0,1.586-1.637,77.2,77.2,0,0,1,17.323,3.15,7.814,7.814,0,0,0,1.788.153c.6,1.74-.987,2.01-1.878,2.531-3.269,1.91-6.5,3.884-9.81,5.728-2.229,1.245-4.553,2.345-6.029,4.579-5.208-.2-10.343-1.16-15.542-1.461a13.883,13.883,0,0,0-4.085-.35C-226.86-39.914-227.848-39.79-228.571-40.594Z" transform="translate(428.019 55.75)" fill="#2a373b"/>
            <path id="Path_55" data-name="Path 55" d="M-174.794-47.306a121.944,121.944,0,0,1,18.687,6.726c.726,1.63-.654,2.127-1.585,2.707-4.5,2.8-9.132,5.371-13.72,8.026-3.579-.1-6.732-1.815-10.082-2.762-3.177-.9-6.6-1.082-9.5-2.873-.46-1.734.911-2.253,2-2.874,3.682-2.11,7.279-4.344,11.014-6.353A8.805,8.805,0,0,0-174.794-47.306Z" transform="translate(428.26 55.796)" fill="#2a3c3f"/>
            <path id="Path_56" data-name="Path 56" d="M-425.188,115.351a109.831,109.831,0,0,1,3.615-20.326c2.043.043,3.476-1.352,5.1-2.236,3.386-1.841,6.656-3.9,10.084-5.678.921-.476,2.229-1.522,2.843.5-1.472,6.48-2.555,13.052-4.666,19.379-4.86,2.584-9.627,5.333-14.385,8.1C-423.4,115.57-424.24,116.162-425.188,115.351Z" transform="translate(426.755 56.652)" fill="#2a3c3f"/>
            <path id="Path_57" data-name="Path 57" d="M-171.3-30.267c3-2.957,7.131-4.125,10.435-6.583,1.591-1.185,4.066-1.332,4.637-3.773a93.733,93.733,0,0,1,17.138,8.332c-2.076,2.8-5.455,3.683-8.176,5.543a49.49,49.49,0,0,1-4.722,2.642,1.766,1.766,0,0,0-1.12,1.588c-.861.672-1.662.169-2.4-.2A145.965,145.965,0,0,0-169.305-28.6C-170.1-28.9-171.251-28.982-171.3-30.267Z" transform="translate(428.388 55.839)" fill="#2b4042"/>
            <path id="Path_58" data-name="Path 58" d="M-343.089,299.656a117.681,117.681,0,0,1-15.589-12.07c4.482-3.07,9.278-5.592,14.021-8.213a2.785,2.785,0,0,1,2.117.8c3.818,2.983,7.672,5.926,11.738,8.563a2.735,2.735,0,0,1,1.574,1.942,2.252,2.252,0,0,1-1.266,1.841C-334.728,294.845-338.739,297.553-343.089,299.656Z" transform="translate(427.183 57.899)" fill="#34736a"/>
            <path id="Path_59" data-name="Path 59" d="M-46.338,201.34a113.206,113.206,0,0,1-6.2,16.1c-6.678,4.24-13.643,7.992-20.484,11.954a3.016,3.016,0,0,1-2.915.517c-.441-.824.026-1.493.4-2.148A135.988,135.988,0,0,0-68.1,213.1a3.192,3.192,0,0,1,1.445-1.748c5.234-1.932,9.675-5.326,14.549-7.925,1.142-.614,2.265-1.261,3.4-1.886C-47.961,201.124-47.191,200.585-46.338,201.34Z" transform="translate(428.999 57.39)" fill="#388c7d"/>
            <path id="Path_60" data-name="Path 60" d="M-425.18,115.213c3.03-.594,5.236-2.788,7.913-4.079,2.148-1.039,4.18-2.351,6.271-3.529a4.033,4.033,0,0,1,2.435-.7,5.369,5.369,0,0,1,.174,3.288c-.658,4.757-1.251,9.525-1.564,14.322a2.76,2.76,0,0,1-.485,1.444c-4.748,1.41-8.64,4.479-12.951,6.738-1,.52-1.919,1.657-3.253.69v-.534c.5-1.929-.163-3.931.373-5.857A54.776,54.776,0,0,1-425.18,115.213Z" transform="translate(426.746 56.789)" fill="#2b4042"/>
            <path id="Path_61" data-name="Path 61" d="M-244.731,334.131l9.514-5.514c4.45-2.58,8.916-5.133,13.333-7.768.678-.405,1.628-.715,1.725-1.762,1.228-1.2,2.891-1.051,4.364-1.183,4.535-.406,9.029-1.055,13.519-1.771.975-.153,2.045-.555,2.891.408-.913,2.217-3.135,2.82-4.935,3.873-7.1,4.155-14.271,8.2-21.38,12.335-.68.4-1.63.709-1.729,1.755A90.374,90.374,0,0,1-244.731,334.131Z" transform="translate(427.915 58.128)" fill="#389081"/>
            <path id="Path_62" data-name="Path 62" d="M-39.551,104.7a81.925,81.925,0,0,1,2.067,15.038c.48,3.888.471,3.872-2.731,5.678-2.845,1.607-5.639,3.305-8.486,4.91a3.855,3.855,0,0,0-2.207,3.715c-.008,1.053.557,2.483-1.057,3.049a2.025,2.025,0,0,1-.815-1.8c.11-7.2-.821-14.34-1.338-21.5.2-.873.964-1.131,1.642-1.505C-48.106,109.87-43.777,107.374-39.551,104.7Z" transform="translate(429.14 56.772)" fill="#34736a"/>
            <path id="Path_63" data-name="Path 63" d="M-134.661-12.226c3.492-2.794,7.654-4.5,11.339-6.979.921-.614,1.806-1.267,2.708-1.9a97.516,97.516,0,0,1,13.547,10.281c.227,1.932-1.461,2.359-2.595,3.034-3.447,2.055-6.97,3.982-10.376,6.109a.787.787,0,0,1-.5,0c-4.911-2.939-9.361-6.526-14.012-9.835C-134.755-11.66-134.742-11.97-134.661-12.226Z" transform="translate(428.622 55.964)" fill="#2d4949"/>
            <path id="Path_64" data-name="Path 64" d="M-96.907-1.835A117.068,117.068,0,0,1-85,10.584c.063,1.751-1.473,2.133-2.537,2.845-3.178,2.127-6.78,3.569-9.784,5.985-.908.223-1.473-.374-2.018-.91q-4.99-4.91-9.9-9.9a2.527,2.527,0,0,1-.921-1.794c.451-1.39,1.762-1.794,2.845-2.446C-103.855,2.281-100.2.52-96.907-1.835Z" transform="translate(428.781 56.087)" fill="#2e504f"/>
            <path id="Path_65" data-name="Path 65" d="M-416.318,202.515a94.5,94.5,0,0,1-4.682-16.1c.473-1.274,1.723-1.64,2.732-2.227,2.9-1.688,5.806-3.347,8.714-5.015.983-.563,2.01-1.165,2.964.084,1.572,5.2,3.436,10.32,4.043,15.766a77.864,77.864,0,0,1-12.78,7.547A1.138,1.138,0,0,1-416.318,202.515Z" transform="translate(426.782 57.246)" fill="#2e504f"/>
            <path id="Path_66" data-name="Path 66" d="M-39.532,104.807c-.069.249-.057.622-.218.726-4.45,2.862-8.764,5.949-13.811,7.725a2.578,2.578,0,0,1-1.1-1.969c-.583-4.1-1.611-8.112-2.242-12.2a3.682,3.682,0,0,1,2.174-3.72c3.875-2.2,7.714-4.469,11.575-6.7a92.969,92.969,0,0,1,3.62,16.13Z" transform="translate(429.121 56.668)" fill="#336e66"/>
            <path id="Path_67" data-name="Path 67" d="M-43.124,88.774c-.691,2.1-2.9,2.245-4.39,3.279A67.1,67.1,0,0,1-54.9,96.3a2.242,2.242,0,0,0-1.3,2.518.8.8,0,0,1-.617-.124.8.8,0,0,1-.336-.531c-1.292-5.257-3.166-10.358-4.234-15.677a2.279,2.279,0,0,1,.988-1.745c4.122-2.455,8.026-5.291,12.568-6.985A82.61,82.61,0,0,1-43.124,88.774Z" transform="translate(429.091 56.572)" fill="#326962"/>
            <path id="Path_68" data-name="Path 68" d="M-344.422,279.8c-4.23,2.532-8.453,5.076-12.7,7.574a4.6,4.6,0,0,1-1.482.288,128.479,128.479,0,0,1-11.342-10.417c.043-.255.091-.568.292-.7,4.392-2.762,8.617-5.831,13.6-7.519,3.166,1.639,5.315,4.5,8.009,6.714C-346.655,276.886-344.631,277.579-344.422,279.8Z" transform="translate(427.11 57.825)" fill="#336e66"/>
            <path id="Path_69" data-name="Path 69" d="M-343.188,299.59c1.982-2.262,4.891-3.118,7.254-4.8,2.078-1.478,4.826-1.963,6.333-4.281,4.019,1.123,7.321,3.649,10.895,5.621,1.335.735,3.237.892,3.728,2.809-3.529,3.037-7.8,4.91-11.765,7.249-1.116.658-2.015,1.959-3.6,1.649A90.768,90.768,0,0,1-343.188,299.59Z" transform="translate(427.284 57.966)" fill="#34786d"/>
            <path id="Path_70" data-name="Path 70" d="M-403.906,87.4c-.921-.943-1.61.034-2.242.384-4.416,2.455-8.771,5.006-13.2,7.45-.644.357-1.628,1.949-2.256-.115a70.651,70.651,0,0,1,3.645-13.436c4.746-1.863,8.874-4.851,13.3-7.292,1.355-.747,2.739-1.45,4.112-2.168.63-.33,1.267-.641,1.823.127a1.549,1.549,0,0,1,.116,1.7c-1.4,3.99-2.716,8-4.048,12.009C-402.842,86.66-402.923,87.484-403.906,87.4Z" transform="translate(426.777 56.561)" fill="#2a393d"/>
            <path id="Path_71" data-name="Path 71" d="M-174.7-47.283c.667,1.315-.46,1.628-1.212,2.073q-6.174,3.638-12.381,7.22c-.964.554-2.03.95-2.52,2.069a2.2,2.2,0,0,1-2.175.431c-3.707-.735-7.395-1.559-11.148-2.05a2.38,2.38,0,0,1-1.732-1.01c-.843-1.28,0-1.755.993-2.317q7.028-3.965,13.991-8.045c.842-.494,1.923-.829,2.149-2.016,4.144.354,7.921,2.07,11.841,3.233a17.128,17.128,0,0,1,2.194.413Z" transform="translate(428.164 55.773)" fill="#2a393d"/>
            <path id="Path_72" data-name="Path 72" d="M-47.787,73.851a113.363,113.363,0,0,1-10.53,6.376c-.954.578-2.036.964-2.526,2.089-.793.086-1.042-.531-1.235-1.074-1.478-4.12-3.108-8.181-4.642-12.276a2.691,2.691,0,0,1-.138-1.519c1.3-1.97,3.51-2.649,5.412-3.735a43.774,43.774,0,0,1,7.881-4.254A85.445,85.445,0,0,1-47.787,73.851Z" transform="translate(429.059 56.482)" fill="#31655f"/>
            <path id="Path_73" data-name="Path 73" d="M-355.905,269.536c-4.943,2.083-9.31,5.2-13.976,7.775a137.689,137.689,0,0,1-10.435-11.4c1.587-2.082,4.082-2.792,6.2-4.056a51.515,51.515,0,0,1,7.22-4.034c1.93.758,2.885,2.609,4.323,3.918,1.9,1.732,3.693,3.595,5.472,5.459C-356.495,267.833-355.523,268.36-355.905,269.536Z" transform="translate(427.045 57.755)" fill="#326962"/>
            <path id="Path_74" data-name="Path 74" d="M-37.6,161.106a116.384,116.384,0,0,1-2.609,17.121c-4.8,2.157-9.245,4.973-13.8,7.582-1.194.683-2.437,1.866-3.99.625-.569-1.4.118-2.687.4-3.99.73-3.419,1.409-6.854,2.455-10.2a4.369,4.369,0,0,1,2.027-1.943c4.083-2.093,7.866-4.728,11.983-6.744C-39.8,162.9-39.022,161.566-37.6,161.106Z" transform="translate(429.114 57.134)" fill="#368275"/>
            <path id="Path_75" data-name="Path 75" d="M-366.77,258.176a146.246,146.246,0,0,1-13.489,7.792,100.528,100.528,0,0,1-9.348-11.943c.362-1.1,1.363-1.535,2.241-2.027,2.852-1.613,5.7-3.223,8.521-4.894a3.2,3.2,0,0,1,2.657-.706c3.171,2.314,5.052,5.773,7.594,8.648C-367.819,255.923-366.4,256.574-366.77,258.176Z" transform="translate(426.985 57.695)" fill="#31655f"/>
            <path id="Path_76" data-name="Path 76" d="M-51.576,136.979c-.965-4.591,1.057-7.312,5.271-8.962,1.966-.767,3.6-2.371,5.567-3.155,2.507-1.005,3.7-2.517,3.253-5.217a60.44,60.44,0,0,1,.942,9.887c.138,2.808.066,5.628.087,8.44a5.7,5.7,0,0,1-2.379,1.932c-3.6,1.9-7.014,4.12-10.6,6.032A3.354,3.354,0,0,0-51.03,148.7c-.154.746-.307,1.995-1.51.689A26.3,26.3,0,0,1-51.576,136.979Z" transform="translate(429.142 56.867)" fill="#34786d"/>
            <path id="Path_77" data-name="Path 77" d="M-46.4,201.424c-4.192,1.4-7.636,4.192-11.518,6.163-2.879,1.461-5.306,3.881-8.738,4.189a1.81,1.81,0,0,1-.083-1.946c1.6-3.683,3.047-7.427,4.4-11.2a2.491,2.491,0,0,1,.767-1.014c5.184-2.385,9.974-5.466,14.931-8.286,1.2-.683,2.366-1.93,3.99-.887A77.127,77.127,0,0,1-46.4,201.424Z" transform="translate(429.058 57.306)" fill="#37887a"/>
            <path id="Path_78" data-name="Path 78" d="M-426.641,133.271c2.992-.665,5.205-2.827,7.875-4.119,1.842-.892,3.543-2.068,5.352-3.038.687-.37,1.473-1.108,2.271-.1a5.248,5.248,0,0,1,.744,4.45c-.6,4.742.235,9.454.054,14.179a12.882,12.882,0,0,1-.294,3.583c-.963,1.381-1.35.434-1.535-.46a25.39,25.39,0,0,1-.163-5.177c0-1.668-.578-2.015-2.017-1.145-3.182,1.926-6.347,3.89-9.709,5.492-.949.451-2.148,1.219-2.573-.657Z" transform="translate(426.746 56.906)" fill="#2c4345"/>
            <path id="Path_79" data-name="Path 79" d="M-294.536,324.2a78.538,78.538,0,0,1-13.489-5.145c-.019-1.127.809-1.668,1.6-2.148,4.47-2.679,9.125-5.044,13.444-7.98a2.433,2.433,0,0,1,1.228-.306,70.329,70.329,0,0,1,13.385,4.3c.249,1.44-.859,1.971-1.8,2.529-3.267,1.947-6.526,3.906-9.852,5.75A37.351,37.351,0,0,0-294.536,324.2Z" transform="translate(427.508 58.084)" fill="#368275"/>
            <path id="Path_80" data-name="Path 80" d="M-407.043,179.248c-2.873.154-4.772,2.36-7.2,3.464-2.337,1.06-4.5,2.513-6.732,3.795a85.708,85.708,0,0,1-3.068-14.518c3.99-1.995,7.786-4.358,11.7-6.5.92-.51,1.93-1.735,3.15-.373.712,3.73,1.6,7.424,2.274,11.157C-406.742,177.243-406.276,178.286-407.043,179.248Z" transform="translate(426.762 57.156)" fill="#2d4c4b"/>
            <path id="Path_81" data-name="Path 81" d="M-426.645,146.175c.648,1.1,1.42.577,2.165.154,3.513-2,7.041-3.99,10.521-6.043,1.751-1.036,2.3-.729,2.336,1.381.032,2.365-.624,4.8.444,7.1,1.175,1.467.779,3.1.507,4.72-1.792,2.248-4.647,2.874-6.879,4.467a47.3,47.3,0,0,1-5.171,2.975c-.921.493-2.032,1.335-2.875-.209l-.154-1.941c-.508-1.219.09-2.549-.385-3.771A42.781,42.781,0,0,1-426.645,146.175Z" transform="translate(426.757 56.998)" fill="#2c4647"/>
            <path id="Path_82" data-name="Path 82" d="M-96.843-1.778c-1.074,2.739-4.057,2.885-6.044,4.392-2.165,1.64-4.883,2.455-6.94,4.312-1.154.292-1.661-.684-2.375-1.228-2.32-1.772-4.429-3.8-6.7-5.632-.614-.5-1.582-.856-1.3-1.981,2.374-2.779,5.917-3.747,8.831-5.693,1.49-1,3.285-1.57,4.217-3.278a35.689,35.689,0,0,1,7.011,6.345A10.386,10.386,0,0,0-96.843-1.778Z" transform="translate(428.713 56.03)" fill="#2d4c4b"/>
            <path id="Path_83" data-name="Path 83" d="M-75.794,229.8c5.923-2.581,11.245-6.253,16.906-9.308,2.087-1.125,3.864-2.916,6.4-3.15a85.344,85.344,0,0,1-5.429,11.484c-3.925.741-6.925,3.353-10.314,5.164-4.406,2.354-8.7,4.926-13.043,7.379a4.349,4.349,0,0,1-2.4.862c-.425-.731-.034-1.347.339-1.918,2.125-3.254,4.3-6.479,6.325-9.8C-76.761,230.083-76.442,229.619-75.794,229.8Z" transform="translate(428.951 57.496)" fill="#388e7e"/>
            <path id="Path_84" data-name="Path 84" d="M-97.522,19.272c.973-2.537,3.708-2.7,5.555-4.057,2.236-1.643,5.044-2.466,6.882-4.711a78.257,78.257,0,0,1,8.377,10.22c.614,1.024-.041,1.657-.786,2.1a85.284,85.284,0,0,1-11.6,6.5,1.832,1.832,0,0,1-1.593-.689c-2.139-2.561-4.307-5.1-6.394-7.706A1.649,1.649,0,0,1-97.522,19.272Z" transform="translate(428.867 56.167)" fill="#2f5552"/>
            <path id="Path_85" data-name="Path 85" d="M-416.349,202.409c3.619-2.073,7.228-4.167,10.868-6.206a21.608,21.608,0,0,1,2.584-1.057c.169.049.391.084.46.215a36.693,36.693,0,0,1,4.419,12.225c-3.747,2.531-7.722,4.685-11.662,6.906a1.874,1.874,0,0,1-2.174-.086A74.631,74.631,0,0,1-416.349,202.409Z" transform="translate(426.812 57.353)" fill="#2f5552"/>
            <path id="Path_86" data-name="Path 86" d="M-291.784,309.185c-5.273,3.489-11.2,5.912-16.165,9.9a67.46,67.46,0,0,1-12.059-5.665c2.236-2.479,5.388-3.563,8.113-5.291,2.378-1.511,4.835-2.9,7.213-4.422a58.786,58.786,0,0,1,12.644,4.794C-291.812,308.606-291.786,308.923-291.784,309.185Z" transform="translate(427.432 58.05)" fill="#367f73"/>
            <path id="Path_87" data-name="Path 87" d="M-242.3,319.083c-.228,1.853-2.039,2-3.172,2.68-5.832,3.529-11.774,6.859-17.68,10.26a48.774,48.774,0,0,1-10.84-2.1c-.318-.964.356-1.506.981-1.894,6-3.718,12.072-7.327,18.286-10.7a87.532,87.532,0,0,1,10.139.8A3.023,3.023,0,0,1-242.3,319.083Z" transform="translate(427.728 58.138)" fill="#378a7b"/>
            <path id="Path_88" data-name="Path 88" d="M-37.625,161.194c-1.321,3.106-4.665,3.445-7.059,5.054-3.175,2.138-6.6,3.909-9.914,5.832a1.227,1.227,0,0,1-.5-1.125,88.523,88.523,0,0,1,2.042-12.109c3.529-2.435,7.317-4.449,11.064-6.524a13.856,13.856,0,0,0,5.4-4.636A79.287,79.287,0,0,1-37.625,161.194Z" transform="translate(429.134 57.046)" fill="#367f73"/>
            <path id="Path_89" data-name="Path 89" d="M-36.6,147.753a5.139,5.139,0,0,1-3.295,4.215c-3.651,1.914-7.157,4.108-10.72,6.189a3.4,3.4,0,0,1-1.978.483c-1.49-3.055-.76-5.962.592-8.825-.124-3.307,2.116-4.7,4.657-6.006,3.683-1.889,7.258-3.957,10.881-5.949A69.052,69.052,0,0,1-36.6,147.753Z" transform="translate(429.145 56.985)" fill="#357b70"/>
            <path id="Path_90" data-name="Path 90" d="M-304.759,303.961c-1.329,2.233-3.792,2.871-5.832,4.093-3.086,1.85-6.232,3.6-9.36,5.39a59.909,59.909,0,0,1-10.478-5.668c4.923-3.223,10.024-6.152,15.224-8.9a1.653,1.653,0,0,1,1.71.153c2.3,1.154,4.662,2.188,7.016,3.241C-305.722,302.593-304.8,302.87-304.759,303.961Z" transform="translate(427.36 58.027)" fill="#357b70"/>
            <path id="Path_91" data-name="Path 91" d="M-376.084,246.82c-2.952.556-5.064,2.762-7.689,3.962-2.014.921-3.865,2.2-5.79,3.321a78.169,78.169,0,0,1-6.769-9.863,1.538,1.538,0,0,1,.667-1.074,141.751,141.751,0,0,1,12.333-7.025,2.245,2.245,0,0,1,1.558,1.228c1.647,2.493,3.447,4.879,5.1,7.365C-376.273,245.345-375.667,245.958-376.084,246.82Z" transform="translate(426.942 57.613)" fill="#31615c"/>
            <path id="Path_92" data-name="Path 92" d="M-402.39,233.964a70.634,70.634,0,0,1-5.791-11.418c3.939-.973,7.059-3.566,10.576-5.371,1.124-.576,2.136-1.577,3.587-1.007,1.9,2.927,3.385,6.083,5.064,9.13a2.073,2.073,0,0,1,.188,1.961c-3.646,2.546-7.643,4.506-11.468,6.752A1.766,1.766,0,0,1-402.39,233.964Z" transform="translate(426.865 57.485)" fill="#2f5a56"/>
            <path id="Path_93" data-name="Path 93" d="M-53.532,59.522c-4,3.172-8.652,5.259-13.043,7.78-.262.025-.6.02-.7-.2C-69,63.615-71.3,60.377-71.959,56.42c2.762-2.5,6.253-3.836,9.36-5.787a7.158,7.158,0,0,1,3.974-1.688A63.314,63.314,0,0,1-53.532,59.522Z" transform="translate(429.025 56.415)" fill="#31615c"/>
            <path id="Path_94" data-name="Path 94" d="M-70.325,29.424a68.037,68.037,0,0,1,5.985,9.4c.282,1.3-.826,1.587-1.581,2.032q-5.468,3.223-10.915,6.488c-.086,0-.207.028-.253-.018A25.474,25.474,0,0,1-83.81,36.712a5,5,0,0,1,2.331-1.97c2.775-1.571,5.55-3.14,8.277-4.792C-72.319,29.418-71.428,28.814-70.325,29.424Z" transform="translate(428.947 56.286)" fill="#2f5a56"/>
            <path id="Path_95" data-name="Path 95" d="M-42.684,188.5c-3.921.713-6.692,3.663-10.172,5.234-2.86,1.292-5.191,3.672-8.463,4.116a1.3,1.3,0,0,1-.307-1.41c.884-3.012,1.854-6,2.824-8.983a1.587,1.587,0,0,1,1.051-1.036c3.924-.689,6.669-3.683,10.163-5.2,2.455-1.074,4.358-3.44,7.4-3.107A59.885,59.885,0,0,1-42.684,188.5Z" transform="translate(429.088 57.242)" fill="#368578"/>
            <path id="Path_96" data-name="Path 96" d="M-402.427,233.891c3.747-.9,6.627-3.488,9.983-5.152a12.466,12.466,0,0,1,3.479-1.6c2.286,1.611,5.783,7.324,5.722,9.345l-13.044,7.815A76.51,76.51,0,0,1-402.427,233.891Z" transform="translate(426.902 57.558)" fill="#305e59"/>
            <path id="Path_97" data-name="Path 97" d="M-76.9,47.167c2.073-2.569,5.243-3.5,7.857-5.268,1.55-1.048,3.423-1.614,4.654-3.133a65.856,65.856,0,0,1,5.791,10.247c-4.314,2.609-8.583,5.282-13.142,7.453a1.012,1.012,0,0,1-1.134-.417,77.865,77.865,0,0,1-4.241-7.927A.907.907,0,0,1-76.9,47.167Z" transform="translate(428.995 56.349)" fill="#305e59"/>
            <path id="Path_98" data-name="Path 98" d="M-255.183,317.965c-4.776,3.508-10.137,6.051-15.162,9.146a8.48,8.48,0,0,0-3.575,2.829,48.932,48.932,0,0,1-10.391-2.578c-.7-1.514.567-1.95,1.447-2.5,3.12-1.96,6.342-3.749,9.569-5.525,2.114-1.16,3.991-2.646,6.032-3.9,3.887-.124,7.581,1.125,11.384,1.594a.816.816,0,0,1,.544.321A.817.817,0,0,1-255.183,317.965Z" transform="translate(427.662 58.123)" fill="#37877a"/>
            <path id="Path_99" data-name="Path 99" d="M-267.608,315.873c-1.83,3.069-5.335,3.737-8.026,5.569-2.318,1.58-4.849,2.853-7.312,4.215-.725.4-1.289.832-1.3,1.726a52.989,52.989,0,0,1-10.374-3.205c.72-2.536,3.281-2.8,5.052-3.99,3.609-2.426,7.7-4.082,11.09-6.879a1.941,1.941,0,0,1,1.933-.325q3.749.871,7.507,1.711C-268.411,314.835-267.641,314.941-267.608,315.873Z" transform="translate(427.595 58.103)" fill="#368577"/>
            <path id="Path_100" data-name="Path 100" d="M-425.6,160.626c1.552.92,2.53-.411,3.683-.972,3.666-1.791,6.8-4.576,10.777-5.792a17.73,17.73,0,0,1,1.5,10.911c-3.479,1.995-6.924,4.054-10.458,5.946-1.2.645-2.277,1.932-3.934,1.337A67.417,67.417,0,0,1-425.6,160.626Z" transform="translate(426.752 57.087)" fill="#2d4949"/>
            <path id="Path_101" data-name="Path 101" d="M-70.29,29.482c-4.713,1.949-8.845,4.947-13.3,7.366a11.816,11.816,0,0,1-5.678-7.752C-85.678,26.947-82.1,24.78-78.5,22.65c.818-.483,1.748-.812,1.748-1.995A63.909,63.909,0,0,1-70.29,29.482Z" transform="translate(428.917 56.23)" fill="#2f5754"/>
            <path id="Path_102" data-name="Path 102" d="M-394.173,216.368a84.076,84.076,0,0,0-10.7,5.831c-1.093.614-2.072,1.2-3.283.4a43.9,43.9,0,0,1-3.723-8.271c3.529-.709,6.165-3.134,9.223-4.757a17.69,17.69,0,0,1,4.373-2.045A14.9,14.9,0,0,1-394.173,216.368Z" transform="translate(426.842 57.428)" fill="#2f5754"/>
            <path id="Path_103" data-name="Path 103" d="M-426.25,126.871c-.09,1.955.493,3.953-.373,5.858A16.265,16.265,0,0,1-426.25,126.871Z" transform="translate(426.735 56.915)" fill="#2c4345"/>
            <path id="Path_104" data-name="Path 104" d="M-426.113,154.908c.836,1.185.294,2.509.385,3.77A7.23,7.23,0,0,1-426.113,154.908Z" transform="translate(426.738 57.095)" fill="#2d4949"/>
            <path id="Path_105" data-name="Path 105" d="M-215.651,333.864c1.022-.782,2.181-.307,3.282-.358A5.159,5.159,0,0,1-215.651,333.864Z" transform="translate(428.101 58.241)" fill="#399584"/>
            <path id="Path_106" data-name="Path 106" d="M-394.175,217.957l-4.11-8.831q-2.324-6.232-4.643-12.465-2.1-8.049-4.2-16.094c-.758-4.867-2.422-9.572-2.608-14.543q-.752-5.455-1.5-10.911-.016-2.595-.033-5.19c.125-7.614-.49-15.232.025-22.846.884-2.707.577-5.558,1.019-8.323.582-3.623,1.049-7.264,1.565-10.9,1.527-6.588,2.7-13.257,4.684-19.735l5.2-15.052c1.98-3.516,3.306-7.331,5-10.975,1.373-2.957,2.893-5.845,4.35-8.764,3.4-5.434,6.715-10.926,10.24-16.278a61.583,61.583,0,0,1,6.9-9.189c4.519-5.323,9.33-10.375,14.062-15.5,5.637-6.11,12.212-11.093,18.37-16.573A38.068,38.068,0,0,1-334.9-7.427a174.877,174.877,0,0,1,28-16.117c.221-.1.377-.341.563-.516A174.749,174.749,0,0,1-265.5-37.078a35.758,35.758,0,0,0,7.459-1.521c3.683.061,7.213-1.287,10.911-1.053.784-.588,1.821.124,2.6-.5l4.674-.014a153.814,153.814,0,0,1,19.208,0,131.266,131.266,0,0,1,16.1,1.551l15.055,2.629,19.731,5.721,18.181,7.754c6.482,3.02,12.442,6.973,18.689,10.413l14.545,10.376,10.381,8.844q5.973,6.5,12.457,12.483a104.953,104.953,0,0,0,8.3,9.884,45.282,45.282,0,0,0,5.679,7.752,88.64,88.64,0,0,0,6.771,10.435,58.069,58.069,0,0,0,5.165,9.3l5.188,10.9,5.769,15.08,4.683,16.6q1.329,7.267,2.656,14.533a175.3,175.3,0,0,1,1.651,23.257c0,.219.235.44.36.66.079,4.327-.768,8.622-.422,12.956-.06,2.951-.845,5.853-.591,8.825l-2.02,13.5-3.2,14.538-3.566,11.429q-2.681,6.993-5.37,13.984l-9.249,18.209-7.892,12.43a236.079,236.079,0,0,1-24.218,28.1c-5.874,5.217-11.792,10.369-18.151,15a179.7,179.7,0,0,1-45.147,23.957c-.4.153-.783.359-1.172.54a232.371,232.371,0,0,1-28.043,7.349c-6.906,1.053-13.811,2.013-20.773,2.549-7.444-.166-14.885.78-22.332,0l-12.955-1.131-12.486-2.113-10.874-2.566-13.466-4.175-13.043-5.248-10.435-5.095c-3.738-2.13-7.481-4.251-11.2-6.4-1.112-.638-2.186-1.346-3.279-2.022l-14.993-10.852-11.549-10.33-10.923-11.421L-376,248.586l-7.2-10.395a104.025,104.025,0,0,0-5.721-9.345C-390.122,224.965-392.935,221.841-394.175,217.957Z" transform="translate(426.843 55.839)" fill="#192123"/>
            <path id="Path_107" data-name="Path 107" d="M-221.744-40.167h-19.209c2.285-1.087,4.705-.307,7.059-.483,1.793-.13,3.6-.028,5.406-.029C-226.252-40.387-223.921-41.283-221.744-40.167Z" transform="translate(427.94 55.839)" fill="#293237"/>
            <path id="Path_108" data-name="Path 108" d="M-245.579-40.159c-.734.847-1.72.4-2.6.5C-247.445-40.5-246.456-40.039-245.579-40.159Z" transform="translate(427.893 55.841)" fill="#293237"/>
            <path id="Path_109" data-name="Path 109" d="M-276.858,186.65a9.975,9.975,0,0,1-10.843.393c-2.513-8.262-4.388-16.693-6.663-25.012-5.773-21.151-11.327-42.362-17.009-63.538a7.284,7.284,0,0,1-.307-3.54c.063-.686.572-1.037,1.055-1.41,5.386-2.621,11.383-3.031,17.033-4.68a26.845,26.845,0,0,1,3.509-.767,6.232,6.232,0,0,1,3.236,6.38c1.808-3.411,2.148-7.826,6.853-8.809a35.655,35.655,0,0,0,4.3-.821,1.912,1.912,0,0,1,1.2.318,4.367,4.367,0,0,1,1.2,2.533q7.367,31.327,14.885,62.621a8.4,8.4,0,0,1,.345,2.039c-.247,2.79-2.048,4.886-3.316,7.2-4.46,8.154-8.859,16.343-13.464,24.419A12.721,12.721,0,0,1-276.858,186.65Z" transform="translate(427.492 56.645)" fill="#1fc8a7"/>
            <path id="Path_110" data-name="Path 110" d="M-150.6,184.085a4.354,4.354,0,0,1-1.976,2.049c-4.122,1.921-8.621,2.491-12.978,3.52-18.006,4.251-36,8.561-54.015,12.781-8.839,2.069-17.656,4.226-26.509,6.238a4.825,4.825,0,0,1-2.8.145c-1.273-.928-.36-1.853.074-2.7,3.385-6.612,7.119-13.034,10.7-19.54,6.28-11.423,12.5-22.883,18.875-34.249,1.189-2.116,1.785-4.729,4.221-6a21.32,21.32,0,0,1,6.8,3.045c11.28,6.159,22.583,12.276,33.857,18.451,7.485,4.1,15.112,7.944,22.4,12.4A14.482,14.482,0,0,1-150.6,184.085Z" transform="translate(427.882 57.04)" fill="#1fc8a7"/>
            <path id="Path_111" data-name="Path 111" d="M-249.022,208.226c7.895-1.381,15.614-3.529,23.406-5.352,23.8-5.564,47.583-11.243,71.375-16.863a11.026,11.026,0,0,1,1.8-.132c-4.374,3.53-9.378,6.092-14.133,9.023q-40.893,25.2-81.856,50.272c-3.237,1.988-6.445,4.012-9.711,5.957a9.925,9.925,0,0,1-13.281-1.995c-.579-.829,0-1.481.358-2.136,6.79-12.413,13.576-24.827,20.472-37.182C-250.219,209.15-249.911,208.4-249.022,208.226Z" transform="translate(427.742 57.293)" fill="#198889"/>
            <path id="Path_112" data-name="Path 112" d="M-274.908,85.616l-1.075.011c-.54.345-.957.281-1.188-.368-1.42-.322,2-.368.024-1.013-2.874-.938-6.067-1.622-7.366-4.973-.244-.626-.646-1.228-.253-1.944,6.649-4,13.325-7.955,19.948-12.009q29.923-18.341,59.81-36.735c5.175-3.172,10.029-2.455,14.187,1.941-1.926,4.935-4.877,9.334-7.378,13.964-4.356,8.061-8.828,16.057-13.232,24.092a7.246,7.246,0,0,1-2.38,3.014q-11.93,3.376-24.111,5.678c-2.394.638-4.785,1.3-7.213,1.829-4.168,1.1-8.336,2.194-12.57,3.017q-6.968,1.535-13.888,3.25A5.387,5.387,0,0,1-274.908,85.616Z" transform="translate(427.66 56.271)" fill="#198889"/>
            <path id="Path_113" data-name="Path 113" d="M-249,208.824q-11.2,20.457-22.4,40.912a8.77,8.77,0,0,1-2.745-8.871q2.933-12.289,5.93-24.562a12.456,12.456,0,0,1,1.855-3.952q38.636-58.029,77.26-116.074a7.444,7.444,0,0,1,3.4-3.43c.548,1.142-.241,1.995-.687,2.876-2.383,4.7-5.057,9.236-7.561,13.867a24.574,24.574,0,0,0-1.938,4.223,81.2,81.2,0,0,0-4.991,8.44c-2.272,3.968-4.473,7.979-6.568,12.041-1.995,3.773-4.241,7.407-6.16,11.222a2.64,2.64,0,0,1-1.144,1.334c-2.413,2.762-3.786,6.147-5.535,9.29-9.6,17.27-19.079,34.611-28.588,51.933A2.391,2.391,0,0,0-249,208.824Z" transform="translate(427.721 56.695)" fill="#68fde1"/>
            <path id="Path_114" data-name="Path 114" d="M-213.716,71.046c6.263-11.337,12.495-22.692,18.812-34,1.246-2.23,2.1-4.723,4.018-6.546A10.845,10.845,0,0,1-188.9,40.72c-1.943,7.567-3.75,15.17-5.625,22.755a13.336,13.336,0,0,1-1.975,4.175q-38.592,57.954-77.151,115.931a7.574,7.574,0,0,1-3.42,3.417q8.062-14.771,16.13-29.542a21.478,21.478,0,0,0,2.148-4.41c1.349-4.432,4.066-8.179,6.185-12.222,1.883-3.6,3.931-7.111,5.814-10.713,3.332-5.4,6.215-11.048,9.289-16.6,2.055-3.847,4.109-7.7,6.251-11.5,4.784-8.368,9.333-16.864,14-25.3A27.756,27.756,0,0,1-213.716,71.046Z" transform="translate(427.707 56.295)" fill="#68fde1"/>
            <path id="Path_115" data-name="Path 115" d="M-151.076,184.432c-1.5-.776-1.074-2.363-1.517-3.589-2.287-3.924-2.584-8.47-3.944-12.687a53.611,53.611,0,0,0-2.259-7.073c-1.215-5.873-3.2-11.555-4.356-17.441a112.619,112.619,0,0,0-3.786-13.606q-4.57-17.155-9.079-34.323c-.295-1.114-1.211-2.455.542-3.3a9.237,9.237,0,0,1,4.55,4.737q13.732,27.726,27.434,55.464a8.623,8.623,0,0,1,.839,6.72C-145.389,167.725-147.823,176.216-151.076,184.432Z" transform="translate(428.353 56.693)" fill="#68fde1"/>
            <path id="Path_116" data-name="Path 116" d="M-311.618,94.882q4.578,16.984,9.149,33.967,7.282,27.239,14.475,54.5c.3,1.137,1.349,2.32.356,3.627a9.217,9.217,0,0,1-4.23-4.373q-13.685-27.632-27.407-55.242a11.311,11.311,0,0,1-.586-9c2.262-6.841,4.477-13.7,6.752-20.535A5.8,5.8,0,0,1-311.618,94.882Z" transform="translate(427.427 56.708)" fill="#68fde1"/>
            <path id="Path_117" data-name="Path 117" d="M-175.346,92.426c-.822.767-.307,1.57-.084,2.388q4.512,16.958,9,33.922c.107.4.34.813-.011,1.214a3.321,3.321,0,0,1-2.657-.7c-8.73-4.656-17.381-9.457-26.113-14.109-.606-.322-1.227-.66-1.381-1.43-.628-1.78.808-2.87,1.475-4.174,2.865-5.613,6.333-10.9,8.912-16.672A9.832,9.832,0,0,1-175.346,92.426Z" transform="translate(428.224 56.683)" fill="#1fc8a7"/>
            <path id="Path_118" data-name="Path 118" d="M-284.694,77.033c.912,4.143,4.421,5.183,7.736,6.388,1.554.565,1.262.945.033,1.461-.869,1.074-2.227.984-3.362,1.426-2.465.6-3.53,2.543-4.422,4.645-.563,1.335-1.1,2.678-1.729,4.2-1.332-2.363-1.714-4.91-3.323-6.842-2.422-1.315-5.259-1.842-7.3-3.872-.307-.359-.214-.565.238-.671,5.57-1.311,9.054-4.711,10.128-11.076Z" transform="translate(427.576 56.566)" fill="#fdfefe"/>
            <path id="Path_119" data-name="Path 119" d="M-296.979,84.363c2.5,1.162,5.394,1.59,7.3,3.87-2.762,1.688-6.012,1.7-9.014,2.564-3.917,1.13-7.953,1.841-11.938,2.742,3.62-3.107,7.99-5.064,11.9-7.723C-298.1,85.385-297.315,85.15-296.979,84.363Z" transform="translate(427.493 56.64)" fill="#19898a"/>
            <path id="Path_120" data-name="Path 120" d="M-246.368,129.87c-2.092,5.113-5.173,9.7-7.7,14.589-1.46,2.817-3.151,5.514-4.737,8.263q-7.854-32.992-15.71-65.971c-.12-.5-.307-.99-.452-1.484,5.6-1.748,11.356-2.908,17.081-4.143a4.668,4.668,0,0,1,1.5,2.925q5.162,21.383,10.182,42.8A3.986,3.986,0,0,1-246.368,129.87Z" transform="translate(427.721 56.618)" fill="#a4e8db"/>
            <path id="Path_121" data-name="Path 121" d="M-280.4,86.232a8.564,8.564,0,0,1,3.376-1.432l1.02.448A7.8,7.8,0,0,1-280.4,86.232Z" transform="translate(427.684 56.642)" fill="#2aa197"/>
            <path id="Path_122" data-name="Path 122" d="M-158.011,160.8c1.867,2.59,1.949,5.76,2.785,8.679,1.051,3.675,1.929,7.4,2.88,11.1q-12.068-6.5-24.135-13-19.335-10.475-38.655-20.992c1.688-4.613,4.665-8.554,6.772-12.949,1.131-.521,2.013.154,2.9.653,15.054,8.332,30.209,16.478,45.333,24.68A4.756,4.756,0,0,1-158.011,160.8Z" transform="translate(428.106 56.956)" fill="#a4e8db"/>
            <path id="Path_123" data-name="Path 123" d="M-220.475,208.312a6.516,6.516,0,0,0,4.667-5.423,6.782,6.782,0,0,0,5.651,5.371,6.444,6.444,0,0,0-5.551,5.4C-216.553,210.594-217.976,208.961-220.475,208.312Z" transform="translate(428.072 57.402)" fill="#f9fbfb"/>
            <path id="Path_124" data-name="Path 124" d="M-246.477,129.889c-1.751-7.544-3.479-15.092-5.262-22.628C-253.8,98.549-255.91,89.85-258,81.146l12.516-3.058a4.535,4.535,0,0,1,1.173,2.526c2.3,9.708,4.586,19.418,6.947,29.112a6.4,6.4,0,0,1,.233,3.546A134.106,134.106,0,0,1-246.477,129.889Z" transform="translate(427.83 56.601)" fill="#1fc8a7"/>
            <path id="Path_125" data-name="Path 125" d="M-213.963,70.787a100.018,100.018,0,0,1-5.984,11.4c-3.158,5.925-6.412,11.8-9.652,17.679a21.642,21.642,0,0,1-1.478,2.084c-1.182-.714-1.274-1.995-1.535-3.132-1.289-5.6-2.651-11.188-3.953-16.789A31.566,31.566,0,0,0-238.35,76.4Z" transform="translate(427.955 56.555)" fill="#1fc8a7"/>
            <path id="Path_126" data-name="Path 126" d="M-238.3,76.362c1.286.048,1.366,1,1.594,1.964,1.869,7.867,3.78,15.724,5.678,23.584l-6.181,11.372c-3.008-11.676-5.84-23.392-8.351-35.185Z" transform="translate(427.91 56.59)" fill="#a4e8db"/>
            <path id="Path_127" data-name="Path 127" d="M-158.054,160.872q-23.775-12.917-47.556-25.829c-.905-.492-1.864-.89-2.8-1.332,2.243-3.97,4.125-8.145,6.732-11.909,1.618-.293,2.806.743,4.048,1.435,10.948,6.11,22.06,11.914,33.015,18.009a5.165,5.165,0,0,1,2.351,1.955c1.294,5.134,2.6,10.264,3.873,15.4A22.586,22.586,0,0,1-158.054,160.872Z" transform="translate(428.147 56.882)" fill="#1fc8a7"/>
            <path id="Path_128" data-name="Path 128" d="M-162.3,143.251l-39.414-21.4c1.615-2.83,2.456-6.146,5.161-8.287l30.15,16.244c1.961,2.566,1.826,5.85,2.959,8.708a33.1,33.1,0,0,1,1.145,4.732Z" transform="translate(428.191 56.831)" fill="#a4e8db"/>
            <path id="Path_129" data-name="Path 129" d="M-252.94,93.855a6.338,6.338,0,0,0,5.4-5.325,6.418,6.418,0,0,0,5.358,5.218c-2.762.99-4.692,2.187-5.245,4.932A6.935,6.935,0,0,0-252.94,93.855Z" transform="translate(427.862 56.667)" fill="#fafdfc"/>
          </g>
        </g>
      </g>
      <g id="Group_55" data-name="Group 55" transform="translate(272.623 911.207)">
        <g id="Group_53" data-name="Group 53" transform="translate(302.084 0)">
          <path id="Path_130" data-name="Path 130" d="M201.861,13.788,156.215,177.154a9.458,9.458,0,0,1-17.2,2.043l-22.7-40.709-48.446,48.6a9.364,9.364,0,0,1-13.242,0L35.866,168.32,16.231,148.779a9.458,9.458,0,0,1,0-13.242L64.506,87.242,24.876,65.091a9.458,9.458,0,0,1,2.043-17.2L190.3,2.249a9.458,9.458,0,0,1,11.558,11.539Z" transform="translate(-13.527 -1.938)" fill="#666"/>
        </g>
        <path id="Path_132" data-name="Path 132" d="M181.884,11.3,136.294,174.779a9.458,9.458,0,0,1-17.2,2.043L96.342,136.151l-48.5,48.522a9.364,9.364,0,0,1-13.242,0L15.832,165.907,179.5,2.22a9.458,9.458,0,0,1,2.4,9.137Z" transform="translate(308.515 0.494)" fill="#4d4d4d"/>
        <g id="Group_54" data-name="Group 54" transform="translate(0 59.71)">
          <path id="Path_131" data-name="Path 131" d="M146.96,92.055a17.971,17.971,0,0,1-17.971,17.971H93.047v35.942a17.971,17.971,0,1,1-35.942,0V110.026H21.163a17.971,17.971,0,0,1,0-35.942H57.1V38.142a17.971,17.971,0,1,1,35.942,0V74.084h35.942A17.971,17.971,0,0,1,146.96,92.055Z" transform="translate(-3.192 -20.171)" fill="#1fc9a8"/>
        </g>
        <path id="Path_133" data-name="Path 133" d="M78.947,92.234A17.971,17.971,0,0,1,60.976,110.2H25.034v35.942A17.971,17.971,0,0,1,7.063,164.118V20.161A17.971,17.971,0,0,1,25.034,38.132V74.074H60.976a17.971,17.971,0,0,1,17.971,18.16Z" transform="translate(64.84 39.36)" fill="#1fb296"/>
      </g>
    </g>
  </g>
</svg>
