<svg width="107" height="166" viewBox="0 0 107 166" fill="none" xmlns="http://www.w3.org/2000/svg">
<path d="M10.5254 59.2468L84.3454 16.6268C88.5254 14.2168 93.7454 17.2268 93.7454 22.0568V107.297C93.7454 110.507 92.0354 113.477 89.2454 115.087L15.4254 157.707C11.2454 160.117 6.02539 157.107 6.02539 152.277V67.0368C6.02539 63.8268 7.73539 60.8568 10.5254 59.2468Z" fill="white"/>
<path d="M8.98539 153.747V68.5071C8.98539 65.2971 10.6954 62.3271 13.4854 60.7171L87.3054 18.0971C88.7254 17.2771 90.2554 17.1271 91.6654 17.4171C89.7654 15.7071 86.8654 15.1571 84.3454 16.6171L10.5254 59.2371C7.74539 60.8471 6.02539 63.8171 6.02539 67.0271V152.267C6.02539 155.457 8.31539 157.807 11.0654 158.377C9.81539 157.257 8.98539 155.657 8.98539 153.747Z" fill="#E2E8FB"/>
<g clip-path="url(#clip0_678_2478)">
<path d="M33.4769 121.824C30.5429 121.824 27.7998 121.124 25.3432 119.71C19.6011 116.408 16.437 109.781 16.437 101.049C16.437 84.5882 28.082 64.5006 42.3962 56.2702C49.9873 51.9043 57.3354 51.3207 63.0776 54.6232C68.8197 57.9258 71.9838 64.5525 71.9838 73.2844C71.9838 89.7452 60.3389 109.833 46.029 118.059C41.68 120.557 37.4135 121.82 33.4813 121.82L33.4769 121.824ZM46.0246 62.5381C33.924 69.4977 23.6983 87.1343 23.6983 101.049C23.6983 107.088 25.5733 111.488 28.9717 113.447C32.3745 115.405 37.1401 114.817 42.3875 111.8C54.4882 104.84 64.7139 87.2078 64.7139 73.2887C64.7139 67.2499 62.8389 62.8493 59.4404 60.8912C56.0376 58.933 51.272 59.5209 46.0246 62.5381Z" fill="#CAD6F9"/>
<path d="M44.8312 120.237C42.1706 120.237 39.6923 119.606 37.4875 118.34C32.2574 115.331 29.3755 109.189 29.3755 101.049C29.3755 85.0938 40.6645 65.62 54.536 57.6446C61.615 53.5726 68.3945 52.9891 73.6289 55.9977C78.8589 59.0063 81.7409 65.1488 81.7409 73.2885C81.7409 89.2436 70.4518 108.717 56.5803 116.693C52.4831 119.049 48.4857 120.237 44.8312 120.237ZM56.5803 61.1633C43.8329 68.4946 33.4597 86.3863 33.4597 101.045C33.4597 107.671 35.6168 112.56 39.5317 114.812C43.4466 117.065 48.7765 116.477 54.536 113.165C67.2834 105.834 77.6567 87.9468 77.6567 73.2842C77.6567 66.6575 75.4995 61.7685 71.589 59.5163C67.674 57.2642 62.3442 57.8521 56.5846 61.1633H56.5803Z" fill="#1C293A"/>
<path d="M44.8265 121.824C41.8925 121.824 39.1495 121.124 36.6929 119.71C30.9507 116.407 27.7866 109.781 27.7866 101.049C27.7866 95.4121 29.1408 89.1615 31.6972 82.9714C32.4611 81.1256 34.5835 80.2437 36.4368 81.0045C38.2901 81.7653 39.1755 83.8791 38.4116 85.7249C36.2111 91.0505 35.0479 96.3501 35.0479 101.049C35.0479 107.088 36.9229 111.488 40.3213 113.446C43.7241 115.405 48.4897 114.817 53.7371 111.799C65.8378 104.84 76.0635 87.2076 76.0635 73.2885C76.0635 71.2914 77.6911 69.6704 79.6963 69.6704C81.7015 69.6704 83.3291 71.2914 83.3291 73.2885C83.3291 89.7494 71.6841 109.837 57.3742 118.063C53.0253 120.562 48.7588 121.824 44.8265 121.824Z" fill="url(#paint0_linear_678_2478)"/>
<path d="M35.0568 87.964C34.5967 87.964 34.1279 87.8775 33.6766 87.6916C31.8233 86.9309 30.9378 84.817 31.7017 82.9713C36.4587 71.4556 44.7008 61.4744 53.746 56.2742C55.4821 55.2757 57.7043 55.8679 58.7069 57.597C59.7095 59.3261 59.1149 61.5393 57.3788 62.5378C49.792 66.8994 42.5264 75.7869 38.4205 85.7248C37.8432 87.121 36.4891 87.9683 35.0611 87.9683L35.0568 87.964Z" fill="#1A74EC"/>
</g>
<defs>
<linearGradient id="paint0_linear_678_2478" x1="27.7866" y1="95.7514" x2="83.3291" y2="95.7514" gradientUnits="userSpaceOnUse">
<stop stop-color="#00B1F5"/>
<stop offset="1" stop-color="#DDF08B"/>
</linearGradient>
<clipPath id="clip0_678_2478">
<rect width="66.8966" height="69.3146" fill="white" transform="translate(16.437 52.5093)"/>
</clipPath>
</defs>
</svg>
